<svg xmlns="http://www.w3.org/2000/svg" viewBox="0 0 550 400" enable-background="new 0 0 550 400"><g><path stroke="#fff" stroke-width="2" stroke-miterlimit="10" fill="none" d="M22.7 18.9v322.6h500.2"/><path fill="#fff" stroke="#fff" stroke-width="2" stroke-miterlimit="10" stroke-dasharray="2,2,2" d="M22.7 305.7h500.2M22.7 269.8h500.2M22.7 234h500.2M22.7 198.1h500.2M22.7 162.3h500.2M22.7 126.4h500.2M22.7 90.6h500.2M22.7 54.7h500.2M22.7 18.9h500.2"/><path fill="#fff" d="M16 12.1h13.5v13.5h-13.5zM16 48h13.5v13.5h-13.5zM16 83.8h13.5v13.5h-13.5zM16 119.7h13.5v13.5h-13.5zM16 155.6h13.5v13.5h-13.5zM16 191.4h13.5v13.5h-13.5zM16 227.3h13.5v13.5h-13.5zM16 263.1h13.5v13.5h-13.5zM16 299h13.5v13.5h-13.5zM16 334.8h13.5v13.5h-13.5z"/></g></svg>