<svg xmlns="http://www.w3.org/2000/svg" viewBox="0 0 171.3 142.5" enable-background="new 0 0 171.3 142.5"><linearGradient id="a" gradientUnits="userSpaceOnUse" x1="85.451" y1="114.023" x2="85.451" y2="137.889"><stop offset=".175" stop-color="#80A3AB"/><stop offset=".261" stop-color="#95BEC7"/><stop offset=".629" stop-color="#A5D3DD"/><stop offset="1" stop-color="#A5D3DD"/></linearGradient><path fill="url(#a)" d="M107.4 134.8c-1.9-1.6-3.2-4.9-4-20.7l-17.9-.1-17.9.2c-.8 15.9-2.1 19-4 20.6-1.9 1.6-5.7 3.2-5.3 3.2h54.4c.4-.1-3.5-1.6-5.3-3.2z"/><path fill="#A5D3DD" d="M58.8 140.9c-.8 0-1.4-1.9-1.4-2.8v-.2h56v.2c0 .9-.5 2.8-1.4 2.8h-53.2z"/><path fill="#fff" d="M112.7 137.9s-.3 2-.6 2h-53.2c-.3 0-.6-1-.6-2h54.3m.8-1h-56v1.2c0 1.3.3 2.8 1.4 2.8h53.2c1.1 0 1.4-1.5 1.4-2.8v-1.2z"/><path fill="#A5D3DD" d="M168.4 107.9h-166v-98.9c0-3.2 2.7-6 5.8-6h154.8c3.2 0 5.5 2.9 5.5 6v98.9zm-160.1 9c-3.6 0-6.8-2.4-6.8-5.8v-4.2h168v4.2c0 3.4-2.8 5.8-6.5 5.8h-154.7z"/><path fill="#fff" d="M168.4 107.9v3.2c0 3.2-2.3 5.8-5.5 5.8h-154.6c-3.2 0-5.8-2.6-5.8-5.8v-3.2h165.9m1-1h-168v4.2c0 3.6 3 6.8 6.8 6.8h154.8c3.8 0 6.5-3.2 6.5-6.8v-4.2h-.1z"/><path fill="#A5D3DD" stroke="#fff" stroke-miterlimit="10" d="M7.9 11.4h154v91h-154z"/><path fill="#fff" d="M163 2.9c3.2 0 5.5 2.9 5.5 6v102.2c0 3.2-2.3 5.8-5.5 5.8h-59.5c.8 13 2.1 16.5 3.9 18.1 1.9 1.6 5.7 2.9 5.3 2.9 0 1-.3 2-.6 2h-53.2c-.3 0-.6-1-.6-2-.4 0 3.4-1.3 5.3-3 1.8-1.6 3.1-5 3.9-18h-59.2c-3.2 0-5.8-2.6-5.8-5.8v-102.1c0-3.2 2.7-6 5.8-6h155.2m-.5-2.1h-154.7c-4.3 0-7.9 3.8-7.9 8.1v102.2c0 4.1 3.4 7.8 7.8 7.8h57c-.7 10-1.7 13.5-3 14.6-1 .9-3 1.7-4 2.3-.2.1-.4.1-.6.1h-1.4v2.3c.1 2.2 1.1 3.7 2.6 3.7h53.2c1.5 0 2.5-1.5 2.5-3.6 0-.2-.1-.3-.1-.4v-1.9h-1.2c-.2 0-.4-.1-.6-.2-1-.5-3-1.3-4-2.2-1.1-1-2.3-3.6-3-14.6h57.4c4.4 0 7.5-3.6 7.5-7.8v-102.3c-.1-4.3-3.2-8.1-7.5-8.1zm-6.6 110h5v2h-5z"/></svg>