<?xml version="1.0" encoding="utf-8"?>
<!-- Generator: Adobe Illustrator 17.1.0, SVG Export Plug-In . SVG Version: 6.00 Build 0)  -->
<!DOCTYPE svg PUBLIC "-//W3C//DTD SVG 1.1//EN" "http://www.w3.org/Graphics/SVG/1.1/DTD/svg11.dtd">
<svg version="1.1" xmlns="http://www.w3.org/2000/svg" xmlns:xlink="http://www.w3.org/1999/xlink" x="0px" y="0px"
	 viewBox="0 0 171.3 142.5" enable-background="new 0 0 171.3 142.5" xml:space="preserve">
<g id="computer" display="none">
	<g display="inline">
		<g>
			<linearGradient id="SVGID_1_" gradientUnits="userSpaceOnUse" x1="85.4507" y1="114.0232" x2="85.4507" y2="137.8886">
				<stop  offset="0.175" style="stop-color:#80A3AB"/>
				<stop  offset="0.2611" style="stop-color:#95BEC7"/>
				<stop  offset="0.629" style="stop-color:#A5D3DD"/>
				<stop  offset="1" style="stop-color:#A5D3DD"/>
			</linearGradient>
			<path fill="url(#SVGID_1_)" d="M107.4,134.8c-1.9-1.6-3.2-4.9-4-20.7L85.5,114l-17.9,0.2c-0.8,15.9-2.1,19-4,20.6
				c-1.9,1.6-5.7,3.2-5.3,3.2h1.7h25.6H111h1.7C113.1,137.9,109.2,136.4,107.4,134.8z"/>
			<g>
				<path fill="#A5D3DD" d="M58.8,140.9c-0.8,0-1.4-1.9-1.4-2.8v-0.2h56v0.2c0,0.9-0.5,2.8-1.4,2.8H58.8z"/>
				<path fill="#FFFFFF" d="M112.7,137.9c0,0-0.3,2-0.6,2c-0.3,0-26.6,0-26.6,0s-26.3,0-26.6,0c-0.3,0-0.6-1-0.6-2h27.3h27
					 M113.4,136.9h-0.7H85.5H58.2h-0.8v1.2c0,1.3,0.3,2.8,1.4,2.8h26.6h26.6c1.1,0,1.4-1.5,1.4-2.8V136.9L113.4,136.9z"/>
			</g>
		</g>
		<g>
			<path fill="#A5D3DD" d="M168.4,107.9H2.4V9c0-3.2,2.7-6,5.8-6H163c3.2,0,5.5,2.9,5.5,6V107.9z"/>
			<g>
				<path fill="#A5D3DD" d="M8.3,116.9c-3.6,0-6.8-2.4-6.8-5.8v-4.2h168v4.2c0,3.4-2.8,5.8-6.5,5.8H8.3z"/>
				<path fill="#FFFFFF" d="M168.4,107.9v3.2c0,3.2-2.3,5.8-5.5,5.8H8.3c-3.2,0-5.8-2.6-5.8-5.8v-3.2H168.4 M169.4,106.9h-0.6H2.4
					h-1v0.6v3.6c0,3.6,3,6.8,6.8,6.8H163c3.8,0,6.5-3.2,6.5-6.8v-3.6V106.9L169.4,106.9z"/>
			</g>
		</g>
		<rect x="7.9" y="11.4" fill="#A5D3DD" stroke="#FFFFFF" stroke-miterlimit="10" width="154" height="91"/>
	</g>
	<g display="inline">
		<path fill="#FFFFFF" d="M163,2.9c3.2,0,5.5,2.9,5.5,6v98.6v3.6c0,3.2-2.3,5.8-5.5,5.8h-59.5c0.8,13,2.1,16.5,3.9,18.1
			c1.9,1.6,5.7,2.9,5.3,2.9h0c0,1-0.3,2-0.6,2c-0.3,0-26.6,0-26.6,0s-26.3,0-26.6,0c-0.3,0-0.6-1-0.6-2h0c-0.4,0,3.4-1.3,5.3-3
			c1.8-1.6,3.1-5,3.9-18H8.3c-3.2,0-5.8-2.6-5.8-5.8v-3.6V9c0-3.2,2.7-6,5.8-6h155.2 M163,0.9H8.3C4,0.9,0.4,4.7,0.4,9v98.6v3.6
			c0,4.1,3.4,7.8,7.8,7.8h57c-0.7,10-1.7,13.5-3,14.6c-1,0.9-3,1.7-4,2.3c-0.2,0.1-0.4,0.1-0.6,0.1h-1.4l0,1.8c0,0.1,0,0.4,0,0.5
			c0.1,2.2,1.1,3.7,2.6,3.7h26.6h26.6c1.5,0,2.5-1.5,2.5-3.6c0-0.2-0.1-0.3-0.1-0.4v-1.9h-1.2c-0.2,0-0.4-0.1-0.6-0.2
			c-1-0.5-3-1.3-4-2.2c-1.1-1-2.3-3.6-3-14.6H163c4.4,0,7.5-3.6,7.5-7.8v-3.6V9C170.4,4.7,167.3,0.9,163,0.9L163,0.9z"/>
	</g>
	<rect x="156.4" y="110.9" display="inline" fill="#FFFFFF" width="5" height="2"/>
</g>
<g id="envelope">
	<g>
		<rect x="47.4" y="40.9" fill="#FFFFFF" stroke="#A5D3DD" stroke-width="2" stroke-miterlimit="10" width="77" height="50"/>
		<path fill="#FFFFFF" stroke="#A5D3DD" stroke-width="2" stroke-miterlimit="10" d="M124.4,86.9v4h-77v-4l31.4-17.9
			c2-1.1,10.5-1.1,12.5-0.1L124.4,86.9z"/>
		<path fill="#FFFFFF" stroke="#A5D3DD" stroke-width="2" stroke-miterlimit="10" d="M124.6,48.4v-7.4H47.3v7.4l33.6,24
			c2.6,1.6,5.7,1.6,8.4,0.1L124.6,48.4z"/>
	</g>
	<g>
		<g opacity="0.2">
			<circle cx="119.4" cy="49.9" r="15"/>
		</g>
		<g>
			<path fill="#A5D3DD" d="M117.4,61.9c-7.7,0-14-6.3-14-14s6.3-14,14-14s14,6.3,14,14S125.2,61.9,117.4,61.9z"/>
			<path fill="#FFFFFF" d="M117.4,34.9c7.2,0,13,5.8,13,13s-5.8,13-13,13s-13-5.8-13-13S110.3,34.9,117.4,34.9 M117.4,32.9
				c-8.3,0-15,6.7-15,15s6.7,15,15,15c8.3,0,15-6.7,15-15S125.7,32.9,117.4,32.9L117.4,32.9z"/>
		</g>
		<text transform="matrix(1 0 0 1 112.659 55.1573)" fill="#FFFFFF" font-family="'Arial-BoldMT'" font-size="18.1001">1</text>
	</g>
</g>
</svg>
