<svg xmlns="http://www.w3.org/2000/svg" viewBox="0 0 150 138" enable-background="new 0 0 150 138"><linearGradient id="a" gradientUnits="userSpaceOnUse" x1="25.732" y1="53.209" x2="106.261" y2="96.283"><stop offset="0" stop-color="#A5D3DD"/><stop offset="1" stop-color="#85ABB3"/></linearGradient><path fill="url(#a)" d="M24.6 133.2c-1.4 0-2.6-1-3-2.3l-16.5-73 .2-.2c2.3-2.8 22.7-22.1 37.5-36.1 8.4-8 15.1-14.3 16.1-15.4 1.6-1.7 3.4-2.5 5.5-2.5 1.1 0 2.4.3 3.8.8.7.3 2.8 1 5.7 2 27.8 9.9 60 21.7 62.2 25.3l.1.1v.1c.9 6.3 8.5 61.4 8.4 63.1-.1 1.6-.4 3.2-2.2 3.7l-117 34.3c-.3.1-.6.1-.8.1z"/><path fill="#fff" d="M64.4 4.2c1.2 0 2.4.3 3.6.8 4.8 1.8 64.8 22.5 67.7 27.1 0 0 8.5 61.3 8.4 63s-.4 2.9-1.8 3.2l-117.1 34.3c-.2.1-.4.1-.7.1-1.2 0-2.2-.8-2.5-2l-16.4-72.7c3.7-4.3 50.7-48.4 53.7-51.5 1.6-1.7 3.3-2.3 5.1-2.3m0-1c-2.2 0-4.1.9-5.8 2.7-1 1.1-7.7 7.4-16.1 15.3-14.9 14.1-35.3 33.4-37.6 36.2l-.3.4.1.5 16.4 72.7c.4 1.6 1.9 2.8 3.5 2.8.3 0 .6 0 .9-.1l116.9-34.3c2.3-.6 2.5-3 2.5-4.1.1-1.7-7-53-8.4-63.2v-.2l-.1-.2c-1.8-3-20.5-10.6-62.5-25.5-2.9-1-4.9-1.7-5.6-2-1.5-.8-2.8-1-3.9-1z"/><linearGradient id="b" gradientUnits="userSpaceOnUse" x1="60.438" y1="9.932" x2="79.028" y2="72.518"><stop offset="0" stop-color="#fff" stop-opacity=".5"/><stop offset="1" stop-color="#fff" stop-opacity=".2"/></linearGradient><path opacity=".3" fill="url(#b)" d="M136.2 33.3c-2.8-4.7-62.8-25.3-67.6-27.1-2.9-1.1-5.9-1.3-8.7 1.6-2.9 3-50 47.2-53.6 51.5l6.8 2.5 48.8-46.5c2.4-2.2 4.6-2.3 6.6-1.8 2.1.5 65.7 23 65.7 23l2-3.2z"/><path opacity=".05" stroke="#fff" stroke-miterlimit="10" d="M6.5 60.5l128.6-29" fill="none"/><path fill="#fff" d="M64.4 4.2c1.2 0 2.4.3 3.6.8 4.8 1.8 64.8 22.5 67.7 27.1 0 0 8.5 61.3 8.4 63s-.4 2.9-1.8 3.2l-117.1 34.3c-.2.1-.4.1-.7.1-1.2 0-2.2-.8-2.5-2l-16.4-72.7c3.7-4.3 50.7-48.4 53.7-51.5 1.6-1.7 3.3-2.3 5.1-2.3m0-2c-2.4 0-4.6 1-6.5 3-1 1.1-8 7.7-16.1 15.3-19.3 18.2-35.5 33.6-37.7 36.2l-.6.8.2 1 16.4 72.7c.5 2 2.4 3.5 4.5 3.5.4 0 .8-.1 1.2-.2l117-34.3c3-.8 3.2-3.9 3.3-5 .1-1.7-5.8-44.9-8.4-63.4l-.1-.4-.2-.4c-1.7-2.8-13-8.2-63-26-2.9-1-4.9-1.7-5.6-2-1.7-.5-3.1-.8-4.4-.8z"/></svg>