<svg xmlns="http://www.w3.org/2000/svg" viewBox="0 0 210.7 134.3" enable-background="new 0 0 210.7 134.3"><path fill="#A5D3DD" stroke="#fff" stroke-width="2" stroke-miterlimit="10" d="M182.2 78c.4-3 .7-4.1.7-6.3 0-16.2-13.2-29.4-29.4-29.4-.4 0-.8 0-1.2.1-4.2-11.2-14.9-19.2-27.6-19.2-3.5 0-6.9.6-10 1.8-6.8-14.2-21.2-24-37.9-24-22.5 0-40.8 17.7-41.9 40-19.6 5.7-33.9 23.7-33.9 45.1 0 26 21.1 47.2 47.1 47.2 2 0 4-.3 5.9-.3h123.6c1.5 0 3 .3 4.6.3 15.2 0 27.6-12.4 27.6-27.6-.1-15.3-12.4-27.7-27.6-27.7z"/></svg>