<?xml version="1.0" encoding="utf-8"?>
<!-- Generator: Adobe Illustrator 17.1.0, SVG Export Plug-In . SVG Version: 6.00 Build 0)  -->
<!DOCTYPE svg PUBLIC "-//W3C//DTD SVG 1.1//EN" "http://www.w3.org/Graphics/SVG/1.1/DTD/svg11.dtd">
<svg version="1.1" xmlns="http://www.w3.org/2000/svg" xmlns:xlink="http://www.w3.org/1999/xlink" x="0px" y="0px"
	 viewBox="0 0 150 138" enable-background="new 0 0 150 138" xml:space="preserve">
<g id="bg" display="none">
	<rect x="-0.5" y="0.5" display="inline" stroke="#FFFFFF" stroke-miterlimit="10" width="155" height="138"/>
</g>
<g id="back" display="none">
	<g display="inline">
		<g>
			<linearGradient id="SVGID_1_" gradientUnits="userSpaceOnUse" x1="25.7323" y1="53.2094" x2="106.2613" y2="96.2831">
				<stop  offset="0" style="stop-color:#A5D3DD"/>
				<stop  offset="1" style="stop-color:#85ABB3"/>
			</linearGradient>
			<path fill="url(#SVGID_1_)" d="M24.6,133.2c-1.4,0-2.6-1-3-2.3l-16.5-73l0.2-0.2c2.3-2.8,22.7-22.1,37.5-36.1
				c8.4-8,15.1-14.3,16.1-15.4c1.6-1.7,3.4-2.5,5.5-2.5c1.1,0,2.4,0.3,3.8,0.8c0.7,0.3,2.8,1,5.7,2c27.8,9.9,60,21.7,62.2,25.3
				l0.1,0.1l0,0.1c0.9,6.3,8.5,61.4,8.4,63.1c-0.1,1.6-0.4,3.2-2.2,3.7L25.4,133.1C25.1,133.2,24.8,133.2,24.6,133.2z"/>
			<path fill="#FFFFFF" d="M64.4,4.2c1.2,0,2.4,0.3,3.6,0.8c4.8,1.8,64.8,22.5,67.7,27.1c0,0,8.5,61.3,8.4,63s-0.4,2.9-1.8,3.2
				L25.2,132.6c-0.2,0.1-0.4,0.1-0.7,0.1c-1.2,0-2.2-0.8-2.5-2L5.6,58C9.3,53.7,56.3,9.6,59.3,6.5C60.9,4.8,62.6,4.2,64.4,4.2
				 M64.4,3.2L64.4,3.2c-2.2,0-4.1,0.9-5.8,2.7c-1,1.1-7.7,7.4-16.1,15.3C27.6,35.3,7.2,54.6,4.9,57.4l-0.3,0.4l0.1,0.5l16.4,72.7
				c0.4,1.6,1.9,2.8,3.5,2.8c0.3,0,0.6,0,0.9-0.1l116.9-34.3c2.3-0.6,2.5-3,2.5-4.1c0.1-1.7-7-53-8.4-63.2l0-0.2l-0.1-0.2
				c-1.8-3-20.5-10.6-62.5-25.5c-2.9-1-4.9-1.7-5.6-2C66.8,3.4,65.5,3.2,64.4,3.2L64.4,3.2z"/>
		</g>
		<linearGradient id="SVGID_2_" gradientUnits="userSpaceOnUse" x1="60.438" y1="9.9319" x2="79.028" y2="72.5182">
			<stop  offset="0" style="stop-color:#FFFFFF;stop-opacity:0.5"/>
			<stop  offset="1" style="stop-color:#FFFFFF;stop-opacity:0.2"/>
		</linearGradient>
		<path opacity="0.3" fill="url(#SVGID_2_)" d="M136.2,33.3C133.4,28.6,73.4,8,68.6,6.2c-2.9-1.1-5.9-1.3-8.7,1.6
			c-2.9,3-50,47.2-53.6,51.5l6.8,2.5l48.8-46.5c2.4-2.2,4.6-2.3,6.6-1.8c2.1,0.5,65.7,23,65.7,23L136.2,33.3z"/>
		<line opacity="5.000000e-02" fill="none" stroke="#FFFFFF" stroke-miterlimit="10" x1="6.5" y1="60.5" x2="135.1" y2="31.5"/>
		<g>
			<path fill="#FFFFFF" d="M64.4,4.2c1.2,0,2.4,0.3,3.6,0.8c4.8,1.8,64.8,22.5,67.7,27.1c0,0,8.5,61.3,8.4,63s-0.4,2.9-1.8,3.2
				L25.2,132.6c-0.2,0.1-0.4,0.1-0.7,0.1c-1.2,0-2.2-0.8-2.5-2L5.6,58C9.3,53.7,56.3,9.6,59.3,6.5C60.9,4.8,62.6,4.2,64.4,4.2
				 M64.4,2.2L64.4,2.2c-2.4,0-4.6,1-6.5,3c-1,1.1-8,7.7-16.1,15.3C22.5,38.7,6.3,54.1,4.1,56.7l-0.6,0.8l0.2,1l16.4,72.7l0,0l0,0
				c0.5,2,2.4,3.5,4.5,3.5c0.4,0,0.8-0.1,1.2-0.2l117-34.3c3-0.8,3.2-3.9,3.3-5c0.1-1.7-5.8-44.9-8.4-63.4l-0.1-0.4l-0.2-0.4
				c-1.7-2.8-13-8.2-63-26c-2.9-1-4.9-1.7-5.6-2C67.1,2.5,65.7,2.2,64.4,2.2L64.4,2.2z"/>
		</g>
	</g>
</g>
<g id="front" display="none">
	<g display="inline">
		<polygon fill="#A5D3DD" stroke="#FFFFFF" stroke-miterlimit="10" points="67,86.1 7.6,55.9 5.6,58 22,130.7 		"/>
		<linearGradient id="SVGID_3_" gradientUnits="userSpaceOnUse" x1="7.1567" y1="70.4365" x2="64.757" y2="70.4365">
			<stop  offset="0" style="stop-color:#FFFFFF;stop-opacity:0.5"/>
			<stop  offset="1" style="stop-color:#FFFFFF;stop-opacity:0.2"/>
		</linearGradient>
		<polygon fill="url(#SVGID_3_)" points="7.2,56.4 7.6,55.9 64.8,85 64.8,85 		"/>
	</g>
	<g display="inline">
		<path fill="#A5D3DD" stroke="#FFFFFF" stroke-miterlimit="10" d="M144,95.1c0.1-1.7-8.4-63-8.4-63l-0.5-0.5l-2.2-1.4L97.3,79.8
			L144,95.1z"/>
		<linearGradient id="SVGID_4_" gradientUnits="userSpaceOnUse" x1="133.733" y1="30.2644" x2="100.8565" y2="74.9268">
			<stop  offset="0" style="stop-color:#FFFFFF;stop-opacity:0.5"/>
			<stop  offset="1" style="stop-color:#FFFFFF;stop-opacity:0.2"/>
		</linearGradient>
		<polygon fill="url(#SVGID_4_)" points="132.9,30.1 133.6,30.5 101.9,74.7 101.2,74.3 		"/>
	</g>
	<g display="inline">
		<path fill="#A5D3DD" stroke="#FFFFFF" stroke-miterlimit="10" d="M143.4,90.4c0,0,0.6,3,0.5,4.7c-0.1,1.7-0.4,2.9-1.8,3.2
			L25.2,132.6c-1.4,0.4-2.8-0.5-3.2-1.9l-0.9-3.9l58.5-61.5L143.4,90.4z"/>
		<linearGradient id="SVGID_5_" gradientUnits="userSpaceOnUse" x1="21.1535" y1="96.0407" x2="143.5174" y2="96.0407">
			<stop  offset="0" style="stop-color:#FFFFFF;stop-opacity:0.5"/>
			<stop  offset="1" style="stop-color:#FFFFFF;stop-opacity:0.2"/>
		</linearGradient>
		<polygon fill="url(#SVGID_5_)" points="21.2,126.8 21.2,126.8 79.6,65.9 143.5,90.8 143.4,90.2 79.7,65.3 		"/>
	</g>
	<path display="inline" fill="#FFFFFF" d="M92.3,100.5c0.4,0.4,0.8,0.6,1.4,0.7c0.6,0.1,1.2,0,2-0.3c2.5-0.8,4.3-2.7,5.6-5.7
		c1.5-3.3,1.7-6.6,0.6-9.9c-0.8-2.3-2-4.2-3.8-5.8c-2-1.8-4.4-3-7-3.4c-2.6-0.4-5.3-0.1-8.2,0.8c-3.6,1.2-6.5,3-8.5,5.5
		c-2,2.5-3.2,5.5-3.6,9c-0.3,2.9,0,5.7,0.9,8.5c0.8,2.5,2.1,4.6,3.7,6.5c1.3,1.4,2.9,2.6,4.9,3.4c1.9,0.8,4.1,1.2,6.4,1.1
		c2.3-0.1,4.8-0.5,7.3-1.3c2.7-0.9,5-2,6.7-3.4c1.7-1.4,3.1-2.9,4-4.6c1-1.7,1.6-3.2,1.8-4.6l-3.1,1c-0.5,1.8-1.6,3.5-3.3,5.1
		c-1.7,1.7-4,3-7,4c-2.8,0.9-5.5,1.3-8.1,1.1c-2.6-0.2-4.8-1.1-6.7-2.7c-1.9-1.6-3.3-3.8-4.2-6.6c-0.9-2.6-1.1-5.3-0.7-8
		c0.4-2.7,1.6-5.1,3.3-7c1.8-2,4-3.4,6.7-4.3c2.3-0.8,4.6-1,6.9-0.6c2.3,0.3,4.1,1.2,5.6,2.5c1.5,1.3,2.6,2.9,3.2,4.8
		c0.5,1.6,0.7,3.3,0.4,5.1c-0.2,1.8-0.9,3.3-1.9,4.7c-0.7,1-1.4,1.6-2,1.8c-0.3,0.1-0.6,0.1-1-0.1c-0.3-0.1-0.5-0.4-0.6-0.7
		c-0.1-0.2-0.2-1.1-0.4-2.8l-1.3-12.2l-3,1l0.3,2.8c-1-0.8-2-1.4-3.1-1.6c-1.1-0.2-2.1-0.2-3.1,0.2c-1.3,0.4-2.5,1.3-3.5,2.7
		c-1.1,1.4-1.8,3.1-2.1,5.2c-0.3,2.1-0.2,4.1,0.4,5.9c0.5,1.5,1.2,2.7,2.2,3.7c1,1,2.1,1.7,3.2,1.9c1.1,0.3,2.2,0.2,3.2-0.1
		c0.9-0.3,1.8-0.9,2.5-1.7c0.7-0.8,1.3-1.8,1.8-2.9C91.7,99.8,92,100.2,92.3,100.5L92.3,100.5z M81.2,93.8c0-1.3,0.1-2.4,0.5-3.4
		c0.3-1,0.8-1.8,1.3-2.4c0.5-0.6,1.1-1,1.9-1.2c1.1-0.4,2.2-0.2,3.2,0.3c1,0.6,1.8,1.7,2.3,3.2c0.4,1.2,0.6,2.4,0.5,3.7
		c0,1.3-0.2,2.4-0.6,3.4c-0.4,1-0.9,1.7-1.5,2.4c-0.6,0.6-1.2,1-1.8,1.2c-1,0.3-1.9,0.2-3-0.5c-1-0.6-1.8-1.7-2.3-3.2
		C81.4,96.3,81.2,95.1,81.2,93.8z"/>
</g>
<g id="envelope_-_closed">
	<g>
		<g>
			<line opacity="5.000000e-02" fill="none" stroke="#FFFFFF" stroke-miterlimit="10" x1="6.5" y1="60.8" x2="135.1" y2="31.8"/>
			<g>
				<path fill="#FFFFFF" d="M132.6,31.8c1.7,0,2.7,0.2,2.9,0.6c0,0,8.5,61.3,8.4,63s-0.4,2.9-1.8,3.2L25.2,132.9
					c-0.2,0.1-0.4,0.1-0.7,0.1c-1.2,0-2.2-0.8-2.5-2L5.6,58.3C9,54.3,113.5,31.8,132.6,31.8 M132.6,29.8L132.6,29.8
					c-10.4,0-44.1,6.4-69.8,11.8c-14.8,3.1-28.6,6.3-39.1,8.9c-18,4.5-19,5.7-19.6,6.5l-0.6,0.8l0.2,1l16.4,72.7l0,0l0,0
					c0.5,2,2.4,3.5,4.5,3.5c0.4,0,0.8-0.1,1.2-0.2l117-34.3c3-0.8,3.2-3.9,3.3-5c0.1-1.7-5.8-44.9-8.4-63.4l-0.1-0.4l-0.2-0.4
					C136.5,30,135,29.8,132.6,29.8L132.6,29.8z"/>
			</g>
		</g>
		<g>
			<polygon fill="#A5D3DD" stroke="#FFFFFF" stroke-miterlimit="10" points="70.6,82.4 8.1,57 5.6,57.8 22,130.5 			"/>
		</g>
		<g>
			<path fill="#A5D3DD" stroke="#FFFFFF" stroke-miterlimit="10" d="M144,94.9c0.1-1.7-8.4-63-8.4-63l-0.5-0.5l-1.7,1.7L97.3,79.5
				L144,94.9z"/>
		</g>
		<g>
			<path fill="#A5D3DD" stroke="#FFFFFF" stroke-miterlimit="10" d="M143.4,90.1c0,0,0.6,3,0.5,4.7c-0.1,1.7-0.4,2.9-1.8,3.2
				L25.2,132.4c-1.4,0.4-2.8-0.5-3.2-1.9l-0.9-3.9L79.7,65L143.4,90.1z"/>
			<linearGradient id="SVGID_6_" gradientUnits="userSpaceOnUse" x1="21.1485" y1="95.8008" x2="143.5123" y2="95.8008">
				<stop  offset="0" style="stop-color:#FFFFFF;stop-opacity:0.5"/>
				<stop  offset="1" style="stop-color:#FFFFFF;stop-opacity:0.2"/>
			</linearGradient>
			<polygon fill="url(#SVGID_6_)" points="21.1,126.6 21.1,126.6 79.6,65.7 143.5,90.6 143.4,90 79.7,65 			"/>
		</g>
		<path fill="#FFFFFF" d="M92.2,100.2c0.4,0.4,0.8,0.6,1.4,0.7c0.6,0.1,1.2,0,2-0.3c2.5-0.8,4.3-2.7,5.6-5.7
			c1.5-3.3,1.7-6.6,0.6-9.9c-0.8-2.3-2-4.2-3.8-5.8c-2-1.8-4.4-3-7-3.4c-2.6-0.4-5.3-0.1-8.2,0.8c-3.6,1.2-6.5,3-8.5,5.5
			c-2,2.5-3.2,5.5-3.6,9c-0.3,2.9,0,5.7,0.9,8.5c0.8,2.5,2.1,4.6,3.7,6.5c1.3,1.4,2.9,2.6,4.9,3.4c1.9,0.8,4.1,1.2,6.4,1.1
			c2.3-0.1,4.8-0.5,7.3-1.3c2.7-0.9,5-2,6.7-3.4c1.7-1.4,3.1-2.9,4-4.6c1-1.7,1.6-3.2,1.8-4.6l-3.1,1c-0.5,1.8-1.6,3.5-3.3,5.1
			c-1.7,1.7-4,3-7,4c-2.8,0.9-5.5,1.3-8.1,1.1c-2.6-0.2-4.8-1.1-6.7-2.7c-1.9-1.6-3.3-3.8-4.2-6.6c-0.9-2.6-1.1-5.3-0.7-8
			c0.4-2.7,1.6-5,3.3-7c1.8-2,4-3.4,6.7-4.3c2.3-0.8,4.6-1,6.9-0.6c2.3,0.3,4.1,1.2,5.6,2.5c1.5,1.3,2.6,2.9,3.2,4.8
			c0.5,1.6,0.7,3.3,0.4,5.1c-0.2,1.8-0.9,3.3-1.9,4.7c-0.7,1-1.4,1.6-2,1.8c-0.3,0.1-0.6,0.1-1-0.1c-0.3-0.1-0.5-0.4-0.6-0.7
			c-0.1-0.2-0.2-1.1-0.4-2.8l-1.3-12.2l-3,1l0.3,2.8c-1-0.8-2-1.4-3.1-1.6c-1.1-0.2-2.1-0.2-3.1,0.2c-1.3,0.4-2.5,1.3-3.5,2.7
			c-1.1,1.4-1.8,3.1-2.1,5.2c-0.3,2.1-0.2,4.1,0.4,5.9c0.5,1.5,1.2,2.7,2.2,3.7c1,1,2.1,1.7,3.2,1.9c1.1,0.3,2.2,0.2,3.2-0.1
			c0.9-0.3,1.8-0.9,2.5-1.7c0.7-0.8,1.3-1.8,1.8-2.9C91.7,99.5,92,100,92.2,100.2L92.2,100.2z M81.2,93.6c0-1.3,0.1-2.4,0.5-3.4
			c0.3-1,0.8-1.8,1.3-2.4c0.5-0.6,1.1-1,1.9-1.2c1.1-0.4,2.2-0.2,3.2,0.3c1,0.6,1.8,1.7,2.3,3.2c0.4,1.2,0.6,2.4,0.5,3.7
			c0,1.3-0.2,2.4-0.6,3.4c-0.4,1-0.9,1.7-1.5,2.4c-0.6,0.6-1.2,1-1.8,1.2c-1,0.3-1.9,0.2-3-0.5c-1-0.6-1.8-1.7-2.3-3.2
			C81.4,96,81.2,94.9,81.2,93.6z"/>
		<path opacity="0.2" d="M136.4,33.4c-0.3-0.5,1.9-2.2-1.3-2.1C110.4,32.4,8.8,54.5,5.6,58.3l83.8,39.6L136.4,33.4z"/>
		<path fill="#A5D3DD" stroke="#FFFFFF" stroke-miterlimit="10" d="M135.6,32.3C132.8,27.6,9.3,54,5.6,58.3l81.8,36.6L135.6,32.3z"
			/>
	</g>
</g>
</svg>
