<svg xmlns="http://www.w3.org/2000/svg" viewBox="0 0 150 138" enable-background="new 0 0 150 138"><path fill="#A5D3DD" stroke="#fff" stroke-miterlimit="10" d="M67 86.1l-59.4-30.2-2 2.1 16.4 72.7z"/><linearGradient id="a" gradientUnits="userSpaceOnUse" x1="7.157" y1="70.436" x2="64.757" y2="70.436"><stop offset="0" stop-color="#fff" stop-opacity=".5"/><stop offset="1" stop-color="#fff" stop-opacity=".2"/></linearGradient><path fill="url(#a)" d="M7.2 56.4l.4-.5 57.2 29.1z"/><path fill="#A5D3DD" stroke="#fff" stroke-miterlimit="10" d="M144 95.1c.1-1.7-8.4-63-8.4-63l-.5-.5-2.2-1.4-35.6 49.6 46.7 15.3z"/><linearGradient id="b" gradientUnits="userSpaceOnUse" x1="133.733" y1="30.264" x2="100.856" y2="74.927"><stop offset="0" stop-color="#fff" stop-opacity=".5"/><stop offset="1" stop-color="#fff" stop-opacity=".2"/></linearGradient><path fill="url(#b)" d="M132.9 30.1l.7.4-31.7 44.2-.7-.4z"/><path fill="#A5D3DD" stroke="#fff" stroke-miterlimit="10" d="M143.4 90.4s.6 3 .5 4.7c-.1 1.7-.4 2.9-1.8 3.2l-116.9 34.3c-1.4.4-2.8-.5-3.2-1.9l-.9-3.9 58.5-61.5 63.8 25.1z"/><linearGradient id="c" gradientUnits="userSpaceOnUse" x1="21.154" y1="96.041" x2="143.517" y2="96.041"><stop offset="0" stop-color="#fff" stop-opacity=".5"/><stop offset="1" stop-color="#fff" stop-opacity=".2"/></linearGradient><path fill="url(#c)" d="M21.2 126.8l58.4-60.9 63.9 24.9-.1-.6-63.7-24.9z"/><path fill="#fff" d="M92.3 100.5c.4.4.8.6 1.4.7.6.1 1.2 0 2-.3 2.5-.8 4.3-2.7 5.6-5.7 1.5-3.3 1.7-6.6.6-9.9-.8-2.3-2-4.2-3.8-5.8-2-1.8-4.4-3-7-3.4-2.6-.4-5.3-.1-8.2.8-3.6 1.2-6.5 3-8.5 5.5s-3.2 5.5-3.6 9c-.3 2.9 0 5.7.9 8.5.8 2.5 2.1 4.6 3.7 6.5 1.3 1.4 2.9 2.6 4.9 3.4 1.9.8 4.1 1.2 6.4 1.1 2.3-.1 4.8-.5 7.3-1.3 2.7-.9 5-2 6.7-3.4 1.7-1.4 3.1-2.9 4-4.6 1-1.7 1.6-3.2 1.8-4.6l-3.1 1c-.5 1.8-1.6 3.5-3.3 5.1-1.7 1.7-4 3-7 4-2.8.9-5.5 1.3-8.1 1.1-2.6-.2-4.8-1.1-6.7-2.7-1.9-1.6-3.3-3.8-4.2-6.6-.9-2.6-1.1-5.3-.7-8 .4-2.7 1.6-5.1 3.3-7 1.8-2 4-3.4 6.7-4.3 2.3-.8 4.6-1 6.9-.6 2.3.3 4.1 1.2 5.6 2.5s2.6 2.9 3.2 4.8c.5 1.6.7 3.3.4 5.1-.2 1.8-.9 3.3-1.9 4.7-.7 1-1.4 1.6-2 1.8-.3.1-.6.1-1-.1-.3-.1-.5-.4-.6-.7-.1-.2-.2-1.1-.4-2.8l-1.3-12.2-3 1 .3 2.8c-1-.8-2-1.4-3.1-1.6-1.1-.2-2.1-.2-3.1.2-1.3.4-2.5 1.3-3.5 2.7-1.1 1.4-1.8 3.1-2.1 5.2-.3 2.1-.2 4.1.4 5.9.5 1.5 1.2 2.7 2.2 3.7 1 1 2.1 1.7 3.2 1.9 1.1.3 2.2.2 3.2-.1.9-.3 1.8-.9 2.5-1.7.7-.8 1.3-1.8 1.8-2.9.6.6.9 1 1.2 1.3zm-11.1-6.7c0-1.3.1-2.4.5-3.4.3-1 .8-1.8 1.3-2.4.5-.6 1.1-1 1.9-1.2 1.1-.4 2.2-.2 3.2.3 1 .6 1.8 1.7 2.3 3.2.4 1.2.6 2.4.5 3.7 0 1.3-.2 2.4-.6 3.4-.4 1-.9 1.7-1.5 2.4-.6.6-1.2 1-1.8 1.2-1 .3-1.9.2-3-.5-1-.6-1.8-1.7-2.3-3.2-.3-1-.5-2.2-.5-3.5z"/></svg>