<svg xmlns="http://www.w3.org/2000/svg" xmlns:xlink="http://www.w3.org/1999/xlink" viewBox="0 0 323.7 228.3" enable-background="new 0 0 323.7 228.3"><path opacity=".3" fill="#fff" d="M21.9 108c22-38.4 79.8-71.5 137.6-66.6 61.5 5.1 97.7 38.6 106.2 116.7l-104.7 28.7c15.4-86.8-60.5-92.8-106.4-33.8"/><path opacity=".3" stroke="#fff" stroke-width="2" stroke-miterlimit="10" d="M21.9 108c22-38.4 79.8-71.5 137.6-66.6 61.5 5.1 97.7 38.6 106.2 116.7l-104.7 28.7c15.4-86.8-60.5-92.8-106.4-33.8" fill="none"/><g fill="#A5D3DD" stroke="#fff" stroke-miterlimit="10"><path d="M52.5 114.8c3.8 3.9 8.8 6.2 14.8 6.3v-17.2c-1 0-2-.4-2.8-1.2l-12 12.1zM89.1 99.8c0-5-2.4-11.2-6.3-15.1l-12.3 12.2c.7.7 1.2 2.8 1.2 2.8h17.4zM67.3 81.3c-6 0-9.6 2.1-13 5.4l10.2 10.2c.7-.7 1.8-1.2 2.8-1.2v-14.4zM86.2 99.8h-14.9c0 1.1-.3 2.1-1 2.9l10.3 10.2c3.4-3.4 5.6-8.1 5.6-13.1zM62.3 99.8h-13.2c0 5 2.1 9.8 5.4 13.2l9.6-10.2c-.7-.9-1.8-1.9-1.8-3zM67.3 84.7c-5 0-7.8 1.7-10.5 4.5l7.7 7.8c.7-.7 1.8-1.2 2.8-1.2v-11.1zM82.9 99.8c0-4-1.7-8-4.5-10.7l-7.9 7.9c.7.7 1.2 2.8 1.2 2.8h11.2zM70.3 102.6c-.7.7-3 1.2-3 1.2v11.1h.3c4.1 0 7.9-1.7 10.7-4.4l-8-7.9zM64.7 96.9l-7.7-7.8c-2.7 2.7-4.4 6.6-4.4 10.6h10.9c0 .1.5-2.1 1.2-2.8zM70.4 96.9l6.2-6.1c-2.3-2.2-5.5-3.6-8.9-3.6h-.3v8.4c-.1.1 2.2.6 3 1.3zM80.3 99.8h-9c0 1.1-.3 2.1-1 2.9l6.2 6c2.3-2.3 3.8-4.9 3.8-8.9zM64.7 96.9l-5.8-5.9c-2.2 2.3-3.6 5.8-3.6 8.8h8.3c-.1 0 .4-2.2 1.1-2.9zM58.8 108.5c2.3 2.3 4.5 3.7 8.5 3.7v-8.4c-1 0-2-.4-2.8-1.2l-5.7 5.9zM67.3 90.7c-3 0-4.6 1.1-6.2 2.7l3.4 3.5c.7-.7 1.8-1.2 2.8-1.2v-5zM76.8 99.8h-5.5c0 1.1-.3 2.1-1 2.9l3.7 3.6c1.7-1.7 2.8-3.5 2.8-6.5zM70.3 102.6c-.7.7-3 1.2-3 1.2v5h.3c2.5 0 4.7-1 6.4-2.6l-3.7-3.6z"/></g><path stroke="#fff" stroke-width=".53" stroke-miterlimit="10" stroke-dasharray="0.5302,0.5302,0.5302" fill="none" d="M43.9 87.9l3.3 8h9.8"/><circle fill="#A5D3DD" stroke="#fff" stroke-miterlimit="10" cx="43.9" cy="86.9" r="3.6"/><text transform="translate(42.119 89.479)" fill="#fff" font-family="'OpenSans-Bold'" font-size="6.346">1</text><path stroke="#fff" stroke-width=".53" stroke-miterlimit="10" stroke-dasharray="0.5302,0.5302,0.5302" fill="none" d="M43.9 113.5l3.3-8h9.8"/><circle fill="#A5D3DD" stroke="#fff" stroke-miterlimit="10" cx="43.9" cy="114.5" r="3.6"/><text transform="translate(42.119 116.722)" fill="#fff" font-family="'OpenSans-Bold'" font-size="6.346">2</text><path stroke="#fff" stroke-width=".53" stroke-miterlimit="10" stroke-dasharray="0.5302,0.5302,0.5302" fill="none" d="M91.3 87.9l-3.2 8h-9.8"/><circle fill="#A5D3DD" stroke="#fff" stroke-miterlimit="10" cx="91.3" cy="86.9" r="3.6"/><text transform="translate(89.53 89.479)" fill="#fff" font-family="'OpenSans-Bold'" font-size="6.346">3</text><path stroke="#fff" stroke-width=".53" stroke-miterlimit="10" stroke-dasharray="0.5302,0.5302,0.5302" fill="none" d="M91.3 113.5l-3.2-8h-14"/><circle fill="#A5D3DD" stroke="#fff" stroke-miterlimit="10" cx="91.3" cy="114.5" r="3.6"/><text transform="translate(89.53 116.722)" fill="#fff" font-family="'OpenSans-Bold'" font-size="6.346">4</text><defs><path id="a" d="M104.888 57.516l43.657 5.474-5.026 40.085-43.657-5.474z"/></defs><clipPath id="b"><use xlink:href="#a" overflow="visible"/></clipPath><path clip-path="url(#b)" fill="#A5D3DD" d="M104.888 57.516l43.657 5.474-5.026 40.085-43.657-5.474z"/><path clip-path="url(#b)" stroke="#fff" stroke-miterlimit="10" stroke-dasharray="2,2,2" fill="none" d="M100.5 91.9l43.7 5.5M101.6 83.1l43.7 5.5M102.8 74.3l43.6 5.5M103.9 65.5l43.6 5.5"/><path clip-path="url(#b)" stroke="#fff" stroke-width="3" stroke-miterlimit="10" fill="none" d="M101.8 81.9l10.3-6.4 4.6 6.9 7.5-2.1 8.8 3.3 4.3-4.9 9.9-5"/><path clip-path="url(#b)" stroke="#fff" stroke-width="5" stroke-miterlimit="10" fill="none" d="M99.8 97.6l10.7-12.1 5.4 4.3 9-15.1h9.1l4.9-8.8 6.3-3.3"/><path fill="#fff" stroke="#fff" stroke-width=".5" stroke-miterlimit="10" stroke-dasharray="2,2,2" d="M177.6 151.8h88.2M177.6 145.5h88.2M177.6 139.1h88.2M177.6 132.8h88.2M177.6 126.5h88.2M177.6 120.2h88.2M177.6 113.8h88.2M177.6 107.5h88.2M177.6 101.2h88.2"/><path fill="#fff" stroke="#fff" stroke-width="2" stroke-miterlimit="10" d="M176.4 100h2.4v2.4h-2.4zM176.4 106.3h2.4v2.4h-2.4zM176.4 112.7h2.4v2.4h-2.4zM176.4 119h2.4v2.4h-2.4zM176.4 125.3h2.4v2.4h-2.4zM176.4 131.6h2.4v2.4h-2.4zM176.4 137.9h2.4v2.4h-2.4zM176.4 144.3h2.4v2.4h-2.4zM176.4 150.6h2.4v2.4h-2.4zM176.4 156.9h2.4v2.4h-2.4z"/><path fill="#A5D3DD" d="M191.2 138.6h9.2v19.5h-9.2zM202.6 123.9h9.2v34.2h-9.2zM213.9 114.1h9.2v44h-9.2zM225.3 104.4h9.2v53.7h-9.2zM236.7 119h9.2v39.1h-9.2zM248.1 133.7h9.2v24.4h-9.2z"/><path stroke="#fff" stroke-width="2" stroke-miterlimit="10" fill="none" d="M191.2 151.8h9.1M191.2 145.5h9.1M202.6 151.8h9.1M202.6 145.5h9.1M202.6 139.3h9.1M202.6 126.5h9.1M202.6 132.8h9.1M213.9 151.8h9.2M213.9 145.5h9.2M213.9 139.3h9.2M213.9 126.5h9.2M213.9 120.2h9.2M213.9 132.8h9.2M225.3 151.8h9.2M225.3 145.5h9.2M225.3 139.3h9.2M225.3 126.5h9.2M225.3 120.2h9.2M225.3 113.8h9.2M225.3 107.5h9.2M225.3 132.8h9.2M236.7 151.8h9.2M236.7 145.5h9.2M236.7 139.3h9.2M248.1 151.8h9.1M248.1 145.5h9.1M248.1 139.3h9.1M236.7 126.5h9.2M236.7 120.2h9.2M236.7 132.8h9.2M177.6 101.2v56.9h88.2"/><g fill="#A4D1DB"><circle cx="160.5" cy="88.9" r="1.2"/><path d="M155.9 94.8l-.8-.5 3.2-4.2.8.5zM161.2 96.3h1l-.5-5.2-1-.1zM158.856 89.685l3.175.898-1.797 6.351-3.175-.898zM157.008 95.958l1.54.436-1.334 4.715-1.54-.436zM158.593 96.463l1.54.436-1.334 4.715-1.54-.436z"/></g><g fill="#fff"><circle cx="168.2" cy="91.1" r="1.2"/><path d="M163.7 97l-.9-.5 3.2-4.2.8.5zM169 98.5h.9l-.5-5.2-.9-.1zM166.64 91.96l3.175.898-1.797 6.351-3.175-.898zM164.87 98.268l.77.218-1.334 4.715-.77-.218zM166.5 98.669l1.54.436-1.334 4.715-1.54-.436z"/></g><g fill="#fff"><circle cx="175.9" cy="93.3" r="1.2"/><path d="M171.4 99.2l-.8-.5 3.1-4.2.9.4zM176.7 100.6l.9.1-.5-5.3h-.9zM173.741 93.962l3.175.898-1.797 6.351-3.175-.898zM171.989 100.263l1.54.436-1.334 4.715-1.54-.436zM173.601 100.671l1.54.436-1.334 4.715-1.54-.436z"/></g><g fill="#fff"><circle cx="183.7" cy="95.5" r="1.2"/><path d="M179.1 101.3l-.8-.4 3.2-4.2.8.4zM184.4 102.8l1 .1-.5-5.3h-1zM181.648 96.169l3.175.898-1.797 6.351-3.175-.898zM179.879 102.476l.77.218-1.334 4.715-.77-.218zM181.481 102.973l1.54.436-1.334 4.715-1.54-.436z"/></g><g fill="#fff"><circle cx="191.4" cy="97.6" r="1.2"/><path d="M186.9 103.5l-.9-.4 3.2-4.2.8.4zM192.2 105l.9.1-.5-5.3h-.9zM189.555 98.375l3.175.898-1.797 6.351-3.175-.898zM187.786 104.682l.77.218-1.334 4.715-.77-.218zM189.292 105.152l1.54.436-1.334 4.715-1.54-.436z"/></g><g fill="#fff"><circle cx="199.1" cy="99.8" r="1.2"/><path d="M194.6 105.7l-.8-.4 3.1-4.2.9.4zM199.9 107.2l.9.1-.5-5.3h-.9zM197.435 100.677l3.175.898-1.797 6.351-3.175-.898zM195.666 106.984l.77.218-1.334 4.715-.77-.218zM197.199 107.358l1.54.436-1.334 4.715-1.54-.436z"/></g><g fill="#A4D1DB"><circle cx="206.9" cy="102" r="1.2"/><path d="M202.3 107.9l-.8-.5 3.2-4.2.8.5zM207.6 109.4h1l-.5-5.2h-1zM205.324 102.89l2.405.68-1.797 6.351-2.405-.68zM203.476 109.163l.77.218-1.334 4.715-.77-.218zM205.088 109.572l.77.218-1.334 4.715-.77-.218z"/></g><g fill="#A4D1DB"><circle cx="164.3" cy="75.3" r="1.2"/><path d="M159.8 81.2l-.8-.5 3.1-4.2.9.5zM165.1 82.7h.9l-.5-5.2-.9-.1zM162.349 77.049l3.175.898-1.552 5.485-3.175-.898zM160.774 82.64l1.54.436-1.116 3.945-1.54-.436zM162.386 83.048l1.54.436-1.116 3.945-1.54-.436z"/></g><g fill="#A4D1DB"><circle cx="172" cy="77.5" r="1.2"/><path d="M167.5 83.4l-.8-.5 3.2-4.2.8.5zM172.8 84.9h.9l-.5-5.2-.9-.1zM170.229 79.351l3.175.898-1.552 5.485-3.175-.898zM168.663 84.853l.77.218-1.116 3.945-.77-.218zM170.293 85.254l1.54.436-1.116 3.945-1.54-.436z"/></g><g fill="#fff"><circle cx="179.8" cy="79.7" r="1.2"/><path d="M175.2 85.6l-.8-.5 3.2-4.2.8.4zM180.5 87.1h1l-.5-5.2-1-.1zM177.33 81.353l3.175.898-1.552 5.485-3.175-.898zM175.783 86.848l1.54.436-1.116 3.945-1.54-.436zM177.394 87.256l1.54.436-1.116 3.945-1.54-.436z"/></g><g fill="#fff"><circle cx="187.5" cy="81.9" r="1.2"/><path d="M183 87.7l-.8-.4 3.1-4.2.8.4zM188.3 89.2l.9.1-.5-5.3h-.9zM185.237 83.56l3.175.898-1.552 5.485-3.175-.898zM183.672 89.061l.77.218-1.116 3.945-.77-.218zM185.274 89.559l1.54.436-1.116 3.945-1.54-.436z"/></g><g fill="#fff"><circle cx="195.2" cy="84" r="1.2"/><path d="M190.7 89.9l-.8-.4 3.2-4.2.8.4zM196 91.4l.9.1-.5-5.3h-.9zM193.144 85.766l3.175.898-1.552 5.485-3.175-.898zM191.579 91.267l.77.218-1.116 3.945-.77-.218zM193.085 91.737l1.54.436-1.116 3.945-1.54-.436z"/></g><g fill="#A4D1DB"><circle cx="203" cy="86.2" r="1.2"/><path d="M198.4 92.1l-.8-.4 3.2-4.2.8.4zM203.7 93.6l1 .1-.5-5.3h-1zM200.928 88.041l3.175.898-1.552 5.485-3.175-.898zM199.459 93.569l.77.218-1.116 3.945-.77-.218zM200.992 93.944l1.54.436-1.116 3.945-1.54-.436z"/></g><g fill="#A4D1DB"><circle cx="210.7" cy="88.4" r="1.2"/><path d="M206.2 94.3l-.9-.5 3.2-4.2.8.5zM211.5 95.8h.9l-.5-5.2h-.9zM208.817 90.254l2.405.68-1.552 5.485-2.405-.68zM207.269 95.748l.77.218-1.116 3.945-.77-.218zM208.881 96.157l.77.218-1.116 3.945-.77-.218z"/></g><g fill="#A4D1DB"><circle cx="168.2" cy="61.7" r="1.2"/><path d="M163.6 67.6l-.8-.5 3.2-4.2.8.5zM168.9 69.1h1l-.5-5.2-1-.1zM166.115 63.73l3.175.898-1.334 4.715-3.175-.898zM164.785 68.455l1.54.436-1.334 4.715-1.54-.436zM166.397 68.863l1.54.436-1.334 4.715-1.54-.436z"/></g><g fill="#A4D1DB"><circle cx="175.9" cy="63.9" r="1.2"/><path d="M171.4 69.8l-.9-.5 3.2-4.2.8.5zM176.7 71.3h.9l-.5-5.2-.9-.1zM174.022 65.937l3.175.898-1.334 4.715-3.175-.898zM172.674 70.668l.77.218-1.334 4.715-.77-.218zM174.304 71.07l1.54.436-1.334 4.715-1.54-.436z"/></g><g fill="#A4D1DB"><circle cx="183.6" cy="66.1" r="1.2"/><path d="M179.1 72l-.8-.5 3.1-4.2.9.5zM184.4 73.5h.9l-.5-5.2-.9-.1zM181.123 67.939l3.175.898-1.334 4.715-3.175-.898zM179.794 72.663l1.54.436-1.334 4.715-1.54-.436zM181.405 73.072l1.54.436-1.334 4.715-1.54-.436z"/></g><g fill="#fff"><circle cx="191.3" cy="68.3" r="1.2"/><path d="M186.8 74.1l-.8-.4 3.2-4.2.8.4zM192.1 75.6l1 .1-.5-5.3h-1zM189.03 70.145l3.175.898-1.334 4.715-3.175-.898zM187.683 74.876l.77.218-1.334 4.715-.77-.218zM189.285 75.374l1.54.436-1.334 4.715-1.54-.436z"/></g><g fill="#A4D1DB"><circle cx="199.1" cy="70.4" r="1.2"/><path d="M194.6 76.3l-.9-.4 3.2-4.2.8.4zM199.9 77.8l.9.1-.5-5.3h-.9zM196.937 72.351l3.175.898-1.334 4.715-3.175-.898zM195.59 77.083l.77.218-1.334 4.715-.77-.218zM197.096 77.553l1.54.436-1.334 4.715-1.54-.436z"/></g><g fill="#A4D1DB"><circle cx="206.8" cy="72.6" r="1.2"/><path d="M202.3 78.5l-.8-.4 3.1-4.2.9.4zM207.6 80l.9.1-.5-5.3h-.9zM204.721 74.626l3.175.898-1.334 4.715-3.175-.898zM203.47 79.385l.77.218-1.334 4.715-.77-.218zM205.003 79.759l1.54.436-1.334 4.715-1.54-.436z"/></g><g fill="#A4D1DB"><circle cx="214.5" cy="74.8" r="1.2"/><path d="M210 80.7l-.8-.5 3.2-4.2.8.5zM215.3 82.2h1l-.5-5.2h-1zM212.61 76.839l2.405.68-1.334 4.715-2.405-.68zM211.28 81.564l.77.218-1.334 4.715-.77-.218zM212.892 81.972l.77.218-1.334 4.715-.77-.218z"/></g><path stroke="#fff" stroke-width=".574" stroke-miterlimit="10" fill="none" d="M157.2 101.8l17 14.6-.5 1.6M164.8 104l10.5 12.7-.5 1.6M172.5 106.2l3.9 10.8-.4 1.6M180.1 108.3l-2.5 9-.5 1.7M203 114.8l-22.1 3.5-.5 1.6M195.3 112.6l-15.5 5.4-.5 1.6M187.7 110.5l-9.1 7.2-.4 1.6"/><circle fill="#A5D3DD" stroke="#fff" stroke-width="2" stroke-miterlimit="10" cx="177.1" cy="119" r="4.5"/></svg>