<svg xmlns="http://www.w3.org/2000/svg" viewBox="0 0 67.8 72.2" enable-background="new 0 0 67.8 72.2"><g fill="#A4D1DB"><circle cx="4.5" cy="36" r="1.5"/><path d="M1.1 44.4l-1.1-.3 2.3-6 1.2.3zm6.7 0l1.2-.3-2.4-6-1.1.3zm-5-6.9h4v8h-4zm0 8h2v6h-2zm2 0h2v6h-2z"/></g><g fill="#fff"><circle cx="14.3" cy="36" r="1.5"/><path d="M10.9 44.4l-1.1-.3 2.3-6 1.2.3zm6.8 0l1.1-.3-2.4-6-1.1.3zm-4.9-6.9h4v8h-4zm0 8h1v6h-1zm2 0h2v6h-2z"/></g><g fill="#fff"><circle cx="24.1" cy="36" r="1.5"/><path d="M20.7 44.4l-1.1-.3 2.4-6 1.1.3zm6.8 0l1.1-.3-2.3-6-1.2.3zm-5.7-6.9h4v8h-4zm0 8h2v6h-2zm2 0h2v6h-2z"/></g><g fill="#fff"><circle cx="33.9" cy="36" r="1.5"/><path d="M30.6 44.4l-1.2-.3 2.4-6 1.1.3zm6.7 0l1.1-.3-2.3-6-1.2.3zm-5.5-6.9h4v8h-4zm0 8h1v6h-1zm2 0h2v6h-2z"/></g><g fill="#fff"><circle cx="43.7" cy="36" r="1.5"/><path d="M40.4 44.4l-1.2-.3 2.4-6 1.1.3zm6.7 0l1.1-.3-2.3-6-1.1.3zm-5.3-6.9h4v8h-4zm0 8h1v6h-1zm2 0h2v6h-2z"/></g><g fill="#fff"><circle cx="53.5" cy="36" r="1.5"/><path d="M50.2 44.4l-1.1-.3 2.3-6 1.1.3zm6.7 0l1.1-.3-2.3-6-1.1.3zm-5.1-6.9h4v8h-4zm0 8h1v6h-1zm2 0h2v6h-2z"/></g><g fill="#A4D1DB"><circle cx="63.4" cy="36" r="1.5"/><path d="M60 44.4l-1.1-.3 2.3-6 1.1.3zm6.7 0l1.1-.3-2.3-6-1.1.3zm-4.9-6.9h3v8h-3zm0 8h1v6h-1zm2 0h1v6h-1z"/></g><g fill="#A4D1DB"><circle cx="4.5" cy="18.7" r="1.5"/><path d="M1.1 27.1l-1.1-.2 2.3-6 1.2.2zm6.7 0l1.2-.2-2.4-6-1.1.2zm-5-5.6h4v7h-4zm0 7h2v5h-2zm2 0h2v5h-2z"/></g><g fill="#A4D1DB"><circle cx="14.3" cy="18.7" r="1.5"/><path d="M10.9 27.1l-1.1-.2 2.3-6 1.2.2zm6.8 0l1.1-.2-2.4-6-1.1.2zm-4.9-5.6h4v7h-4zm0 7h1v5h-1zm2 0h2v5h-2z"/></g><g fill="#fff"><circle cx="24.1" cy="18.7" r="1.5"/><path d="M20.7 27.1l-1.1-.2 2.4-6 1.1.2zm6.8 0l1.1-.2-2.3-6-1.2.2zm-5.7-5.6h4v7h-4zm0 7h2v5h-2zm2 0h2v5h-2z"/></g><g fill="#fff"><circle cx="33.9" cy="18.7" r="1.5"/><path d="M30.6 27.1l-1.2-.2 2.4-6 1.1.2zm6.7 0l1.1-.2-2.3-6-1.2.2zm-5.5-5.6h4v7h-4zm0 7h1v5h-1zm2 0h2v5h-2z"/></g><g fill="#fff"><circle cx="43.7" cy="18.7" r="1.5"/><path d="M40.4 27.1l-1.2-.2 2.4-6 1.1.2zm6.7 0l1.1-.2-2.3-6-1.1.2zm-5.3-5.6h4v7h-4zm0 7h1v5h-1zm2 0h2v5h-2z"/></g><g fill="#A4D1DB"><circle cx="53.5" cy="18.7" r="1.5"/><path d="M50.2 27.1l-1.1-.2 2.3-6 1.1.2zm6.7 0l1.1-.2-2.3-6-1.1.2zm-5.1-5.6h4v7h-4zm0 7h1v5h-1zm2 0h2v5h-2z"/></g><g fill="#A4D1DB"><circle cx="63.4" cy="18.7" r="1.5"/><path d="M60 27.1l-1.1-.2 2.3-6 1.1.2zm6.7 0l1.1-.2-2.3-6-1.1.2zm-4.9-5.6h3v7h-3zm0 7h1v5h-1zm2 0h1v5h-1z"/></g><g fill="#A4D1DB"><circle cx="4.5" cy="1.5" r="1.5"/><path d="M1.1 9.9l-1.1-.3 2.3-6 1.2.3zm6.7 0l1.2-.3-2.4-6-1.1.3zm-5-5.4h4v6h-4zm0 6h2v6h-2zm2 0h2v6h-2z"/></g><g fill="#A4D1DB"><circle cx="14.3" cy="1.5" r="1.5"/><path d="M10.9 9.9l-1.1-.3 2.3-6 1.2.3zm6.8 0l1.1-.3-2.4-6-1.1.3zm-4.9-5.4h4v6h-4zm0 6h1v6h-1zm2 0h2v6h-2z"/></g><g fill="#A4D1DB"><circle cx="24.1" cy="1.5" r="1.5"/><path d="M20.7 9.9l-1.1-.3 2.4-6 1.1.3zm6.8 0l1.1-.3-2.3-6-1.2.3zm-5.7-5.4h4v6h-4zm0 6h2v6h-2zm2 0h2v6h-2z"/></g><g fill="#fff"><circle cx="33.9" cy="1.5" r="1.5"/><path d="M30.6 9.9l-1.2-.3 2.4-6 1.1.3zm6.7 0l1.1-.3-2.3-6-1.2.3zm-5.5-5.4h4v6h-4zm0 6h1v6h-1zm2 0h2v6h-2z"/></g><g fill="#A4D1DB"><circle cx="43.7" cy="1.5" r="1.5"/><path d="M40.4 9.9l-1.2-.3 2.4-6 1.1.3zm6.7 0l1.1-.3-2.3-6-1.1.3zm-5.3-5.4h4v6h-4zm0 6h1v6h-1zm2 0h2v6h-2z"/></g><g fill="#A4D1DB"><circle cx="53.5" cy="1.5" r="1.5"/><path d="M50.2 9.9l-1.1-.3 2.3-6 1.1.3zm6.7 0l1.1-.3-2.3-6-1.1.3zm-5.1-5.4h4v6h-4zm0 6h1v6h-1zm2 0h2v6h-2z"/></g><g fill="#A4D1DB"><circle cx="63.4" cy="1.5" r="1.5"/><path d="M60 9.9l-1.1-.3 2.3-6 1.1.3zm6.7 0l1.1-.3-2.3-6-1.1.3zm-4.9-5.4h3v6h-3zm0 6h1v6h-1zm2 0h1v6h-1z"/></g><path stroke="#fff" stroke-width=".574" stroke-miterlimit="10" d="M4.9 52.3l24.8 11.4v2.1m-15-13.5l16.5 11.4v2.1m-6.9-13.5l8.3 11.4v2.1m1.4-13.5v13.5m29.1-13.5l-24.8 11.4v2.1m15-13.5l-16.5 11.4v2.1m6.8-13.5l-8.2 11.4v2.1" fill="none"/><circle fill="#A5D3DD" stroke="#fff" stroke-width="2" stroke-miterlimit="10" cx="34" cy="65.8" r="5.5"/></svg>