<svg xmlns="http://www.w3.org/2000/svg" viewBox="0 0 90.4 61.3" enable-background="new 0 0 90.4 61.3"><path fill="#fff" stroke="#fff" stroke-width=".5" stroke-miterlimit="10" stroke-dasharray="2,2,2" d="M2.2 52.8h88.2m-88.2-6.4h88.2m-88.2-6.3h88.2m-88.2-6.3h88.2m-88.2-6.3h88.2m-88.2-6.3h88.2m-88.2-6.4h88.2m-88.2-6.3h88.2m-88.2-6.3h88.2"/><path fill="#fff" stroke="#fff" stroke-width="2" stroke-miterlimit="10" d="M1 1h2.4v2.4h-2.4zm0 6.3h2.4v2.4h-2.4zm0 6.3h2.4v2.4h-2.4zm0 6.4h2.4v2.4h-2.4zm0 6.3h2.4v2.4h-2.4zm0 6.3h2.4v2.4h-2.4zm0 6.3h2.4v2.4h-2.4zm0 6.4h2.4v2.4h-2.4zm0 6.3h2.4v2.4h-2.4zm0 6.3h2.4v2.4h-2.4z"/><path fill="#A5D3DD" d="M15.8 39.5h9.2v19.5h-9.2zm11.4-14.6h9.2v34.2h-9.2zm11.3-9.8h9.2v44h-9.2zm11.4-9.8h9.2v53.7h-9.2zm11.4 14.7h9.2v39.1h-9.2zm11.4 14.7h9.2v24.4h-9.2z"/><path stroke="#fff" stroke-width="2" stroke-miterlimit="10" d="M15.8 52.8h9.1m-9.1-6.4h9.1m2.3 6.4h9.1m-9.1-6.4h9.1m-9.1-6.1h9.1m-9.1-12.8h9.1m-9.1 6.3h9.1m2.2 19h9.2m-9.2-6.4h9.2m-9.2-6.1h9.2m-9.2-12.8h9.2m-9.2-6.3h9.2m-9.2 12.6h9.2m2.2 19h9.2m-9.2-6.4h9.2m-9.2-6.1h9.2m-9.2-12.8h9.2m-9.2-6.3h9.2m-9.2-6.4h9.2m-9.2-6.3h9.2m-9.2 25.3h9.2m2.2 19h9.2m-9.2-6.4h9.2m-9.2-6.1h9.2m2.2 12.5h9.2m-9.2-6.4h9.2m-9.2-6.1h9.2m-20.6-12.8h9.2m-9.2-6.3h9.2m-9.2 12.6h9.2m-68.3-31.6v56.9h88.2" fill="none"/></svg>