<svg xmlns="http://www.w3.org/2000/svg" xmlns:xlink="http://www.w3.org/1999/xlink" viewBox="0 0 323.7 228.3" enable-background="new 0 0 323.7 228.3"><path opacity=".3" fill="#fff" d="M.8 97.3c30.9-44.2 83.5-101.6 189-95.9 94.1 5 124.2 100.9 132.8 179l-104.8 28.7c15.4-86.8-68-166.1-140.9-90.2"/><path opacity=".5" stroke="#fff" stroke-width="2" stroke-miterlimit="10" d="M.8 97.3c30.9-44.2 83.5-101.6 189-95.9 94.1 5 124.2 100.9 132.8 179 0 0-98.6 26.4-104.8 28.7 15.4-86.8-68-166.1-140.9-90.2" fill="none"/><g fill="#A5D3DD" stroke="#fff" stroke-miterlimit="10"><path d="M51.1 88.9c5.5 5.5 12.3 8.9 21.3 9v-24.7c-2 0-3-.6-4-1.6l-17.3 17.3zM103.1 67.8c0-8-3.4-16.2-9-21.7l-17.5 17.5c1 1 1.6 3.1 1.7 4.1h24.8zM72.3 41c-8 0-13.9 3-18.6 7.7l14.6 14.6c1-1 2.1-1.7 4.1-1.7v-20.6zM98.9 67.8h-21.6v-.3c0 1.6-.2 3-1.2 4.1l14.8 14.7c4.8-4.8 8-11.5 8-18.5zM65.3 67.4v.3h-19.3c0 7 2.9 13.8 7.7 18.6l14-14.7c-1.1-1-2.4-2.5-2.4-4.2zM72.3 45.9c-7 0-11.3 2.5-15.1 6.4l11.1 11.1c1-1 2.1-1.7 4.1-1.7v-15.8zM94.3 67.8c0-6-2.5-11.6-6.4-15.5l-11.3 11.3c1 1 1.6 3.1 1.7 4.1h16zM76.5 71.5c-1 1.1-4.2 1.7-4.2 1.7v15.8h.2c5.9 0 11.3-2.4 15.2-6.2l-11.2-11.3zM68.3 63.5l-11-11c-3.9 3.9-6.3 9.3-6.3 15.3h15.6c0-1 .7-3.3 1.7-4.3zM76.5 63.4l8.7-8.7c-3.2-3.2-7.7-5.1-12.6-5.1h-.3v12c0 .1 3.2.7 4.2 1.8zM90.6 67.8h-13.3v-.3c0 1.6-.2 3-1.2 4.1l8.9 8.8c3.3-3.3 5.6-7.6 5.6-12.6zM68.3 63.5l-8.3-8.3c-3.2 3.2-5.1 7.6-5.1 12.6h11.8c-.1-1 .6-3.3 1.6-4.3zM60 79.9c3.2 3.3 6.3 5.3 12.3 5.4v-12c-2 0-3-.6-4-1.6l-8.3 8.2zM72.3 54.6c-5 0-6.7 1.5-9 3.9l4.9 4.9c1-1 2.1-1.7 4.1-1.7v-7.1zM85.6 67.8h-8.2v-.3c0 1.6-.2 3-1.2 4.1l5.4 5.3c2.2-2.4 4-6.1 4-9.1zM76.5 71.5c-1 1.1-4.2 1.7-4.2 1.7v7.1h.2c3.5 0 6.7-1.4 9.1-3.7l-5.1-5.1z"/></g><path stroke="#fff" stroke-width=".53" stroke-miterlimit="10" stroke-dasharray="0.5302,0.5302,0.5302" fill="none" d="M38.6 50.6l4.7 11.4h13.9"/><circle fill="#A5D3DD" stroke="#fff" stroke-miterlimit="10" cx="38.6" cy="49.1" r="5.1"/><text transform="translate(36.041 52.753)" fill="#fff" font-family="'OpenSans-Bold'" font-size="9.056">1</text><path stroke="#fff" stroke-width=".53" stroke-miterlimit="10" stroke-dasharray="0.5302,0.5302,0.5302" fill="none" d="M38.6 87l4.7-11.4h13.9"/><circle fill="#A5D3DD" stroke="#fff" stroke-miterlimit="10" cx="38.6" cy="88.5" r="5.1"/><text transform="translate(36.041 91.629)" fill="#fff" font-family="'OpenSans-Bold'" font-size="9.056">2</text><path stroke="#fff" stroke-width=".53" stroke-miterlimit="10" stroke-dasharray="0.5302,0.5302,0.5302" fill="none" d="M106.3 50.6l-4.7 11.4h-13.9"/><circle fill="#A5D3DD" stroke="#fff" stroke-miterlimit="10" cx="106.3" cy="49.1" r="5.1"/><text transform="translate(103.699 52.753)" fill="#fff" font-family="'OpenSans-Bold'" font-size="9.056">3</text><path stroke="#fff" stroke-width=".53" stroke-miterlimit="10" stroke-dasharray="0.5302,0.5302,0.5302" fill="none" d="M106.3 87l-4.7-11.4h-19.9"/><circle fill="#A5D3DD" stroke="#fff" stroke-miterlimit="10" cx="106.3" cy="88.5" r="5.1"/><text transform="translate(103.699 91.629)" fill="#fff" font-family="'OpenSans-Bold'" font-size="9.056">4</text><defs><path id="a" d="M133.5 18.1h56.4v51.7h-56.4z"/></defs><clipPath id="b"><use xlink:href="#a" overflow="visible"/></clipPath><path clip-path="url(#b)" fill="#A5D3DD" d="M133.5 18.1h56.4v51.7h-56.4z"/><path clip-path="url(#b)" stroke="#fff" stroke-miterlimit="10" stroke-dasharray="2,2,2" fill="none" d="M133.5 62.5h56.4M133.5 51.1h56.4M133.5 39.8h56.4M133.5 28.4h56.4"/><path clip-path="url(#b)" stroke="#fff" stroke-width="3" stroke-miterlimit="10" fill="none" d="M133.5 49.5l12-9.7 7 8 9.2-3.8 11.7 2.7 4.8-6.9 11.7-7.9"/><path clip-path="url(#b)" stroke="#fff" stroke-width="5" stroke-miterlimit="10" fill="none" d="M133.5 69.8l11.7-17 7.5 4.6 9-20.7 11.6-1.5 4.9-12 7.5-5.1"/><path fill="#fff" stroke="#fff" stroke-width=".5" stroke-miterlimit="10" stroke-dasharray="2,2,2" d="M234.4 174h88.2M234.4 167.7h88.2M234.4 161.4h88.2M234.4 155.1h88.2M234.4 148.7h88.2M234.4 142.4h88.2M234.4 136.1h88.2M234.4 129.8h88.2M234.4 123.5h88.2"/><path fill="#fff" stroke="#fff" stroke-width="2" stroke-miterlimit="10" d="M233.2 122.3h2.4v2.4h-2.4zM233.2 128.6h2.4v2.4h-2.4zM233.2 134.9h2.4v2.4h-2.4zM233.2 141.2h2.4v2.4h-2.4zM233.2 147.6h2.4v2.4h-2.4zM233.2 153.9h2.4v2.4h-2.4zM233.2 160.2h2.4v2.4h-2.4zM233.2 166.5h2.4v2.4h-2.4zM233.2 172.9h2.4v2.4h-2.4zM233.2 179.2h2.4v2.4h-2.4z"/><path fill="#A5D3DD" d="M248 160.8h9.2v19.5h-9.2zM259.4 146.2h9.2v34.2h-9.2zM270.8 136.4h9.2v44h-9.2zM282.1 126.6h9.2v53.7h-9.2zM293.5 141.3h9.2v39.1h-9.2zM304.9 155.9h9.2v24.4h-9.2z"/><path stroke="#fff" stroke-width="2" stroke-miterlimit="10" fill="none" d="M248 174h9.2M248 167.7h9.2M259.4 174h9.1M259.4 167.7h9.1M259.4 161.5h9.1M259.4 148.7h9.1M259.4 155.1h9.1M270.8 174h9.1M270.8 167.7h9.1M270.8 161.5h9.1M270.8 148.7h9.1M270.8 142.4h9.1M270.8 155.1h9.1M282.1 174h9.2M282.1 167.7h9.2M282.1 161.5h9.2M282.1 148.7h9.2M282.1 142.4h9.2M282.1 136.1h9.2M282.1 129.8h9.2M282.1 155.1h9.2M293.5 174h9.2M293.5 167.7h9.2M293.5 161.5h9.2M304.9 174h9.2M304.9 167.7h9.2M304.9 161.5h9.2M293.5 148.7h9.2M293.5 142.4h9.2M293.5 155.1h9.2M234.4 123.5v56.9h88.2"/><g fill="#A4D1DB"><circle cx="210.5" cy="94.8" r="1.5"/><path d="M207.1 103.2l-1.1-.3 2.3-6 1.2.3zM213.9 103.2l1.1-.3-2.4-6-1.1.3zM208.8 96.3h4v8h-4zM208.8 104.3h2v6h-2zM210.8 104.3h2v6h-2z"/></g><g fill="#fff"><circle cx="220.3" cy="94.8" r="1.5"/><path d="M216.9 103.2l-1.1-.3 2.4-6 1.1.3zM223.7 103.2l1.1-.3-2.3-6-1.2.3zM218.8 96.3h4v8h-4zM218.8 104.3h1v6h-1zM220.8 104.3h2v6h-2z"/></g><g fill="#fff"><circle cx="230.1" cy="94.8" r="1.5"/><path d="M226.8 103.2l-1.2-.3 2.4-6 1.1.3zM233.5 103.2l1.1-.3-2.3-6-1.2.3zM227.8 96.3h4v8h-4zM227.8 104.3h2v6h-2zM229.8 104.3h2v6h-2z"/></g><g fill="#fff"><circle cx="239.9" cy="94.8" r="1.5"/><path d="M236.6 103.2l-1.2-.3 2.4-6 1.1.3zM243.3 103.2l1.1-.3-2.3-6-1.1.3zM237.8 96.3h4v8h-4zM237.8 104.3h1v6h-1zM239.8 104.3h2v6h-2z"/></g><g fill="#fff"><circle cx="249.7" cy="94.8" r="1.5"/><path d="M246.4 103.2l-1.1-.3 2.3-6 1.1.3zM253.1 103.2l1.1-.3-2.3-6-1.1.3zM247.8 96.3h4v8h-4zM247.8 104.3h1v6h-1zM249.8 104.3h2v6h-2z"/></g><g fill="#fff"><circle cx="259.5" cy="94.8" r="1.5"/><path d="M256.2 103.2l-1.1-.3 2.3-6 1.1.3zM262.9 103.2l1.1-.3-2.3-6-1.1.3zM257.8 96.3h4v8h-4zM257.8 104.3h1v6h-1zM259.8 104.3h2v6h-2z"/></g><g fill="#A4D1DB"><circle cx="269.4" cy="94.8" r="1.5"/><path d="M266 103.2l-1.1-.3 2.3-6 1.1.3zM272.7 103.2l1.1-.3-2.3-6-1.1.3zM267.8 96.3h3v8h-3zM267.8 104.3h1v6h-1zM269.8 104.3h1v6h-1z"/></g><g fill="#A4D1DB"><circle cx="210.5" cy="77.5" r="1.5"/><path d="M207.1 85.9l-1.1-.2 2.3-6 1.2.2zM213.9 85.9l1.1-.2-2.4-6-1.1.2zM208.8 80.3h4v7h-4zM208.8 87.3h2v5h-2zM210.8 87.3h2v5h-2z"/></g><g fill="#A4D1DB"><circle cx="220.3" cy="77.5" r="1.5"/><path d="M216.9 85.9l-1.1-.2 2.4-6 1.1.2zM223.7 85.9l1.1-.2-2.3-6-1.2.2zM218.8 80.3h4v7h-4zM218.8 87.3h1v5h-1zM220.8 87.3h2v5h-2z"/></g><g fill="#fff"><circle cx="230.1" cy="77.5" r="1.5"/><path d="M226.8 85.9l-1.2-.2 2.4-6 1.1.2zM233.5 85.9l1.1-.2-2.3-6-1.2.2zM227.8 80.3h4v7h-4zM227.8 87.3h2v5h-2zM229.8 87.3h2v5h-2z"/></g><g fill="#fff"><circle cx="239.9" cy="77.5" r="1.5"/><path d="M236.6 85.9l-1.2-.2 2.4-6 1.1.2zM243.3 85.9l1.1-.2-2.3-6-1.1.2zM237.8 80.3h4v7h-4zM237.8 87.3h1v5h-1zM239.8 87.3h2v5h-2z"/></g><g fill="#fff"><circle cx="249.7" cy="77.5" r="1.5"/><path d="M246.4 85.9l-1.1-.2 2.3-6 1.1.2zM253.1 85.9l1.1-.2-2.3-6-1.1.2zM247.8 80.3h4v7h-4zM247.8 87.3h1v5h-1zM249.8 87.3h2v5h-2z"/></g><g fill="#A4D1DB"><circle cx="259.5" cy="77.5" r="1.5"/><path d="M256.2 85.9l-1.1-.2 2.3-6 1.1.2zM262.9 85.9l1.1-.2-2.3-6-1.1.2zM257.8 80.3h4v7h-4zM257.8 87.3h1v5h-1zM259.8 87.3h2v5h-2z"/></g><g fill="#A4D1DB"><circle cx="269.4" cy="77.5" r="1.5"/><path d="M266 85.9l-1.1-.2 2.3-6 1.1.2zM272.7 85.9l1.1-.2-2.3-6-1.1.2zM267.8 80.3h3v7h-3zM267.8 87.3h1v5h-1zM269.8 87.3h1v5h-1z"/></g><g fill="#A4D1DB"><circle cx="210.5" cy="60.2" r="1.5"/><path d="M207.1 68.7l-1.1-.3 2.3-6 1.2.3zM213.9 68.7l1.1-.3-2.4-6-1.1.3zM208.8 63.3h4v6h-4zM208.8 69.3h2v6h-2zM210.8 69.3h2v6h-2z"/></g><g fill="#A4D1DB"><circle cx="220.3" cy="60.2" r="1.5"/><path d="M216.9 68.7l-1.1-.3 2.4-6 1.1.3zM223.7 68.7l1.1-.3-2.3-6-1.2.3zM218.8 63.3h4v6h-4zM218.8 69.3h1v6h-1zM220.8 69.3h2v6h-2z"/></g><g fill="#A4D1DB"><circle cx="230.1" cy="60.2" r="1.5"/><path d="M226.8 68.7l-1.2-.3 2.4-6 1.1.3zM233.5 68.7l1.1-.3-2.3-6-1.2.3zM227.8 63.3h4v6h-4zM227.8 69.3h2v6h-2zM229.8 69.3h2v6h-2z"/></g><g fill="#fff"><circle cx="239.9" cy="60.2" r="1.5"/><path d="M236.6 68.7l-1.2-.3 2.4-6 1.1.3zM243.3 68.7l1.1-.3-2.3-6-1.1.3zM237.8 63.3h4v6h-4zM237.8 69.3h1v6h-1zM239.8 69.3h2v6h-2z"/></g><g fill="#A4D1DB"><circle cx="249.7" cy="60.2" r="1.5"/><path d="M246.4 68.7l-1.1-.3 2.3-6 1.1.3zM253.1 68.7l1.1-.3-2.3-6-1.1.3zM247.8 63.3h4v6h-4zM247.8 69.3h1v6h-1zM249.8 69.3h2v6h-2z"/></g><g fill="#A4D1DB"><circle cx="259.5" cy="60.2" r="1.5"/><path d="M256.2 68.7l-1.1-.3 2.3-6 1.1.3zM262.9 68.7l1.1-.3-2.3-6-1.1.3zM257.8 63.3h4v6h-4zM257.8 69.3h1v6h-1zM259.8 69.3h2v6h-2z"/></g><g fill="#A4D1DB"><circle cx="269.4" cy="60.2" r="1.5"/><path d="M266 68.7l-1.1-.3 2.3-6 1.1.3zM272.7 68.7l1.1-.3-2.3-6-1.1.3zM267.8 63.3h3v6h-3zM267.8 69.3h1v6h-1zM269.8 69.3h1v6h-1z"/></g><path stroke="#fff" stroke-width=".574" stroke-miterlimit="10" fill="none" d="M210.9 111l24.8 11.5v2M220.7 111l16.5 11.5v2M230.3 111l8.3 11.5v2M240 111v13.5M269.1 111l-24.8 11.5v2M259.3 111l-16.5 11.5v2M249.6 111l-8.2 11.5v2"/><circle fill="#A5D3DD" stroke="#fff" stroke-width="2" stroke-miterlimit="10" cx="240" cy="124.5" r="5.5"/></svg>