<svg xmlns="http://www.w3.org/2000/svg" viewBox="0 0 99 104.2" enable-background="new 0 0 99 104.2"><g><path opacity=".3" fill="#fff" d="M52.7 2.5v21.9c-12.3-2.5-32.4.1-51.5 5.7l.1.3c9.6 3.8 17 7.2 17.9 8.8 0 0 0 .2.1.7.2.2.4.4.5.6l-.4.5c1 7.2 4.7 34.1 6.7 49.8 9.6-4 20.3-7.9 32-11.6l3.2 22.5 36.3-50.7-44.9-48.5z"/><path opacity=".5" stroke="#fff" stroke-width="2" stroke-miterlimit="10" d="M19.4 41M26.2 90.7c9.6-4 20.3-7.9 32-11.6l3.2 22.5 36.3-50.7-45-48.4v21.9c-12.3-2.5-32.4.1-51.5 5.7l.1.3" fill="none"/></g></svg>