<svg xmlns="http://www.w3.org/2000/svg" viewBox="0 0 78.8 57.8" enable-background="new 0 0 78.8 57.8"><path d="M18 48.3c5.5 5.5 12.3 8.9 21.3 9v-24.6c-2 0-3-.6-4-1.6l-17.3 17.2zm52-21.1c0-8-3.4-16.2-9-21.7l-17.5 17.6c1 1 1.6 3.1 1.7 4.1h24.8zm-30.7-26.7c-8 0-13.9 3-18.6 7.7l14.6 14.6c1-1 2.1-1.7 4.1-1.7v-20.6zm26.6 26.7h-21.6v-.3c0 1.6-.2 3-1.2 4.1l14.8 14.7c4.8-4.7 8-11.5 8-18.5zm-33.6-.3v.3h-19.3c0 7 2.9 13.8 7.7 18.6l14-14.7c-1.1-1-2.4-2.5-2.4-4.2zm7-21.6c-7 0-11.3 2.5-15.1 6.4l11.1 11.1c1-1 2.1-1.7 4.1-1.7v-15.8zm21.9 21.9c0-6-2.5-11.6-6.4-15.5l-11.3 11.4c1 1 1.6 3.1 1.7 4.1h16zm-17.8 3.8c-1 1.1-4.2 1.7-4.2 1.7v15.8h.2c5.9 0 11.3-2.4 15.2-6.2l-11.2-11.3zm-8.1-8l-11-11c-3.9 3.9-6.3 9.3-6.3 15.3h15.6c0-1.1.6-3.3 1.7-4.3zm8.2-.1l8.7-8.7c-3.2-3.2-7.7-5.1-12.6-5.1h-.3v12s3.1.7 4.2 1.8zm14.1 4.3h-13.3v-.3c0 1.6-.2 3-1.2 4.1l8.9 8.8c3.2-3.2 5.6-7.6 5.6-12.6zm-22.3-4.2l-8.4-8.3c-3.2 3.2-5.1 7.6-5.1 12.6h11.8c0-1.1.6-3.3 1.7-4.3zm-8.4 16.4c3.2 3.3 6.3 5.3 12.3 5.4v-12c-2 0-3-.6-4-1.6l-8.3 8.2zm12.4-25.4c-5 0-6.7 1.5-9 3.9l4.9 4.9c1-1 2.1-1.7 4.1-1.7v-7.1zm13.2 13.2h-8.2v-.3c0 1.6-.2 3-1.2 4.1l5.4 5.3c2.3-2.4 4-6.1 4-9.1zm-9.1 3.8c-1 1.1-4.2 1.7-4.2 1.7v7.1h.2c3.5 0 6.7-1.4 9.1-3.7l-5.1-5.1z" fill="#A5D3DD" stroke="#fff" stroke-miterlimit="10"/><path stroke="#fff" stroke-width=".53" stroke-miterlimit="10" stroke-dasharray="0.5302,0.5302,0.5302" d="M5.6 10l4.6 11.4h14" fill="none"/><circle fill="#A5D3DD" stroke="#fff" stroke-miterlimit="10" cx="5.6" cy="8.6" r="5.1"/><text transform="translate(3.008 12.23)" fill="#fff" font-family="'OpenSans-Bold'" font-size="9.056">1</text><path stroke="#fff" stroke-width=".53" stroke-miterlimit="10" stroke-dasharray="0.5302,0.5302,0.5302" d="M5.6 46.5l4.6-11.5h14" fill="none"/><circle fill="#A5D3DD" stroke="#fff" stroke-miterlimit="10" cx="5.6" cy="47.9" r="5.1"/><text transform="translate(3.008 51.106)" fill="#fff" font-family="'OpenSans-Bold'" font-size="9.056">2</text><path stroke="#fff" stroke-width=".53" stroke-miterlimit="10" stroke-dasharray="0.5302,0.5302,0.5302" d="M73.2 10l-4.6 11.4h-14" fill="none"/><circle fill="#A5D3DD" stroke="#fff" stroke-miterlimit="10" cx="73.2" cy="8.6" r="5.1"/><text transform="translate(70.665 12.23)" fill="#fff" font-family="'OpenSans-Bold'" font-size="9.056">3</text><path stroke="#fff" stroke-width=".53" stroke-miterlimit="10" stroke-dasharray="0.5302,0.5302,0.5302" d="M73.2 46.5l-4.6-11.5h-19.9" fill="none"/><circle fill="#A5D3DD" stroke="#fff" stroke-miterlimit="10" cx="73.2" cy="47.9" r="5.1"/><text transform="translate(70.665 51.106)" fill="#fff" font-family="'OpenSans-Bold'" font-size="9.056">4</text></svg>