<svg xmlns="http://www.w3.org/2000/svg" viewBox="0 0 301.2 345.2" enable-background="new 0 0 301.2 345.2"><path fill="#3FCEED" d="M119 156.2l-4.6-6.5-4.7 6.5h-9.6v30h29v-30z"/><path stroke="#3FCEED" stroke-width="4" stroke-miterlimit="10" d="M96.1 118.2h39v31h-39zm46 0h39v31h-39zm46 0h39v31h-39z" fill="none"/><path fill="#fff" stroke="#000" stroke-miterlimit="10" d="M106.6 162.7h16v17h-16z"/><path fill="#3FCEED" d="M165 156.2l-4.6-6.5-4.7 6.5h-9.6v30h29v-30z"/><path fill="#fff" stroke="#000" stroke-miterlimit="10" d="M152.6 162.7h16v17h-16z"/><path fill="#3FCEED" d="M211 156.2l-4.6-6.5-4.7 6.5h-9.6v30h29v-30z"/><path fill="#fff" stroke="#000" stroke-miterlimit="10" d="M198.6 162.7h16v17h-16z"/></svg>