<svg xmlns="http://www.w3.org/2000/svg" viewBox="0 0 301.2 345.2" enable-background="new 0 0 301.2 345.2"><g><path fill="#3FCEED" d="M92.1 195.2h29v30h-29zM112.1 224.2l-5.5 7.4-5.3-7.4z"/><path fill="#fff" stroke="#000" stroke-miterlimit="10" d="M98.6 201.7h16v17h-16z"/><path fill="#3FCEED" d="M144.1 195.2h29v30h-29zM164.1 224.2l-5.5 7.4-5.3-7.4z"/><path fill="#fff" stroke="#000" stroke-miterlimit="10" d="M150.6 201.7h16v17h-16z"/><path fill="#3FCEED" d="M194.1 195.2h29v30h-29zM214.1 224.2l-5.5 7.4-5.3-7.4z"/><path fill="#fff" stroke="#000" stroke-miterlimit="10" d="M200.6 201.7h16v17h-16z"/><path fill="#3FCEED" d="M247.1 195.2h29v30h-29zM267.1 224.2l-5.5 7.4-5.3-7.4z"/><path fill="#fff" stroke="#000" stroke-miterlimit="10" d="M253.6 201.7h16v17h-16z"/><path stroke="#3FCEED" stroke-width="4" stroke-miterlimit="10" fill="none" d="M81.1 233.2h51v53h-51zM132.1 233.2h51v53h-51zM183.1 233.2h51v53h-51zM234.1 233.2h51v53h-51z"/></g></svg>