<svg xmlns="http://www.w3.org/2000/svg" viewBox="0 0 301.2 345.2" enable-background="new 0 0 301.2 345.2"><path fill="#2C2F35" stroke="#fff" stroke-width="2" stroke-miterlimit="10" d="M1.1 1.2h299v343h-299z"/><circle fill="#fff" cx="20.3" cy="84.5" r="5.5"/><path stroke="#fff" stroke-width="2" stroke-miterlimit="10" d="M31.1 85.2h25m23-27h22m5 0h15m4 0h17m5 0h24m5 0h14m4 0h24m5 0h17" fill="none"/><circle fill="#fff" cx="20.3" cy="101.5" r="5.5"/><path stroke="#fff" stroke-width="2" stroke-miterlimit="10" d="M31.1 102.2h25m29 3h25m-25 14h25m8-14h56m-56 14h56m18-14h25m-25 14h25m8-14h56m-56 14h56m-196 71h25m-25 14h25m8-14h56m-56 14h56m18-14h25m-25 14h25m8-14h56m-56 14h56" fill="none"/><circle fill="#fff" cx="20.3" cy="118.5" r="5.5"/><path stroke="#fff" stroke-width="2" stroke-miterlimit="10" d="M31.1 119.2h25" fill="none"/><circle fill="#fff" cx="20.3" cy="135.5" r="5.5"/><path stroke="#fff" stroke-width="2" stroke-miterlimit="10" d="M31.1 136.2h25" fill="none"/><circle fill="#fff" cx="20.3" cy="152.5" r="5.5"/><path stroke="#fff" stroke-width="2" stroke-miterlimit="10" d="M31.1 153.2h25" fill="none"/><circle fill="#fff" cx="20.3" cy="169.5" r="5.5"/><path stroke="#fff" stroke-width="2" stroke-miterlimit="10" d="M31.1 170.2h25" fill="none"/><circle fill="#fff" cx="20.3" cy="186.5" r="5.5"/><path stroke="#fff" stroke-width="2" stroke-miterlimit="10" d="M31.1 187.2h25" fill="none"/><circle fill="#fff" cx="20.3" cy="203.5" r="5.5"/><path stroke="#fff" stroke-width="2" stroke-miterlimit="10" d="M31.1 204.2h25" fill="none"/><path d="M82.3 150.9c0-.5.1-1 .2-1.3.1-.3.3-.5.5-.7s.4-.4.7-.5c.3-.1.7-.2 1.1-.2.8 0 1.4.2 1.8.7.5.5.7 1.1.7 2 0 .8-.2 1.5-.7 2-.5.5-1.1.7-1.8.7-.8 0-1.4-.2-1.8-.7-.5-.5-.7-1.1-.7-2zm1.1 0c0 .6.1 1 .4 1.3.3.3.6.5 1 .5s.8-.2 1-.5c.3-.3.4-.8.4-1.4 0-.6-.1-1-.4-1.3-.3-.3-.6-.4-1-.4s-.8.1-1 .4c-.3.3-.4.8-.4 1.4zm4.8 2.6v-5.2h1.7c.6 0 1.1 0 1.3.1.3.1.5.2.8.5s.3.6.3 1c0 .3-.1.6-.2.8-.1.2-.3.4-.4.5s-.4.2-.5.2c-.3 0-.6.1-1.1.1h-.7v2h-1.2zm1-4.3v1.5h.6c.4 0 .7 0 .8-.1.1-.1.2-.1.3-.3.1-.1.1-.3.1-.4 0-.2-.1-.3-.2-.5-.1-.1-.3-.2-.4-.2h-1.2zm3.8 4.3v-5.2h3.9v.9h-2.8v1.2h2.6v.9h-2.6v1.4h2.9v.9h-4zm4.9 0v-5.2h1l2.1 3.5v-3.5h1v5.2h-1l-2.1-3.4v3.4h-1zm7.3 0v-5.2h2.2c.6 0 1 0 1.2.1.3.1.5.3.6.5.2.2.2.5.2.8 0 .4-.1.7-.3 1-.2.3-.6.4-1 .5l.6.4c.1.2.3.4.6.8l.6 1h-1.3l-.8-1.1c-.3-.4-.5-.7-.6-.8s-.2-.2-.3-.2c-.1 0-.3-.1-.5-.1h-.2v2.2h-1zm1-3h.8c.5 0 .8 0 .9-.1.1 0 .2-.1.3-.2.1-.1.1-.2.1-.4s0-.3-.1-.4c-.1-.1-.2-.2-.4-.2h-1.6v1.3zm8.9 3h-1.1l-.5-1.2h-2.1l-.4 1.2h-1.1l2-5.2h1.1l2.1 5.2zm-1.9-2.1l-.7-1.9-.7 1.9h1.4zm3.1 2.1v-4.3h-1.5v-.9h4.1v.9h-1.5v4.3h-1.1zm3.3 0v-5.2h3.9v.9h-2.8v1.2h2.6v.9h-2.6v1.4h2.9v.9h-4zM85.9 90h-1.4v-5.2c-.5.5-1.1.8-1.8 1v-1.2c.4-.1.7-.3 1.2-.7s.7-.7.9-1.1h1.1v7.2zm6.7-1.3v1.3h-4.8c.1-.5.2-.9.5-1.4s.8-1 1.5-1.7c.6-.6 1-1 1.1-1.2.2-.3.3-.6.3-.8 0-.3-.1-.5-.2-.7-.2-.2-.4-.2-.7-.2-.3 0-.5.1-.7.3s-.3.5-.3.9l-1.3-.2c.1-.8.3-1.3.8-1.6s1-.5 1.6-.5c.7 0 1.3.2 1.7.6s.6.9.6 1.4c0 .3-.1.6-.2.9-.1.3-.3.6-.5.9l-.9.9-.8.8-.3.4h2.6zm1.2-.1h1.4v1c0 .4 0 .7-.1.9s-.2.4-.4.6c-.2.2-.4.3-.7.4l-.3-.5c.3-.1.5-.2.6-.4s.2-.4.2-.7h-.7v-1.3zm2.5-.5l1.3-.2c0 .3.2.6.3.8s.4.3.7.3c.3 0 .5-.1.7-.3.2-.2.3-.5.3-.9 0-.3-.1-.6-.3-.8s-.4-.3-.7-.3c-.2 0-.4 0-.6.1l.2-1.1c.4 0 .7-.1.8-.2s.3-.4.3-.7c0-.2-.1-.4-.2-.6s-.3-.2-.6-.2c-.2 0-.4.1-.6.2s-.3.4-.3.7l-1.3-.2c.1-.4.2-.8.4-1 .2-.3.4-.5.7-.6.3-.1.7-.2 1.1-.2.7 0 1.2.2 1.6.6.3.4.5.7.5 1.2 0 .6-.3 1.1-1 1.5.4.1.7.3 1 .6.2.3.4.7.4 1.1 0 .6-.2 1.2-.7 1.6s-1 .7-1.7.7c-.6 0-1.2-.2-1.6-.6s-.7-.9-.7-1.5zm6.8-1.9c-.4-.1-.6-.4-.8-.6-.2-.3-.2-.5-.2-.9 0-.5.2-1 .6-1.3.4-.3.9-.5 1.6-.5.7 0 1.2.2 1.6.5.4.3.6.8.6 1.3 0 .3-.1.6-.3.9s-.4.5-.7.6c.4.2.7.4.9.7.2.3.3.7.3 1.1 0 .7-.2 1.2-.6 1.6-.4.4-1 .6-1.7.6s-1.2-.2-1.6-.5c-.5-.4-.8-1-.8-1.7 0-.4.1-.7.3-1.1s.4-.6.8-.7zm.1 1.6c0 .4.1.7.3.9.2.2.4.3.7.3.3 0 .5-.1.7-.3s.3-.5.3-.9c0-.3-.1-.6-.3-.8s-.4-.3-.7-.3c-.3 0-.6.1-.8.3-.1.3-.2.6-.2.8zm.1-3c0 .3.1.5.2.6.2.2.4.2.6.2.3 0 .5-.1.6-.2s.2-.4.2-.6c0-.3-.1-.5-.2-.6-.2-.2-.4-.2-.6-.2-.3 0-.5.1-.6.2s-.2.3-.2.6zm4.1-.6v-1.2h4.7v1c-.4.4-.8.9-1.2 1.6s-.7 1.5-.9 2.3c-.2.8-.3 1.5-.3 2.2h-1.3c0-1 .2-2 .6-3 .4-1 .9-1.9 1.5-2.8h-3.1zm8.7 5.8v-7.2h3c.8 0 1.3.1 1.7.2.3.1.6.4.8.7s.3.7.3 1.1c0 .5-.2 1-.5 1.3s-.8.6-1.4.7c.3.2.6.4.8.6.2.2.5.6.8 1.2l.9 1.4h-1.7l-1-1.6c-.4-.6-.6-.9-.8-1.1s-.3-.2-.4-.3-.4-.1-.7-.1h-.3v3h-1.5zm1.4-4.1h1.1c.7 0 1.1 0 1.3-.1s.3-.2.4-.3.1-.3.1-.5-.1-.4-.2-.6c-.1-.1-.3-.2-.5-.3h-2.2v1.8zm5.8 4.1v-7.2h5.3v1.2h-3.9v1.6h3.6v1.2h-3.6v1.9h4v1.3h-5.4zm11.3-2.6l1.4.4c-.2.8-.6 1.4-1.1 1.7-.5.4-1.1.6-1.9.6-1 0-1.7-.3-2.3-1s-.9-1.5-.9-2.7c0-1.2.3-2.1.9-2.8s1.4-1 2.4-1c.9 0 1.6.3 2.1.8.3.3.6.7.7 1.3l-1.4.3c-.1-.4-.3-.7-.5-.9-.3-.2-.6-.3-1-.3-.5 0-1 .2-1.3.6-.3.4-.5 1-.5 1.9 0 .9.2 1.5.5 1.9s.7.6 1.3.6c.4 0 .7-.1 1-.4s.4-.5.6-1zm2.6 2.6v-7.2h1.4v7.2h-1.4zm2.8 0v-7.2h2.3c.9 0 1.5 0 1.7.1.4.1.8.3 1 .7s.4.8.4 1.4c0 .4-.1.8-.2 1.1s-.4.5-.6.7c-.2.2-.5.3-.7.3-.3.1-.8.1-1.5.1h-.9v2.8h-1.5zm1.4-5.9v2h.8c.6 0 1 0 1.1-.1s.3-.2.5-.4c.1-.2.2-.3.2-.6s-.1-.5-.2-.6-.3-.3-.6-.3h-1.8zm5.2 5.9v-7.2h1.4v7.2h-1.4zm2.8 0v-7.2h5.3v1.2h-3.9v1.6h3.6v1.2h-3.6v1.9h4v1.3h-5.4zm6.7 0v-7.2h1.4l2.9 4.8v-4.8h1.3v7.2h-1.5l-2.9-4.7v4.7h-1.2zm8.8 0v-5.9h-2.1v-1.2h5.7v1.2h-2.1v5.9h-1.5zm4.2-2.3l1.4-.1c.1.5.3.8.5 1 .3.2.6.3 1 .3.5 0 .8-.1 1.1-.3.2-.2.4-.4.4-.7 0-.2 0-.3-.1-.4-.1-.1-.3-.2-.5-.3-.2-.1-.6-.2-1.2-.3-.8-.2-1.3-.4-1.6-.7-.4-.4-.7-.9-.7-1.4 0-.4.1-.7.3-1 .2-.3.5-.6.9-.7.4-.2.9-.2 1.4-.2.9 0 1.6.2 2 .6.5.4.7.9.7 1.6l-1.4.1c-.1-.4-.2-.6-.4-.8-.2-.2-.5-.2-.9-.2s-.7.1-1 .3c-.2.1-.2.3-.2.4 0 .2.1.3.2.4.2.2.6.3 1.3.5s1.2.3 1.6.5c.3.2.6.4.8.7.2.3.3.7.3 1.1 0 .4-.1.8-.3 1.2s-.5.6-1 .8-.9.3-1.6.3c-.9 0-1.6-.2-2.1-.6s-.8-1.3-.9-2.1zM192.3 150.9c0-.5.1-1 .2-1.3.1-.3.3-.5.5-.7s.4-.4.7-.5c.3-.1.7-.2 1.1-.2.8 0 1.4.2 1.8.7.5.5.7 1.1.7 2 0 .8-.2 1.5-.7 2-.5.5-1.1.7-1.8.7-.8 0-1.4-.2-1.8-.7-.5-.5-.7-1.1-.7-2zm1.1 0c0 .6.1 1 .4 1.3.3.3.6.5 1 .5s.8-.2 1-.5c.3-.3.4-.8.4-1.4 0-.6-.1-1-.4-1.3-.3-.3-.6-.4-1-.4s-.8.1-1 .4c-.3.3-.4.8-.4 1.4zm4.8 2.6v-5.2h1.7c.6 0 1.1 0 1.3.1.3.1.5.2.8.5s.3.6.3 1c0 .3-.1.6-.2.8-.1.2-.3.4-.4.5s-.4.2-.5.2c-.3 0-.6.1-1.1.1h-.7v2h-1.2zm1-4.3v1.5h.6c.4 0 .7 0 .8-.1.1-.1.2-.1.3-.3.1-.1.1-.3.1-.4 0-.2-.1-.3-.2-.5-.1-.1-.3-.2-.4-.2h-1.2zm3.8 4.3v-5.2h3.9v.9h-2.8v1.2h2.6v.9h-2.6v1.4h2.9v.9h-4zm4.9 0v-5.2h1l2.1 3.5v-3.5h1v5.2h-1l-2.1-3.4v3.4h-1zm7.3 0v-5.2h2.2c.6 0 1 0 1.2.1.3.1.5.3.6.5.2.2.2.5.2.8 0 .4-.1.7-.3 1-.2.3-.6.4-1 .5l.6.4c.1.2.3.4.6.8l.6 1h-1.3l-.8-1.1c-.3-.4-.5-.7-.6-.8s-.2-.2-.3-.2c-.1 0-.3-.1-.5-.1h-.2v2.2h-1zm1-3h.8c.5 0 .8 0 .9-.1.1 0 .2-.1.3-.2.1-.1.1-.2.1-.4s0-.3-.1-.4c-.1-.1-.2-.2-.4-.2h-1.6v1.3zm8.9 3h-1.1l-.5-1.2h-2.1l-.4 1.2h-1.1l2-5.2h1.1l2.1 5.2zm-1.9-2.1l-.7-1.9-.7 1.9h1.4zm3.1 2.1v-4.3h-1.5v-.9h4.1v.9h-1.5v4.3h-1.1zm3.3 0v-5.2h3.9v.9h-2.8v1.2h2.6v.9h-2.6v1.4h2.9v.9h-4zM110.6 33.2zm84.7 7.6c2.6 0 4.4-1.8 4.4-4.3 0-1.3-.4-2.4-1-3.2-.7-.9-1.7-1.3-2.9-1.4-1.6 0-3 1.2-4.5 3.6l-.1.2-.1-.2c-.4-1-.7-1.9-.9-2.4-.1-.4-.2-.5-.2-.6-.1-.3-.3-.4-.6-.4-.2 0-.4.1-.6.2-.2.1-.3.3-.3.4-1.4 4.5-2.6 6.6-3.6 6.6-.1 0-.3 0-.3-.1-.3-.3-.2-1-.1-1.9.1-.7.1-1.5.1-2.3-.1-1.6-.9-2.6-2.4-2.6-1.8 0-3 1.9-3.5 3.1l-.2.3v-.4c-.1-1.4-.6-3.1-2.1-3.1-1.8 0-3.1 2.1-3.9 3.8l-.2.5v-.5c.1-2.3.2-3.7.2-4 .1-.4 0-.6-.1-.8-.1-.1-.3-.2-.7-.2-.6 0-.8.4-1.3 1.5-.7 1.9-2.5 6.3-4 6.3-.3 0-.5-.1-.7-.3-.6-.7-.4-2.6 0-5.2v-.2c.2-1.2-.1-1.5-.8-1.6h-.2c-.5 0-.8.5-1.3 1.9-.9 2.5-2 5.2-3.4 5.2h-.1c-.7-.1-.7-1.2-.7-2.5 0-.7 0-1.5-.1-2.3-.2-1.3-1-2.1-2-2.1-2.1 0-3.5 2.7-4.2 4.3l-.1.4v-.4c-.1-.7-.2-1.8-.3-3.1 3.9-4.9 5.7-8.5 5.7-11.5 0-1.9-.9-3.1-2.4-3.1-1.1 0-3.8.9-4.7 9.5-.2 1.6-.3 3.2-.3 4.8-1.8 2.6-5.6 7.1-9.4 7.1-3.4 0-6.1-2.7-6.1-7.6 0-6.5 4.6-10.5 8-10.5.7 0 1.4.2 1.9.6.5.4.7 1 .7 1.6 0 .9-.3 1.4-.6 1.8l-.2.3c-.1.1-.1.3 0 .4.1.2.3.3.6.3.8 0 2.1-1.2 2.1-3 0-1.9-1.6-3.8-4.4-3.8-4.3 0-10 4.7-10 12.3 0 5.4 3.4 9.1 7.9 9.1 3.2 0 6.4-2.3 9.3-6.2l.2-.2v.3c.1 1.4.2 2.5.2 3.3 0 .5.1.9.1 1.1 0 .5.1.8.2 1 .2.2.4.3.8.3.6 0 .8-.4 1-1.5l.1-.3c.3-1.3 1.5-5.5 3.2-5.5.3 0 .5.1.7.3.4.4.3 1.2.3 2.2 0 .6-.1 1.2 0 1.8.2 1.6.9 2.4 2.2 2.5 1.3 0 2.7-1.4 3.5-2.8l.1-.3.1.3c.1.7.7 3.1 2.6 3.1 1.7 0 3.2-1.8 4.8-5.5l.2-.5v.5l-.1 4.5c0 1 .1 1.4.6 1.4h.1c.5 0 .8-.3.9-.8 1.2-4.2 2.3-6.2 3.3-6.2s1.1 1.9 1.2 5.2v.2c0 1.2.1 1.7.8 1.7.5 0 .7-.4 1-1.5.1-.2.1-.4.2-.7 1-3.4 1.8-4.8 2.8-4.8.9 0 .9.9.9 1.2 0 .6 0 1.3-.1 1.9-.1.6-.1 1.2-.1 1.8.1 1.3.8 2.1 2.1 2.1 1.6 0 3.1-1.9 4.4-5.7l.1-.3.1.3c.2.6.5 1.4.8 2.4-1.3 2.8-2.2 5.9-2.2 7.6 0 2.2 1 3.6 2.5 3.6.8 0 2.8-.3 2.9-3.5 0-1.3-.3-3.1-.9-5.4l-.1-.3.2.2c1.3.4 2.2.7 3 .7zm-42.5-10.6c0-.8.1-1.6.2-2.3.6-4.7 1.9-7.9 3.1-7.9.6 0 .9.4.9 1.3 0 2.1-1.4 5.1-4 9l-.2.3v-.4zm38.8 16.8c-.2.3-.5.4-.8.4-.4 0-.7-.1-.9-.4-.6-.7-.4-2.5.5-5.6.1-.4.2-.8.3-1.1l.1-.3.1.3c1.1 3.5 1.3 5.8.7 6.7zm.3-9.4l-.1-.2c1.2-2.5 2.6-3.9 3.8-3.9 1.4 0 2.3 1.2 2.3 3 0 1.2-.5 1.8-.9 2.2-.5.4-1.1.6-1.8.6-1.6 0-2.7-.9-3.3-1.7zm3.7-3.9zm-80.3 6.7c1.9-.1 3.3-2.7 3.9-3.7l.1-.3.1.3c.3 1.5 1.1 4.1 3.7 4.1 1.1 0 2.4-.7 3.7-2l.1-.1.1.1c.9 1.4 2 2.2 3.2 2.1 1.8-.1 2.9-1.4 3-2.3 0-.2 0-.4-.2-.6-.2-.2-.4-.2-.6 0l-.1.1c-.4.4-1.2 1.2-2.1 1.2-1 .1-1.8-.6-2.3-1.9v-.1c2.9-3.8 4.9-9.5 4.7-13.4-.1-1.8-.6-3.9-2.6-3.9h-.1c-.7 0-1.4.4-2 1.1-1.8 2-2.8 7-2.4 12.7.1 1.2.3 2.3.6 3.3v.1c-1.1 1.2-2.1 1.9-3 1.9-2 0-2-3.4-1.8-6.2 0-.6.1-1-.1-1.2-.1-.2-.3-.2-.7-.2-.7 0-.9.1-1.2 1.2-.8 2.2-2.3 6-3.8 6-.4 0-.7-.1-1-.4-.7-.9-.2-3.3.3-5.2.1-.3.2-.7.2-1 .1-.5.1-.8-.1-1-.2-.2-.5-.3-.9-.2-.7.1-1.1.3-1.3 1.6v.3l-.2-.2c-.3-.4-.8-.9-1.9-.9h-.3c-1.1.1-2.4.9-3.3 2-1.1 1.3-1.6 3-1.4 4.8v.3c-.6.7-1.3 1.1-2 1.1-1 0-1.6-.8-1.6-2 0-2.1 1.4-8.4 1.4-10.7 0-2.4-1.1-3.8-3-3.8-2.7 0-4.9 3.1-6.9 9.5-.2.6-.4 1.3-.6 1.8l-.3 1 .1-1c.2-2.2.3-4.4.4-6.5.1-3.1-.3-5.1-1.3-6.1-.5-.5-1.2-.8-2.1-.8-3.4 0-5 5.7-6.1 9.7-.4 1.2-1.1 3.9-1.5 5.8l.3-.4c.2-2.3.8-8.2.8-11.4 0-3.4-1.2-4.9-3.7-5-1.3 0-2.3.7-2.8 1.2-.9.9-1.4 2.2-1.4 3.3 0 .7.4 1.3.8 1.3.2 0 .3-.3.4-.4.8-2.6 1.8-3.8 3.1-3.8.5 0 .9.2 1.2.5 1 1.1.8 4 .5 9.3-.1 1.7-.2 3.6-.3 5.8 0 .4 0 .7-.1 1.1-.1 1.5-.2 2.7.4 2.8.8.1 1.2-.2 1.5-.9.4-1.1 1.2-4.1 2.8-9.7 1.5-5.3 2.7-7.2 4.2-7.2 1.7 0 1.9 3 1.5 9.2-.1 1.3-.2 2.8-.2 4.5v.7c-.1 1.4-.1 2.4.3 2.8.1.1.3.2.5.2.8 0 1-.7 1.3-1.7l.2-.6c2.6-7.1 4.5-13.2 7-13.2.8 0 1.4.6 1.4 1.8 0 2.8-1.4 8.2-1.4 10.9 0 1 .3 1.9.8 2.5.5.6 1.3 1 2.2 1 .9 0 1.7-.4 2.6-1.2l.1-.1.1.1c.6.8 1.6 1.2 2.6 1.1 1.6-.1 2.9-1.5 3.4-2.9l.1-.3.1.3c.4 1 1.2 2.2 2.9 2zm14.6-18.5c.2 0 .4.1.5.3.6.9.6 4-.4 7.5-.6 2-1.5 3.9-2.4 5.5l-.2.3v-.3c-.1-.9-.2-1.7-.2-2.5-.3-5.4 1.3-10.7 2.7-10.8zm-17.6 12.5c-.6 2.2-1.6 4.9-3.5 5.1h-.2c-.8 0-1.2-.5-1.3-1.5-.1-1.3.4-2.8 1.4-3.8.6-.7 1.3-1 1.9-1 .9-.1 1.4.5 1.7 1.2zm43.8-14.3zm-34.9 6.1c-.7 0-1.3.6-1.3 1.2 0 .7.6 1.3 1.3 1.3v.1-.1c.7 0 1.3-.6 1.3-1.2 0-.7-.6-1.3-1.3-1.3zm44.5 0c-.7 0-1.3.6-1.3 1.2 0 .7.6 1.3 1.3 1.3v.1-.1c.7 0 1.3-.6 1.3-1.2 0-.7-.6-1.3-1.3-1.3zm34.7 13.2c-.5 0-.9.4-.9.9s.4.9.9.9.9-.4.9-.9-.4-.9-.9-.9zm0 1.6c-.4 0-.7-.3-.7-.7 0-.4.3-.7.7-.7.4 0 .7.3.7.7.1.4-.3.7-.7.7zm.4-.9c0-.2-.1-.3-.3-.3h-.4v1h.1v-.4h.2l.3.4h.1l-.3-.4c.2-.1.3-.2.3-.3zm-.4.1h-.2v-.3h.2c.1 0 .2 0 .2.2.1.1-.1.1-.2.1z" fill="#fff"/><path fill="#2C2F35" d="M57.5 44.4v-.3c0-.1 0-.2-.1-.3-.1-.2-.2-.4-.4-.6-.2-.2-.3-.3-.5-.4-.2-.1-.4-.2-.6-.2h-.1c.2-1-.1-1.7-.2-2l.6-.7.3-.6c0-.2.1-.3.1-.4v-.3c0-.3-.1-.7-.3-1.1-.1-.2-.2-.4-.4-.6-.2-.2-.4-.4-.7-.5h-.1c-.5-.8-1.1-1.4-1.7-1.8l-.8-.6c-.2-.2-.4-.3-.5-.4-.2-.2-.4-.3-.5-.3-.2-.1-.3-.2-.4-.3l-.1-.1v-1.3c0-.6.1-1.5.2-2.7v-1.1c0-.5-.1-1-.2-1.5l-.1-.3c0-.1 0-.1-.1-.2 0-.1 0-.1-.1-.2 0 0 0-.1-.1-.1l-.1-.3v-.1l-.3-.5c-.1-.3-.2-.7-.3-1.1-.2-.4-.4-.8-.7-1.3-.1-.2-.2-.3-.3-.4.1-.1 1.5-1.5 2.6-3.4 2.1-3.6 1.4-5.7.4-6.9-.9-1-2.1-1.6-3.6-1.8-3.1-.4-6.7 1.1-7.6 1.6l-1.7-1.9c-.1-.2-.3-.3-.5-.4l-.6-.3c-.4-.2-.8-.3-1.3-.4-.9-.1-2 0-3.2.3-1.7.4-3.7 1.3-5.7 2.5s-4.1 2.8-6.2 4.7c-2.5 2.3-4.6 4.7-6.1 7-.8 1.1-1.4 2.3-1.8 3.3-.5 1.1-.8 2.1-.9 3-.1.7-.1 1.3.1 1.9.1.3.1.5.3.7.1.3.3.6.5.8l1.8 1.9.2.2s0 .1-.1.1l-.1.2s0 .1-.1.1l-.1.2s0 .1-.1.1l-.1.2v.1c0 .1 0 .1-.1.2v.1c0 .1 0 .1-.1.2v.2c0 .1 0 .1-.1.2v3.7s0 .1.1.2v.5s0 .1.1.1v.2s0 .1.1.1v.2s0 .1.1.1v.1s0 .1.1.1c0 0 0 .1.1.1v.1s0 .1.1.1c0 0 0 .1.1.1 0 0 0 .1.1.1 0 0 0 .1.1.1l.1.1.1.1.1.1.1.1.1.1.1.1.1.1.2.2c.1 0 .1.1.1.1l.1.1.1.1h.1l.2.1c.1 0 .2.1.2.1s.1 0 .1.1h.3s.1 0 .1.1h.1c.1 0 .1 0 .2.1l.3.1c.1 0 .2 0 .3.1h.5v.1l.4 1.1c2.4 6.5 8.9 11.6 16.3 12.5 7.4.9 15.4-4 18.6-10.7.1-.3.3-.5.4-.7.3-.3.6-.7.7-1 1.7-.4 1.7-.8 1.7-1.2z"/><path fill="#fff" d="M16 41.5v-.1zm0 .1zm-.5-1zm-.1-.2zm42.1 4v-.3c0-.1 0-.2-.1-.3-.1-.2-.2-.4-.4-.6-.2-.2-.3-.3-.5-.4-.2-.1-.4-.2-.6-.2h-.1c.2-1-.1-1.7-.2-2l.6-.7.3-.6c0-.2.1-.3.1-.4v-.3c0-.3-.1-.7-.3-1.1-.1-.2-.2-.4-.4-.6-.2-.2-.4-.4-.7-.5h-.1c-.5-.8-1.1-1.4-1.7-1.8l-.8-.6c-.2-.2-.4-.3-.5-.4-.2-.2-.4-.3-.5-.3-.2-.1-.3-.2-.4-.3l-.1-.1v-1.3c0-.6.1-1.5.2-2.7v-1.1c0-.5-.1-1-.2-1.5l-.1-.3c0-.1 0-.1-.1-.2 0-.1 0-.1-.1-.2 0 0 0-.1-.1-.1l-.1-.3v-.1l-.3-.5c-.1-.3-.2-.7-.3-1.1-.2-.4-.4-.8-.7-1.3-.1-.2-.2-.3-.3-.4.1-.1 1.5-1.5 2.6-3.4 2.1-3.6 1.4-5.7.4-6.9-.9-1-2.1-1.6-3.6-1.8-3.1-.4-6.7 1.1-7.6 1.6l-1.7-1.9c-.1-.2-.3-.3-.5-.4l-.6-.3c-.4-.2-.8-.3-1.3-.4-.9-.1-2 0-3.2.3-1.7.4-3.7 1.3-5.7 2.5s-4.1 2.8-6.2 4.7c-2.5 2.3-4.6 4.7-6.1 7-.8 1.1-1.4 2.3-1.8 3.3-.5 1.1-.8 2.1-.9 3-.1.7-.1 1.3.1 1.9.1.3.1.5.3.7.1.3.3.6.5.8l1.8 1.9.2.2s0 .1-.1.1l-.1.2s0 .1-.1.1l-.1.2s0 .1-.1.1l-.1.2v.1c0 .1 0 .1-.1.2v.1c0 .1 0 .1-.1.2v.2c0 .1 0 .1-.1.2v3.7s0 .1.1.2v.5s0 .1.1.1v.2s0 .1.1.1v.2s0 .1.1.1v.1s0 .1.1.1c0 0 0 .1.1.1v.1s0 .1.1.1c0 0 0 .1.1.1 0 0 0 .1.1.1 0 0 0 .1.1.1l.1.1.1.1.1.1.1.1.1.1.1.1.1.1.2.2c.1 0 .1.1.1.1l.1.1.1.1h.1l.2.1c.1 0 .2.1.2.1s.1 0 .1.1h.3s.1 0 .1.1h.1c.1 0 .1 0 .2.1l.3.1c.1 0 .2 0 .3.1h.5v.1l.4 1.1c2.4 6.5 8.9 11.6 16.3 12.5 7.4.9 15.4-4 18.6-10.7.1-.3.3-.5.4-.7.3-.3.6-.7.7-1 1.7-.4 1.7-.8 1.7-1.2zm-1.2.2c0 .3-.1.6-.3.9v.1c-.1.1-.2.3-.4.5l-.1.3s0 .1-.1.1c0 .1-.1.2-.1.2s0 .1-.1.1c-.1.1-.2.2-.2.3l-.1.2-.1.2-.1.2s0 .1-.1.1l-.3.4s0 .1-.1.1l-.2.3c-.3.4-.6.8-1 1.1-.3.3-.6.6-.9.8h-.1c-.3.3-.6.5-.9.7l-.6.4-.8.5h-.1c-.4.2-.8.4-1.1.6-.6.3-1.3.5-1.9.7-5.4 1.5-10.8.2-12.1-.9l.6 1c-.1 0-.2-.1-.3-.3-.4-.4-1-1.1-1.4-1.6l-.1-.2-.1-.1c-.1-.1-.1-.2-.2-.2 0 0 0-.1-.1-.1 0 0 0-.1-.1-.1v.3c.1.4.4 1 .4 1-.3-.3-.5-.7-.7-1.1-.2-.3-.4-.6-.5-.9l-.1-.2c-.1-.2-.2-.4-.3-.5-.1-.1-.1-.2-.2-.2 0 .6.1 1.1.3 1.4 0 0 0 .1.1.1 0 0 0 .1.1.1v.1l.1.2-.3-.3-.1-.1-.2-.2-.1-.1-.2-.2-.1-.1-.1-.2-.1-.1-.1-.2-.1-.1-.1-.2s0-.1-.1-.1c0-.1-.1-.2-.1-.2s0-.1-.1-.1c-.1-.2-.2-.4-.3-.7v-.1l-.1-.2v-.1c0-.1 0-.1-.1-.2v-.1c0-.1 0-.1-.1-.2v-3.2c0-.1 0-.2.1-.3v-.1c0-.1 0-.1.1-.2v-.1c0-.1 0-.1.1-.2v-.1l.1-.3.2-.5c.4-1 1-1.8 1.7-2.3l-.3-.5c-.3-.6-.6-1.1-.9-1.6v1.6c0-.1-.1-.1-.1-.3-.6-.9-1-3.3-1-3.3-.2.1-.2 1.4-.2 1.4-.1-.7-.2-1.5-.2-2.2v-1.3c-.2.2-.2.3-.2.4v.1c0 .1 0 .1-.1.2-.1.2-.1.5-.1.7v.9l-.1-.6v-.2l-.1-.6v-3.3c0-.3.1-.6.2-.9 0-.1 0-.1.1-.2l.3-.8c.2-.5.4-1 .7-1.5l.4-.6.6-.8.1-.2.1-.1.3-.3.1-.1c1.1-1.1 2.5-1.9 3.9-2.5.2-.1.4-.2.6-.2l.8-.3 1-.3c.9-.3 1.8-.5 2.5-.6h.2c.3-.2.6-.4 1-.6.5-.3 1.1-.5 1.8-.6h.4-.1-.1s-.1 0-.1.1c-.3.1-.6.4-.9.8h.1s.1 0 .1-.1c.3-.1.9-.4 1.6-.5h.7l-.4.2c-.2.1-.3.2-.4.3.3-.1.5-.1.8-.1h1.1c.3 0 .5.1.8.2h.1c.3.1.5.2.7.2h.1l.2.1s.1 0 .1.1l.1.1c.1.1.2.1.2.2l.2.2s0 .1.1.1c0 0 0 .1.1.1l.1.2s0 .1.1.1l.1.2s0 .1.1.1l.1.2s0 .1.1.1c0 .1 0 .1.1.2v.1c0 .1 0 .1.1.2v.1c0 .1.1.2.1.2v.2c0 .1 0 .2.1.3l.1.1v.1l.1.1.1.2v.1l.1.2v2.6c-.1 1.2-.1 2-.2 2.7-.1 1.8.1 2 1.2 2.7 0 0 .2.1.4.3.5.4 1.8 1.2 2.7 2.6l.1.1.2.1.1.1c.1 0 .1.1.1.1l.2.2c.3.4.4.9.4 1.1-3.6 3.2-7.5 4.2-10.5 4.3-1.6.1-3 0-3.9-.1h-.1c-.3 0-.5-.1-.6-.1h-.2c-.2 0-.4 0-.6.1-.4.1-.8.4-1 .8-.3.4-.5 1-.5 1.6 0 .5.1 1 .4 1.5v.1l.1.2c0 .1.1.1.2.2.6.8 2 1.3 3.8 1.6 1.2.2 2.6.1 4.2-.1 4.5-.8 6.7-2.3 7.7-3.3l.2-.2c.4-.4.5-.7.6-.9v-.1c0-.1 0-.2-.1-.2v-.1h.4l.3.1s.1 0 .1.1c.1 0 .1.1.1.1l.1.1c.3.1.2.4.2.4z"/><path fill="#2C2F35" d="M39.4 58.9c-.6 0-1.3 0-1.9-.1-7.6-.9-14.4-6.1-16.8-12.9-.1-.3-.2-.6-.3-.8h-.2c-.1 0-.2 0-.3-.1l-.3-.1c-.1 0-.1 0-.2-.1l.1-.3-.1.4h-.1c-.1 0-.1 0-.1-.1l-.2-.1v-.7l-.2.6-.2-.1s-.1 0-.1-.1c-.1-.1-.2-.1-.3-.1-.1 0-.2-.1-.2-.1l-.4-.2s-.1 0-.1-.1l-.1-.1-.1-.1v-.1c-.1-.1-.1-.1-.2-.1h-.1l-.2-.2-.1-.1-.1-.1-.1-.1-.1-.1-.1-.1-.1-.1-.1-.2v-.1l-.1-.1s0-.1-.1-.1l-.1-.1-.1-.1-.1-.1-.1-.1v-.1c0-.1 0-.1-.1-.1v-.1l-.1-.1v-.1c0-.1 0-.1-.1-.2l-.7-1.1v-.1l-.1-.2v-.2l-.1-.2v-3l.1-.4c0-.1 0-.2.1-.2v-.1c0-.1 0-.1.1-.2v-.1c0-.1 0-.1.1-.2l.1-.1.1-.2s0-.1.1-.1l.1-.2-1.6-1.7c-.3-.3-.5-.6-.7-1l-.3-.9c-.1-.6-.2-1.4-.1-2.1.1-1 .4-2 .9-3.2.5-1.1 1.1-2.2 1.9-3.4 1.6-2.4 3.7-4.9 6.2-7.1 2-1.9 4.2-3.5 6.3-4.7 2.1-1.3 4.1-2.1 5.9-2.6 1.3-.3 2.4-.4 3.4-.3.6.1 1.1.2 1.5.4.1-.2.3-.1.5.1l.6.5 1.4 1.5c1.2-.5 3.8-1.5 6.4-1.5.4 0 .8 0 1.1.1 1.7.2 3 .9 4 2 1.1 1.4 1.8 3.8-.4 7.6-.8 1.4-1.8 2.6-2.3 3.2v.1c.3.4.5.9.7 1.4l.3 1.1.3.4.1.2c.1.1.1.2.2.4v.1l.1.2c0 .1 0 .1.1.2l.1.3c.1.5.2 1 .2 1.6v1.1c0 .6-.1 1.1-.1 1.6 0 .4-.1.8-.1 1.1v.8l.3.2c.1.1.3.2.5.3l.1.1s.1 0 .1.1c.1.1.2.2.3.2.3.2.6.4.8.6.7.6 1.2 1.2 1.7 1.9.3.2.5.4.7.6.2.2.4.5.5.8.2.4.3.9.3 1.3v.5l-.1.5c-.1.3-.2.5-.4.8v.1l-.4.5c.1.4.2.8.2 1.4l.3.1c.3.1.5.3.7.6.2.2.4.5.5.8 0 .1.1.2.1.4v.5c0 .5-.1 1.1-.3 1.5-.2.4-.4.8-.8 1.1-.1.2-.2.5-.4.7-2.8 6.6-10.1 11.3-17 11.3zm-18-14.6l.4 1.1c2.3 6.3 8.6 11.2 15.8 12.1.6.1 1.2.1 1.7.1 6.5 0 13.3-4.4 16.2-10.5.1-.3.3-.5.4-.7l.1-.2c.3-.3.5-.6.6-.9.1-.3.2-.6.2-.9v-.3c0-.1 0-.2-.1-.2-.1-.2-.1-.3-.2-.4l-.3-.3c-.1-.1-.2-.1-.4-.1h-.1c-.2 0-.4-.1-.5-.3-.1-.1-.1-.3-.1-.5.2-.8 0-1.3-.2-1.6-.1-.3-.1-.6.1-.8l.6-.6c.1-.1.1-.2.2-.4 0-.1 0-.2.1-.3v-.2c0-.3-.1-.6-.2-.9l-.3-.5c-.1-.2-.3-.3-.5-.4-.1 0-.2-.1-.2-.2-.4-.6-.9-1.2-1.6-1.7l-.7-.6c-.1-.1-.2-.2-.3-.2-.1-.1-.1-.1-.2-.1-.2-.1-.3-.2-.4-.3-.2-.1-.4-.2-.5-.3l-.2-.2-.1-.1c0-.1-.1-.1-.1-.3v-1.4c0-.3 0-.7.1-1.1 0-.4.1-1 .1-1.6v-1c0-.5-.1-.9-.2-1.3 0-.1 0-.2-.1-.2v-.1c0-.1 0-.1-.1-.2v-.1c0-.1-.1-.2-.1-.2l-.1-.1-.3-.4c-.1-.1-.1-.2-.1-.3-.1-.2-.2-.6-.3-1l-.6-1.2-.3-.4c-.2-.2-.2-.6 0-.9.1-.2 1.4-1.5 2.5-3.3 1.5-2.6 1.7-4.7.5-6.2-.8-.9-1.9-1.4-3.2-1.6-.3 0-.6-.1-1-.1-2.7 0-5.5 1.2-6.3 1.6-.3.1-.6.1-.7-.1l-1.7-1.9-.4-.4c-.1-.1-.3-.2-.5-.3-.3-.2-.7-.3-1.1-.3-.8-.1-1.8 0-2.9.3-1.7.4-3.5 1.3-5.5 2.5-2.1 1.2-4.1 2.8-6.1 4.6-2.4 2.2-4.5 4.6-6 6.9-.7 1.1-1.3 2.2-1.8 3.2-.4 1-.7 2-.8 2.8-.1.6-.1 1.2.1 1.7 0 .2.1.4.2.6.1.3.3.5.4.7l2 2.1c.2.2.2.5.1.8l-.1.1-.1.2v.1l-.1.2v.1c0 .1 0 .1-.1.2v.1s0 .1-.1.2v.1c0 .1 0 .1-.1.2l-.6-.1.6.2v.3l-.1.4v1.1h-.6.6v1.1l.1.3.1.2v.2s0 .1.1.1l.1.2v.1l.2.4-.2.1.2-.1.1.1.1.2-.1.1h.1l.1.1.1.1.1.1.2.2.1.1.1.1.1.1.2.1.1.1.1.1.2.1.2.1-.3.6.3-.5.2.1.2.1.3.1.4.1s.1 0 .1.1l.3.1c.1 0 .1 0 .2.1h.3c.9.7 1.2.8 1.3 1.1z"/><path fill="#fff" d="M50.1 26.3zm-16.9 26z"/><path fill="#654E44" d="M51 25.3zm-32.9 18.2zm-2.1-1.9zm0 0zm-1-2.1zm0-.4z"/><path fill="#2C2F35" d="M34 19.8c.4-.2.8-.4 1.1-.5l.3-.1.4-.2h-1c-.2 0-.4 0-.6.1h-.2c.5-.3 1.1-.5 1.6-.6.3-.1.7-.2 1-.2.4-.1.9-.1 1.2-.2h1.3c.7 0 1 .1 1 .1l-.3-.3c-.2-.2-.5-.3-.7-.4l-.3-.1h-.2.3.3c.9-.1 1.8 0 2.4.1.7.1 1.2.3 1.2.3-.1-.2-.3-.4-.4-.5l-.4-.3c.3.1.5.1.7.2.6.2 1.1.4 1.5.6.1.1.2.1.4.2h.1l.6.3-.3-.6-.1-.1h.2c.2.1.4.2.7.3 0 0 .1 0 .1.1l.3.2.3.2.2.1.3.3.3.3.1.1.2.2.4.5.3.7.3-.3c1.2-1.4 4.6-5.7 2.6-8.4-.4-.4-.8-.7-1.2-.9l-.3-.1-.1-.1c-.4-.2-.8-.3-1.3-.3-2.2-.3-4.6.5-6 1.1-.1 0-.2.1-.2.1-.1.1-.2.1-.4.2l-.6.3h-.1l-.4-.4-.2-.2-.2-.2-.1-.1-1.5-1.7-.1-.1-.2-.2-.3-.1-.5.1-.9-.3c-.7-.1-1.6 0-2.7.3-1 .3-2.2.7-3.5 1.3-2.5 1.2-5.2 3.1-7.9 5.6-.9.8-1.8 1.7-2.6 2.6-.8.8-1.5 1.7-2.1 2.5-1.3 1.7-2.3 3.3-2.9 4.8-.4 1-.7 1.9-.8 2.6-.1.6-.1 1 0 1.5 0 .1.1.2.1.4.1.2.2.4.4.6l1.6 1.7.2.2c0-.1.1-.1.2-.2l.1-.1.1-.2.1-.1.1-.1.1-.1.1-.1s.1 0 .1-.1l.2-.1s.1 0 .1-.1l.2-.1s.1 0 .1-.1l.2-.1s.1 0 .1-.1l.2-.1s.1 0 .1-.1l.2-.1h.1s.1 0 .1-.1c0 0 .1 0 .1-.1l.3-.1h2.5c.2 0 .5.1.8.1h.2v-.1c.1-.3.3-.5.5-.8.9-1.5 1.9-2.8 2.8-4 .3-.4.7-.8 1-1.1 1.4-1.5 2.8-2.6 4.1-3.5.3-.2.6-.4.8-.6l1.1-.6.9-.5zm-9.8 20.9c-.1-.4-.1-.8-.2-1.1v-.1c-.1 0-.1.1-.2.2l-.1.1c-.2.3-.3.8-.3.8v-.6c0-.2 0-.3.1-.5v-.1l.1-.6v-.3l.1-.4c0-.1 0-.2.1-.3v-.7l-.1.1-.1.1-.1.2s0 .1-.1.1l-.1.2-.2.5v.3-.1-.3-.3-.1-.1-.1-.1-.1-.1-.2-.1l.1-.3v-.1l.1-.5.1-.4c0-.1 0-.1.1-.2 0-.1.1-.2.1-.2s0-.1.1-.1v-.1s0-.1.1-.1l.3-.6v-.1l.1-.2.2-.3c.1-.2.2-.3.2-.4 0-.1 0-.1.1-.1 0 0-.1-.1-.3-.2-.2-.1-.5-.3-.8-.4l-.3-.2c-.1-.1-.3-.1-.5-.2h-.1l-.4-.1c-.1 0-.2 0-.3-.1h-.9c-.2 0-.5 0-.7.1l-1.2.3c-.1 0-.2.1-.4.2h-.1s-.1 0-.1.1c-.4.2-.7.4-1 .7-.3.2-.5.5-.7.7-.1.1-.1.2-.2.2l-.2.3-.3.6-.1.2c-.2.5-.4 1-.4 1.5v2.5s0 .1.1.1c0 0 0 .1.1.1v.2s0 .1.1.1c0 0 0 .1.1.1 0 0 0 .1.1.1l.1.1s0 .1.1.1l.1.1s0 .1.1.1l.1.1s0 .1.1.1l.1.1.1.1.1.1.1.1.1.1.1.1.1.1h.1s.1.1.2.1h.1l.2.1.2.1.2.1.2.1.2.1.2.1c.1 0 .2.1.2.1.1 0 .2.1.2.1h.2c.1 0 .2 0 .3.1h.3c.3 0 .6.1.8.1h.9c.1 0 .2 0 .3-.1.2 0 .4-.1.5-.1.5-.1 1-.3 1.2-.5 0 0-.2-.8-.3-1.6l.5.4z"/><path fill="#8F694C" d="M47.6 21.7z"/><path fill="#fff" d="M33.6 15.4l.7-.4c.5-.3 1-.5 1.5-.7l-.2-.3-.3-.3-1.7-2v-1.4l1.2-.4 2.2 1.1v-.8l.4-.9h.2l-.9-.3c-.7-.1-1.6 0-2.7.3-1 .3-2.2.7-3.5 1.3-2.5 1.2-5.2 3.1-7.9 5.6-.9.8-1.8 1.7-2.6 2.6-.8.8-1.5 1.7-2.1 2.5-1.3 1.7-2.3 3.3-2.9 4.8-.4 1-.7 1.9-.8 2.6-.1.6-.1 1 0 1.5 0 .1.1.2.1.4.1.2.2.4.4.6l1.6 1.7.2.2c0-.1.1-.1.2-.2l.1-.1.1-.2.1-.1.1-.1.1-.1.1-.1s.1 0 .1-.1l.2-.1s.1 0 .1-.1l.2-.1s.1 0 .1-.1l.2-.1s.1 0 .1-.1l.2-.1s.1 0 .1-.1c.4-1.1 1-2.2 1.7-3.4.9-1.5 2.1-3 3.5-4.6.9-1 1.8-1.9 2.9-2.9 1.3-1.2 2.7-2.3 4.1-3.3.9-.6 1.8-1.2 2.7-1.7 0 .1 0 .1.1 0z"/><path fill="#FBE8CC" d="M50.1 26.3z"/><path fill="#fff" d="M24.1 39.5c-.1 0-.1.1-.2.2l-.1.1c-.2.3-.3.8-.3.8v-.6c0-.2 0-.3.1-.5v-.1l.1-.6v-.3l.1-.4c0-.1 0-.2.1-.3v-.7l-.1.1-.1.1-.1.2s0 .1-.1.1l-.1.2-.2.5v.3-.1-.3-.3-.1-.1-.1-.1-.1-.1-.2-.1l.1-.3v-.1l.1-.5.1-.4c0-.1 0-.1.1-.2 0-.1.1-.2.1-.2s0-.1.1-.1v-.1s0-.1.1-.1h-.1c-.2-.1-.4-.2-.6-.2l-.4-.1h-1.1c-.1 0-.1 0-.2.1h-.1l-.3.1h-.1s-.1 0-.1.1c0 0-.1 0-.1.1 0 0-.1 0-.1.1l-.1.1s-.1 0-.1.1l-.2.2-.1.1-.2.2-.1.1-.1.1c-.1.1-.2.3-.3.5v.1c0 .1-.1.2-.1.2v.1l-.1.3v1.1l.1.5.1.3.3.6c.2.4.6.7.9.9.2.1.4.2.7.3l.7.2h.8c.1 0 .2 0 .3-.1h.1c.1 0 .3-.1.4-.2h.1c.4-.6.3-1 .3-1.4z"/><path d="M16 41.6z" fill="none"/><path fill="#4E9DD6" d="M37.5 11.3h.1z"/><path fill="#fff" d="M55.1 43.7c-.1-.4-.2-.7-.4-.8-.1-.2-.3-.3-.3-.3 0-.1 0-.2.1-.2v-.3c.1-.7-.1-1.3-.3-1.6 0-.1 0-.1-.1-.1-.1.1-.2.2-.3.2-2.1 1.5-4.6 2.4-7.2 2.8-1.8.3-3.7.3-5.7.1 0 0-1.2.2-1.5 1.3l-.1.8c0 1 .5 1.7 1 2 .6.2 1.2.4 2 .5 1.3.2 2.8.1 4.3-.1 2-.3 4.9-1.4 7-2.8.5-.3.9-.7 1.3-1 .2-.3.2-.4.2-.5z"/><path fill="#F1D1AB" d="M50.1 26.3zm0 0z"/><path fill="#fff" d="M38 37.9c.1-.1.1-.1.2-.1h.1l.2-.1h.1l.2-.1h.1l.2-.1h.1l.2-.1h.1l.2-.1h.1l.2-.1h.1l.2-.1h.1l.2-.1h.1l.2-.1s.1 0 .1-.1l.2-.1s.1 0 .1-.1l.2-.1s.1 0 .1-.1l.2-.1c.1 0 .1 0 .2-.1l.2-.1c.1 0 .1 0 .2-.1.1 0 .1 0 .2-.1.1 0 .1 0 .2-.1.1 0 .1 0 .2-.1.1 0 .1 0 .2-.1.1 0 .1 0 .2-.1.1 0 .2 0 .2-.1h.1c.3-.8 1.3-2.9 3-3.1h.6v-.4c-.1-.9.2-1.6.6-1.6.3 0 .5.4.6.6.1.3.2.6.2 1 0 .3 0 .7-.1.9l.1.1c.4.5.4 1.1.4 1.6h1.3l1.3-.1c-.2-.2-.4-.3-.4-.3-1.1-.7-1.3-.9-1.2-2.7 0-.7.1-1.5.2-2.7v-2c-.2-.2-.3-.4-.6-.6 0 0-.1 0-.1-.1 0 0-.1 0-.1-.1-.3-.2-.7-.3-1.1-.4h-1c-.3 0-.6.1-.9.2l-.3.2-.3.2-.3.2-.3.2c-.1.1-.2.1-.3.1l-.3.1-.3.1c-.1 0-.2 0-.3.1h-.6c-.3 0-.6 0-.9-.1-.1 0-.2 0-.3-.1h-.1l-.8-.2-.3-.1-.6-.1h-.6l-1.4.3h-.1l-.2.1-.3.1c-.7.3-1.3.7-1.9 1.2l-.7.6c-.3.3-.6.7-.9 1.1v.1l-.4.6c0 .1-.1.2-.1.2l-.3.8v.1c0 .1-.1.2-.1.4 0 .1-.1.2-.1.4v.3c0 .3-.1.6-.1.8v.2c.1.5.3.9.5 1.2.8 1.4 2.2 2.3 3.2 2.7.2.1.6.2 1 .4zm-3.6 4.5l.2-.4v-.1l.2-.4v-.1c.1-.3.3-.5.4-.7v-.1l.2-.3v-.2l.2-.3c.1-.1.2-.2.2-.3l.3-.3c.1-.1.1-.2.2-.2l.1-.1.5-.5c.4-.4.8-.6.9-.7-.1 0-.2 0-.3.1-.1 0-.3.1-.5.2s-.4.2-.7.3c-.6.3-1.4.6-2 1.2-.1.1-.2.1-.2.2-.1.1-.3.2-.4.4l-.1.1-.1.2-.1.1c-.1.1-.1.2-.2.2-.1.1-.1.2-.1.2-.4.7-.6 1.5-.5 2.4v-.6s0-.1.1-.1c0 0 0-.1.1-.1l.1-.2s0-.1.1-.1l.1-.2.1-.1.1-.1.1-.1s-.9 2-.5 3.5v-1.1s0-.1.1-.1l.1-.2.1-.2v1.6c0-.6.2-1.2.3-1.7.7-.7.8-.9.9-1.1zm11.8-8l.3.3c.1.2.1.3.1.4l-.1.1h.1c.3.1 1.2.3 1.7-.3 0 0 0-.1.1-.1-.1 0-.1-.2-.1-.4v-.3c.1-.3.3-.4.4-.3v-.1c-.1-.3-.4-1-1.5-.9-1.2.1-1.6 1-1.7 1.4v.1c.2-.1.5-.1.7.1z"/><path fill="#2C2F35" d="M24 37.1l-.1.1-.1.1-.1.2s0 .1-.1.1l-.1.2-.2.5v.3-.1-.3-.3-.1-.1-.1-.1-.1-.1-.2-.1l.1-.3v-.1l.1-.5.1-.4c0-.1 0-.1.1-.2 0-.1.1-.2.1-.2s0-.1.1-.1v-.1s0-.1.1-.1h-.1c-.2-.1-.4-.2-.6-.2l-.4-.1h-1.1c-.1 0-.1 0-.2.1h-.1l-.3.1h-.1s-.1 0-.1.1c0 0-.1 0-.1.1 0 0-.1 0-.1.1l-.1.1s-.1 0-.1.1l-.2.2-.1.1-.2.2-.1.1-.1.1c-.1.1-.2.3-.3.5v.1c0 .1-.1.2-.1.2v.2c0 .1 0 .1.1.2l.1.2c.1.2.2.4.2.5v.1l.2.3c.1.1.2.2.2.3v-.1c-.1-.3-.1-.5-.1-.8v-.5c0 .1 0 .1.1.2 0 .1.1.2.1.2.1.3.3.6.4.8.2.3.3.5.4.6v.1c-.1-.3-.1-.5-.1-.8v-.6c0 .2.1.4.2.5.2.6.5 1 .7 1.3l.1.1v.1-.1c0-.1 0-.3-.1-.4v-.9c0 .1 0 .1.1.2 0 0 0 .1.1.1 0 .1 0 .1.1.2l.1.3.2.3c0 .1.1.1.1.1l.1.2.1.1.1.1v.1l.1.1v-.1c0-.2 0-.3.1-.5v-.1l.1-.6v-.3l.1-.4c0-.1 0-.2.1-.3v-.6c.5-.1.5-.1.5-.2zm20.6 9c.2 0 .5 0 .7-.1l.7-.1 1.2-.2c.2 0 .4-.1.5-.1l.5-.1c.3-.1.5-.2.7-.3l.6-.3s-.2 0-.6.1c-.2 0-.4.1-.7.2-.1 0-.3.1-.5.1l-.5.1c-.4.1-.8.1-1.2.1-.2 0-.4 0-.7.1h-.7c-1 0-2 0-3.1-.2-.6-.1-1.3-.4-1.9-.7.3-1.1 1.5-1.3 1.5-1.3h-.1c-.2 0-.3 0-.5-.1h-.3c-.7 0-1.1.6-1.2.8 0 0 0 .1-.1.1-.1.2-.2.5-.2.8 0 .5.1 1.1.5 1.6.3.3.7.6 1.4.9-.5-.3-1-1-1-2 .6.3 1.3.4 1.9.5 1 .1 2.1.2 3.1.1zm2.6-14c.6 0 1 .2 1.3.5.1-.3.1-.6.1-.9 0-.4-.1-.7-.2-1 0-.2-.3-.6-.6-.6-.4 0-.7.8-.6 1.6v.4z"/><path fill="#654E44" d="M55.4 38.5zm0 0zm0 0z"/><path fill="#fff" d="M38.1 45.3v.9s0 .1.1.1v.1l.1.2v.1l.1.2c0 .1.1.1.2.2.6.8 2 1.3 3.8 1.6 1.2.2 2.6.1 4.2-.1 4.5-.8 6.7-2.3 7.7-3.3l.2-.2c.4-.4.5-.7.6-.9-.4.3-.8.7-1.3 1-2.1 1.4-4.9 2.5-7 2.8-1.5.2-3 .3-4.3.1-.8-.1-1.4-.3-2-.5-.6-.2-1.1-.5-1.4-.9-.4-.5-.5-1.1-.5-1.6 0-.3.1-.6.2-.8 0 0 0-.1.1-.1.1-.3.5-.9 1.2-.8h.3c.1 0 .3 0 .5.1h.1c2 .2 3.9.2 5.7-.1 2.6-.4 5-1.3 7.2-2.8.1-.1.2-.2.3-.2l1.2-1.8c-3.6 3.2-7.5 4.2-10.5 4.3-1.6.1-3 0-3.9-.1h-.1c-.3 0-.5-.1-.6-.1h-.2c-.2 0-.4 0-.6.1-.4.1-.8.4-1 .8-.3.4-.5 1-.5 1.6 0 0 0 .1.1.1z"/><path fill="#654E44" d="M38.1 45.4zm.2 1zm16.8-2.4zm-16.9 1.9zm-.2-.8zm.2 1zm-.1-.5v.2-.2zm17-1.6zm-16.7 2.5s-.1-.1-.1-.2c0 .1.1.2.1.2zm-.1-.2s0-.1-.1-.1c0 0 .1 0 .1.1zm-.1-.2v-.1.1zm.1.3zm-.1-.3zm0-.2zm.2.7c.1.1.1.2.1.2 0 .1.1.1.2.2.6.8 2 1.3 3.8 1.6 1.2.2 2.6.1 4.2-.1 4.5-.8 6.7-2.3 7.7-3.3l.2-.2c.4-.4.5-.7.6-.9v-.1c-.1.1-.2.5-.6.9l-.2.2c-1 1-3.2 2.5-7.7 3.3-1.5.2-3 .2-4.2.1-1.8-.2-3.1-.8-3.8-1.6l-.2-.2-.1-.1zm-.4-1.5z"/><path fill="#2C2F35" d="M40.7 28.3c-.1-.1-.3-.1-.5-.2-.1 0-.2 0-.3-.1h-1.1c-.1 0-.2 0-.3.1-.7.2-1.2.6-1.6 1-.3.4-.5.7-.6 1.1v.1l-.1.3c-.1.3-.1.6-.1.8v.5l.4-.8c.3-.6.7-1.1 1.1-1.4.7-.7 1.4-1.1 2-1.3.7-.1 1.1-.1 1.1-.1zm8.3-.6l.3.3.3.3s0-.5-.3-.9c0 0 0-.1-.1-.1l-.3-.3c-.3-.2-.7-.3-1.2-.2 0 0-.6.1-1 .6.1-.1 1.2-.6 2.3.3zm-8.2 7.5c.4-.1.9-.2 1.3-.4.1-.4.1-.8 0-1.3-.1-1.2-.7-2.1-1.2-2-.5.1-.8 1.1-.7 2.2.2.6.4 1.1.6 1.5z"/><path fill="#fff" d="M38.4 9.1l-1.1.2.2 2-2.9-1.5-1.2.4 3.5 4 .3-.2s.1 0 .1-.1l.5-.3-1.5-1.7 2.4 1.2.2-.1-.2-1.7 1.1 1.3.3-.1s.1 0 .1-.1l.4-.2-2.2-3.1z"/><path fill="#4E9DD6" d="M37.4 9.4z"/><path fill="#fff" d="M34.1 14.2l-.6-2.5v-1.4l1.2-.4 2.3 1.1v-.8l.4-.9h.2l-.9-.3c-.7-.1-1.6 0-2.7.3-1 .3-2.2.7-3.5 1.3-2.5 1.2-5.2 3.1-7.9 5.6-.9.8-1.8 1.7-2.6 2.6l3.2 4c.9-1 1.8-1.9 2.9-2.9 1.4-1.3 2.8-2.4 4.2-3.3 1.2-1 2.6-1.8 3.8-2.4z"/><path fill="#2C2F35" d="M37.4 9.4l-.4.8v.8l.6.3zm-.8 2.5l2.3 1.2-.9.5zm2.3-.7l.3 1.7.8-.4z"/><path fill="#fff" d="M34.6 16.5l1.9-1.3.6-.4.3-.2.2-.1.3-.2.3-.2.2-.1c.1-.1.3-.2.4-.2.1 0 .2-.1.2-.1l.8-.4h.1s.1 0 .1-.1l.2-.1h.1s.1 0 .1-.1l.3-.2h.1s.1 0 .1-.1l.4-.2s.1 0 .1-.1h.2l.5-.2.4-.2c.8-.3 1.5-.6 2.1-.8 1.3-.4 2.4-.6 3.3-.7h.4c.4 0 .8.1 1.1.1h.1l-.1-.1c-.4-.2-.8-.3-1.3-.3-2.2-.3-4.6.5-6 1.1-.1 0-.2.1-.2.1-.1.1-.2.1-.4.2l-.6.3h-.1l-.4.2s-.1 0-.1.1l-.3.1h-.1l-.4.2-.3.2c-.1.3-.2.3-.2.3l-.7.4h-.3l-.5.3s-.1 0-.1.1l-.3.2-.9.6-1.5 1-.2.1c-1.3.9-2.5 2-3.6 3-1.2 1.1-2.4 2.3-3.5 3.4-.6.6-1.1 1.1-1.5 1.6-.8.9-1.3 1.5-1.3 1.5l.2-.2-.3.4c1.8-1.9 3.9-3.9 6-5.8 1.3-1 2.7-2.1 4.1-3.1z"/><path stroke="#fff" stroke-width="2" stroke-miterlimit="10" d="M82.1 160.2h95v11h-95z" fill="none"/><path fill="#fff" stroke="#fff" stroke-width="2" stroke-miterlimit="10" d="M82.1 160.2h69v11h-69z"/><path stroke="#fff" stroke-width="2" stroke-miterlimit="10" d="M192.1 160.2h95v11h-95z" fill="none"/><path fill="#fff" stroke="#fff" stroke-width="2" stroke-miterlimit="10" d="M192.1 160.2h20v11h-20z"/><path fill="#fff" d="M81.1 233.2h205v53h-205z"/><path fill="#fff" stroke="#2C2F35" stroke-width="2" stroke-miterlimit="10" d="M183.1 286.2v-53m51 53v-53m-102 0v53"/><path d="M100.9 260.4v2h-7.7c.1-.8.3-1.5.8-2.2.4-.7 1.2-1.6 2.5-2.7 1-.9 1.6-1.5 1.8-1.9.3-.5.5-.9.5-1.3 0-.5-.1-.9-.4-1.1-.3-.3-.6-.4-1.1-.4-.5 0-.8.1-1.1.4-.3.3-.4.7-.5 1.4l-2.2-.2c.1-1.2.5-2.1 1.2-2.6s1.5-.8 2.6-.8 2 .3 2.7.9 1 1.4 1 2.3c0 .5-.1 1-.3 1.5-.2.5-.5 1-.9 1.5-.3.3-.7.8-1.4 1.5-.7.6-1.1 1.1-1.3 1.3-.2.2-.3.4-.4.6h4.2zm3.4-4.1c-.6-.2-1-.6-1.2-1-.3-.4-.4-.9-.4-1.4 0-.9.3-1.6.9-2.1.6-.6 1.4-.8 2.5-.8s1.9.3 2.5.8c.6.6.9 1.3.9 2.1 0 .5-.1 1-.4 1.4s-.7.7-1.2.9c.6.3 1.1.6 1.4 1.1.3.5.5 1.1.5 1.7 0 1.1-.3 1.9-1 2.6-.7.7-1.6 1-2.7 1-1 0-1.9-.3-2.6-.8-.8-.6-1.2-1.5-1.2-2.7 0-.6.2-1.2.5-1.7.4-.4.9-.8 1.5-1.1zm.3 2.7c0 .6.2 1.1.5 1.4.3.3.7.5 1.2.5s.8-.2 1.1-.5c.3-.3.4-.8.4-1.4 0-.5-.2-1-.5-1.3-.3-.3-.7-.5-1.1-.5-.5 0-.9.2-1.2.6-.3.3-.4.7-.4 1.2zm.2-4.9c0 .4.1.8.4 1 .2.2.6.4 1 .4s.8-.1 1-.4c.2-.2.4-.6.4-1s-.1-.7-.4-1c-.2-.2-.6-.4-1-.4s-.8.1-1 .4-.4.6-.4 1zm12.1 8.4h-2.2v-8.3c-.8.8-1.7 1.3-2.8 1.7v-2c.6-.2 1.2-.5 1.9-1.1s1.1-1.1 1.4-1.8h1.8v11.5zm-25.2 5.9c0-.5.1-.9.2-1.3.1-.3.3-.5.5-.7.2-.2.4-.4.6-.5.3-.1.7-.2 1.1-.2.7 0 1.3.2 1.8.7s.7 1.1.7 1.9c0 .8-.2 1.4-.7 1.9-.4.5-1 .7-1.8.7-.7 0-1.3-.2-1.8-.7-.4-.4-.6-1-.6-1.8zm1.1-.1c0 .6.1 1 .4 1.3.3.3.6.4 1 .4s.7-.1 1-.4c.3-.3.4-.7.4-1.3 0-.6-.1-1-.4-1.3-.3-.3-.6-.4-1-.4s-.8.1-1 .4-.4.8-.4 1.3zm4.6 2.6v-5h1.6c.6 0 1 0 1.2.1.3.1.5.2.7.5.2.3.3.6.3 1 0 .3-.1.6-.2.8-.1.2-.3.4-.4.5-.2.1-.3.2-.5.2s-.6.1-1 .1h-.7v1.9h-1zm1-4.2v1.4h.6c.4 0 .7 0 .8-.1l.3-.2c.1-.1.1-.2.1-.4s-.1-.3-.2-.5c-.1-.1-.2-.2-.4-.2h-1.2zm3.6 4.2v-5h3.7v.8h-2.7v1.1h2.5v.8h-2.5v1.4h2.8v.8h-3.8zm4.7 0v-5h1l2.1 3.3v-3.3h.9v5h-1l-2-3.3v3.3h-1zm5.1 0v-5h3.7v.8h-2.7v1.1h2.5v.8h-2.5v1.4h2.8v.8h-3.8zm4.6-5.1h1.8c.4 0 .7 0 1 .1.3.1.5.2.8.5.2.2.4.5.5.8.1.3.2.7.2 1.2 0 .4-.1.8-.2 1.1-.1.4-.3.7-.5.9-.2.2-.4.3-.7.4-.2.1-.5.1-.9.1h-1.9v-5.1zm1 .9v3.3h1.4c.2 0 .3-.1.4-.2.1-.1.2-.3.3-.5.1-.2.1-.5.1-.9s0-.7-.1-.9c-.1-.2-.2-.4-.3-.5s-.3-.2-.5-.2h-1.3zM150.7 259.4l2.1-.3c.1.5.2 1 .5 1.2.3.3.7.4 1.1.4.5 0 .8-.2 1.1-.5s.5-.8.5-1.4c0-.6-.1-1-.4-1.3-.3-.3-.7-.5-1.1-.5-.3 0-.6.1-1 .2l.2-1.8c.6 0 1-.1 1.4-.4s.5-.6.5-1.1c0-.4-.1-.7-.3-.9-.2-.2-.5-.3-.9-.3s-.7.1-1 .4c-.3.3-.4.6-.5 1.1l-2-.3c.1-.7.4-1.2.6-1.7s.7-.7 1.2-1c.5-.2 1.1-.4 1.7-.4 1.1 0 1.9.3 2.6 1 .5.6.8 1.2.8 1.9 0 1-.5 1.8-1.6 2.4.7.1 1.2.5 1.6.9.4.5.6 1.1.6 1.8 0 1-.4 1.9-1.1 2.6-.7.7-1.6 1.1-2.7 1.1-1 0-1.9-.3-2.6-.9-.8-.4-1.2-1.2-1.3-2.2zm14.6 3.1h-2.2v-8.3c-.8.8-1.7 1.3-2.8 1.7v-2c.6-.2 1.2-.5 1.9-1.1s1.1-1.1 1.4-1.8h1.8v11.5zm-18.1 6.5l1 .3c-.2.5-.4 1-.8 1.2-.3.3-.8.4-1.3.4-.7 0-1.2-.2-1.6-.7-.4-.5-.6-1.1-.6-1.9 0-.8.2-1.5.6-1.9.4-.5 1-.7 1.7-.7.6 0 1.1.2 1.5.5.2.2.4.5.5.9l-1 .2c-.1-.3-.2-.5-.4-.6-.2-.2-.4-.2-.7-.2-.4 0-.7.1-.9.4s-.3.7-.3 1.3c0 .6.1 1.1.3 1.4.2.3.5.4.9.4.3 0 .5-.1.7-.3.1-.1.3-.3.4-.7zm1.8 1.9v-5h1v4.1h2.5v.8h-3.5zm4.3 0v-5h1v5h-1zm5.1-1.9l1 .3c-.2.5-.4 1-.8 1.2-.3.3-.8.4-1.3.4-.7 0-1.2-.2-1.6-.7-.4-.5-.6-1.1-.6-1.9 0-.8.2-1.5.6-1.9.4-.5 1-.7 1.7-.7.6 0 1.1.2 1.5.5.2.2.4.5.5.9l-1 .2c-.1-.3-.2-.5-.4-.6-.2-.2-.4-.2-.7-.2-.4 0-.7.1-.9.4s-.3.7-.3 1.3c0 .6.1 1.1.3 1.4.2.3.5.4.9.4.3 0 .5-.1.7-.3.2-.1.4-.3.4-.7zm1.9 1.9v-5h1v2.2l2-2.2h1.4l-1.9 2 2 3.1h-1.3l-1.4-2.4-.8.8v1.5h-1zm5 0v-5h3.7v.8h-2.7v1.1h2.5v.8h-2.5v1.4h2.8v.8h-3.8zm4.7-5.1h1.8c.4 0 .7 0 1 .1.3.1.5.2.8.5.2.2.4.5.5.8.1.3.2.7.2 1.2 0 .4-.1.8-.2 1.1-.1.4-.3.7-.5.9-.2.2-.4.3-.7.4-.2.1-.5.1-.9.1h-2v-5.1zm1 .9v3.3h1.4c.2 0 .3-.1.4-.2.1-.1.2-.3.3-.5.1-.2.1-.5.1-.9s0-.7-.1-.9c-.1-.2-.2-.4-.3-.5s-.3-.2-.5-.2h-1.3zM197.8 259.5l2.2-.2c.1.5.2.9.6 1.2s.7.4 1.1.4c.5 0 .8-.2 1.2-.6.3-.4.5-.9.5-1.7 0-.7-.2-1.2-.5-1.6s-.7-.5-1.2-.5c-.6 0-1.2.3-1.7.8l-1.8-.3 1.1-6h5.8v2.1h-4.1l-.3 1.9c.5-.2 1-.4 1.5-.4 1 0 1.8.4 2.5 1.1.7.7 1 1.6 1 2.8 0 .9-.3 1.8-.8 2.5-.7 1-1.8 1.5-3.1 1.5-1.1 0-1.9-.3-2.6-.9-.9-.4-1.3-1.1-1.4-2.1zm12.6-8.5c1.1 0 2 .4 2.6 1.2.7.9 1.1 2.5 1.1 4.7s-.4 3.7-1.1 4.7c-.6.8-1.5 1.2-2.6 1.2s-2-.4-2.7-1.3c-.7-.9-1-2.4-1-4.6 0-2.2.4-3.7 1.1-4.7.6-.9 1.5-1.2 2.6-1.2zm0 1.8c-.3 0-.5.1-.7.3-.2.2-.4.5-.5.9-.2.6-.2 1.5-.2 2.9 0 1.3.1 2.3.2 2.8s.3.8.5 1c.2.2.4.2.7.2s.5-.1.7-.3c.2-.2.4-.5.5-.9.2-.6.2-1.5.2-2.9 0-1.3-.1-2.3-.2-2.8s-.3-.8-.5-1c-.2-.1-.4-.2-.7-.2zm-21.6 13h2.9c.2 0 .4.1.5.2.2.1.3.2.4.4.1.2.2.4.2.6 0 .2-.1.5-.2.6-.1.2-.3.3-.5.4.3.1.5.2.7.5.2.2.2.5.2.8 0 .2-.1.5-.2.7-.1.2-.2.4-.4.5-.2.1-.4.2-.7.2h-2.9v-4.9zm1 .9v1.2h1.4c.2 0 .3-.1.4-.2.1-.1.1-.2.1-.4s0-.3-.1-.4c-.1-.1-.2-.2-.4-.2h-1.4zm0 2v1.3h1.6c.2 0 .3-.1.4-.2.1-.1.1-.2.1-.4s0-.3-.1-.4c-.1-.1-.2-.2-.3-.2s-.4-.1-.9-.1h-.8zm3.9-.3c0-.5.1-.9.2-1.3.1-.3.3-.5.5-.7.2-.2.4-.4.6-.5.3-.1.7-.2 1.1-.2.7 0 1.3.2 1.8.7s.7 1.1.7 1.9c0 .8-.2 1.4-.7 1.9-.4.5-1 .7-1.8.7-.7 0-1.3-.2-1.8-.7-.4-.4-.6-1-.6-1.8zm1-.1c0 .6.1 1 .4 1.3.3.3.6.4 1 .4s.7-.1 1-.4c.3-.3.4-.7.4-1.3 0-.6-.1-1-.4-1.3-.3-.3-.6-.4-1-.4s-.8.1-1 .4-.4.8-.4 1.3zm4.6-2.5h1v3.5c0 .2.1.4.3.5s.4.2.7.2c.3 0 .5-.1.6-.2l.3-.4v-3.7h1v2.6c0 .6 0 1-.1 1.3-.1.2-.2.5-.3.6-.1.2-.3.3-.6.4-.2.1-.6.2-1 .2-.5 0-.8-.1-1.1-.2l-.6-.4-.3-.6c-.1-.3-.1-.7-.1-1.3v-2.5zm5.1 5.1v-5h1l2.1 3.3v-3.3h.9v5h-1l-2-3.3v3.3h-1zm8.2-1.9l1 .3c-.2.5-.4 1-.8 1.2-.3.3-.8.4-1.3.4-.7 0-1.2-.2-1.6-.7-.4-.5-.6-1.1-.6-1.9 0-.8.2-1.5.6-1.9.4-.5 1-.7 1.7-.7.6 0 1.1.2 1.5.5.2.2.4.5.5.9l-1 .2c-.1-.3-.2-.5-.4-.6-.2-.2-.4-.2-.7-.2-.4 0-.7.1-.9.4s-.3.7-.3 1.3c0 .6.1 1.1.3 1.4.2.3.5.4.9.4.3 0 .5-.1.7-.3.2-.1.3-.3.4-.7zm1.9 1.9v-5h3.7v.8h-2.7v1.1h2.5v.8h-2.5v1.4h2.8v.8h-3.8zm4.6-5.1h1.8c.4 0 .7 0 1 .1.3.1.5.2.8.5.2.2.4.5.5.8.1.3.2.7.2 1.2 0 .4-.1.8-.2 1.1-.1.4-.3.7-.5.9-.2.2-.4.3-.7.4-.2.1-.5.1-.9.1h-1.9v-5.1zm1.1.9v3.3h1.4c.2 0 .3-.1.4-.2.1-.1.2-.3.3-.5.1-.2.1-.5.1-.9s0-.7-.1-.9c-.1-.2-.2-.4-.3-.5s-.3-.2-.5-.2h-1.3zM262.8 262.5h-2.2v-8.3c-.8.8-1.7 1.3-2.8 1.7v-2c.6-.2 1.2-.5 1.9-1.1s1.1-1.1 1.4-1.8h1.8v11.5zm-27 3.3h1v3.5c0 .2.1.4.3.5s.4.2.7.2c.3 0 .5-.1.6-.2l.3-.4v-3.7h1v2.6c0 .6 0 1-.1 1.3-.1.2-.2.5-.3.6-.1.2-.3.3-.6.4-.2.1-.6.2-1 .2-.5 0-.8-.1-1.1-.2l-.6-.4-.3-.6c-.1-.3-.1-.7-.1-1.3v-2.5zm5.1 5.1v-5h1l2.1 3.3v-3.3h.9v5h-1l-2-3.3v3.3h-1zm4.8-1.7l1-.1c.1.3.2.6.4.7.2.2.4.2.7.2.3 0 .6-.1.7-.2s.2-.3.2-.5c0-.1 0-.2-.1-.3s-.2-.2-.4-.2c-.1 0-.4-.1-.8-.2-.5-.1-.9-.3-1.1-.5-.3-.3-.5-.6-.5-1 0-.3.1-.5.2-.7.1-.2.4-.4.6-.5s.6-.2 1-.2c.6 0 1.1.1 1.4.4.3.3.5.6.5 1.1h-1c0-.3-.1-.4-.3-.6-.1-.1-.4-.2-.6-.2-.3 0-.5.1-.7.2-.1.1-.2.2-.2.3 0 .1 0 .2.2.3.1.1.4.2.9.3s.9.2 1.1.4c.2.1.4.3.6.5.1.2.2.5.2.8 0 .3-.1.6-.2.8-.2.3-.4.4-.7.6-.3.1-.7.2-1.1.2-.6 0-1.1-.1-1.5-.4s-.4-.6-.5-1.2zm4.9-3.4h1v3.5c0 .2.1.4.3.5s.4.2.7.2c.3 0 .5-.1.6-.2l.3-.4v-3.7h1v2.6c0 .6 0 1-.1 1.3-.1.2-.2.5-.3.6-.1.2-.3.3-.6.4-.2.1-.6.2-1 .2-.5 0-.8-.1-1.1-.2l-.6-.4-.3-.6c-.1-.3-.1-.7-.1-1.3v-2.5zm5.1 0h2.9c.2 0 .4.1.5.2.2.1.3.2.4.4.1.2.2.4.2.6 0 .2-.1.5-.2.6-.1.2-.3.3-.5.4.3.1.5.2.7.5.2.2.2.5.2.8 0 .2-.1.5-.2.7-.1.2-.2.4-.4.5-.2.1-.4.2-.7.2h-2.9v-4.9zm1 .9v1.2h1.4c.2 0 .3-.1.4-.2.1-.1.1-.2.1-.4s0-.3-.1-.4c-.1-.1-.2-.2-.4-.2h-1.4zm0 2v1.3h1.6c.2 0 .3-.1.4-.2.1-.1.1-.2.1-.4s0-.3-.1-.4c-.1-.1-.2-.2-.3-.2s-.4-.1-.9-.1h-.8zm3.8.5l1-.1c.1.3.2.6.4.7.2.2.4.2.7.2.3 0 .6-.1.7-.2s.2-.3.2-.5c0-.1 0-.2-.1-.3s-.2-.2-.4-.2c-.1 0-.4-.1-.8-.2-.5-.1-.9-.3-1.1-.5-.3-.3-.5-.6-.5-1 0-.3.1-.5.2-.7.1-.2.4-.4.6-.5s.6-.2 1-.2c.6 0 1.1.1 1.4.4.3.3.5.6.5 1.1h-1c0-.3-.1-.4-.3-.6-.1-.1-.4-.2-.6-.2-.3 0-.5.1-.7.2-.1.1-.2.2-.2.3 0 .1 0 .2.2.3.1.1.4.2.9.3s.9.2 1.1.4c.2.1.4.3.6.5.1.2.2.5.2.8 0 .3-.1.6-.2.8-.2.3-.4.4-.7.6-.3.1-.7.2-1.1.2-.6 0-1.1-.1-1.5-.4s-.5-.6-.5-1.2zm8.1-.2l1 .3c-.2.5-.4 1-.8 1.2-.3.3-.8.4-1.3.4-.7 0-1.2-.2-1.6-.7-.4-.5-.6-1.1-.6-1.9 0-.8.2-1.5.6-1.9.4-.5 1-.7 1.7-.7.6 0 1.1.2 1.5.5.2.2.4.5.5.9l-1 .2c-.1-.3-.2-.5-.4-.6-.2-.2-.4-.2-.7-.2-.4 0-.7.1-.9.4s-.3.7-.3 1.3c0 .6.1 1.1.3 1.4.2.3.5.4.9.4.3 0 .5-.1.7-.3.2-.1.3-.3.4-.7zm1.9 1.9v-5h2.1c.5 0 .9 0 1.2.1.2.1.4.2.6.5.1.2.2.5.2.8 0 .4-.1.7-.3.9s-.6.4-1 .5c.2.1.4.3.5.4.1.2.3.4.6.8l.6 1h-1.2l-.7-1.1-.5-.7s-.2-.2-.3-.2c-.1 0-.3-.1-.5-.1h-.2v2.1h-1.1zm1-2.9h.7c.5 0 .8 0 .9-.1.1 0 .2-.1.3-.2.1-.1.1-.2.1-.4s0-.3-.1-.4c-.1-.1-.2-.2-.4-.2h-1.5v1.3zm4 2.9v-5h1v5h-1zm2-5.1h2.9c.2 0 .4.1.5.2.2.1.3.2.4.4.1.2.2.4.2.6 0 .2-.1.5-.2.6-.1.2-.3.3-.5.4.3.1.5.2.7.5.2.2.2.5.2.8 0 .2-.1.5-.2.7-.1.2-.2.4-.4.5-.2.1-.4.2-.7.2h-2.9v-4.9zm1 .9v1.2h1.4c.2 0 .3-.1.4-.2.1-.1.1-.2.1-.4s0-.3-.1-.4c-.1-.1-.2-.2-.4-.2h-1.4zm0 2v1.3h1.6c.2 0 .3-.1.4-.2.1-.1.1-.2.1-.4s0-.3-.1-.4c-.1-.1-.2-.2-.3-.2s-.4-.1-.9-.1h-.8zm4 2.2v-5h3.7v.8h-2.7v1.1h2.5v.8h-2.5v1.4h2.8v.8h-3.8z" fill="#2C2F35"/></svg>