<svg xmlns="http://www.w3.org/2000/svg" viewBox="0 0 301.2 345.2" enable-background="new 0 0 301.2 345.2"><path fill="#2C2F35" stroke="#fff" stroke-width="2" stroke-miterlimit="10" d="M1.1 13.2h299v331h-299z"/><path fill="#fff" d="M94.1 148.4c0 1.9 1.2 3.7 3 3.7h188.4c1.9 0 3.6-1.9 3.6-3.7v-32.3h-195v32.3z"/><path d="M101.2 127.3v-3.7h-1.4v-.6h3.3v.5h-1.4v3.7h-.5zm3.3 0l-1.1-4.2h.6l.6 2.8.2.9c.1-.5.2-.7.2-.8l.8-2.9h.7l.6 2.1c.2.5.3 1 .3 1.5l.2-.9.7-2.7h.6l-1.2 4.2h-.5l-.9-3.2c-.1-.3-.1-.4-.1-.5 0 .2-.1.4-.1.5l-.9 3.2h-.7zm4.8 0v-4.3h3.1v.5h-2.5v1.3h2.3v.5h-2.3v1.4h2.6v.5h-3.2zm4 0v-4.3h3.1v.5h-2.5v1.3h2.3v.5h-2.3v1.4h2.6v.5h-3.2zm4.9 0v-3.7h-1.4v-.6h3.3v.5h-1.4v3.7h-.5zm2.4-1.4h.5c0 .2.1.4.2.5s.2.2.4.3.4.1.6.1c.2 0 .4 0 .6-.1.2-.1.3-.2.4-.3s.1-.2.1-.4c0-.1 0-.2-.1-.3-.1-.1-.2-.2-.4-.2-.1 0-.4-.1-.8-.2s-.7-.2-.8-.3c-.2-.1-.4-.2-.5-.4-.1-.2-.1-.3-.1-.5s.1-.4.2-.6c.1-.2.3-.3.5-.4.2-.1.5-.1.8-.1.3 0 .6.1.8.2.2.1.4.2.6.4.1.2.2.4.2.7h-.5c0-.3-.1-.5-.3-.6s-.4-.2-.7-.2c-.3 0-.6.1-.7.2-.2.1-.2.3-.2.4 0 .2.1.3.2.4.1.1.4.2.8.3s.8.2.9.3c.2.1.4.3.5.4s.2.4.2.6c0 .2-.1.4-.2.6-.1.2-.3.4-.6.5-.2.1-.5.2-.8.2-.4 0-.7-.1-1-.2s-.5-.3-.6-.5c-.1-.3-.2-.5-.2-.8zM105.7 146.7v-2.8h-5.7v-2.3l6-8.7h2.2v8.7h1.7v2.3h-1.7v2.8h-2.5zm0-5.1v-4.7l-3.2 4.7h3.2zm11.2 5.1h-2.6v-9.9c-1 .9-2.1 1.6-3.4 2v-2.4c.7-.2 1.4-.7 2.2-1.3.8-.6 1.4-1.4 1.7-2.2h2.1v13.8zm2.9-3.5l2.6-.3c.1.6.3 1.1.7 1.4s.8.5 1.3.5 1-.2 1.4-.7c.4-.4.6-1.1.6-2 0-.8-.2-1.5-.6-1.9-.4-.4-.9-.6-1.5-.6-.8 0-1.4.3-2 1l-2.1-.3 1.3-7.1h7v2.5h-5l-.4 2.3c.6-.3 1.2-.4 1.8-.4 1.2 0 2.2.4 3 1.3.8.8 1.2 2 1.2 3.3 0 1.1-.3 2.1-1 3-.9 1.2-2.1 1.8-3.7 1.8-1.3 0-2.3-.3-3.1-1s-1.4-1.7-1.5-2.8zM150.5 146.7h-2.6v-9.9c-1 .9-2.1 1.6-3.4 2v-2.4c.7-.2 1.4-.7 2.2-1.3.8-.6 1.4-1.4 1.7-2.2h2.1v13.8zm2.8-3.7l2.5-.3c.1.6.3 1.1.7 1.5.4.3.8.5 1.3.5s1-.2 1.4-.6c.4-.4.6-1 .6-1.7s-.2-1.2-.5-1.6c-.4-.4-.8-.6-1.3-.6-.3 0-.7.1-1.2.2l.3-2.1c.7 0 1.3-.1 1.6-.5s.6-.8.6-1.3-.1-.8-.4-1.1c-.3-.3-.6-.4-1.1-.4-.4 0-.8.2-1.2.5s-.5.8-.6 1.4l-2.4-.4c.2-.8.4-1.5.8-2 .3-.5.8-.9 1.4-1.2.6-.3 1.3-.4 2-.4 1.3 0 2.3.4 3.1 1.2.6.7 1 1.4 1 2.3 0 1.2-.7 2.2-2 2.9.8.2 1.4.5 1.9 1.1s.7 1.3.7 2.1c0 1.2-.4 2.2-1.3 3.1s-2 1.3-3.3 1.3c-1.2 0-2.3-.4-3.1-1.1-.9-.7-1.4-1.6-1.5-2.8zm12-3.7c-.7-.3-1.2-.7-1.5-1.2-.3-.5-.5-1.1-.5-1.7 0-1 .4-1.9 1.1-2.5.7-.7 1.7-1 3-1s2.3.3 3 1c.7.7 1.1 1.5 1.1 2.5 0 .6-.2 1.2-.5 1.7s-.8.9-1.4 1.1c.8.3 1.3.8 1.7 1.3.4.6.6 1.3.6 2 0 1.3-.4 2.3-1.2 3.1s-1.9 1.2-3.2 1.2c-1.2 0-2.3-.3-3.1-1-1-.8-1.5-1.8-1.5-3.2 0-.7.2-1.4.6-2 .4-.5 1-1 1.8-1.3zm.3 3.2c0 .7.2 1.3.6 1.7.4.4.8.6 1.4.6.5 0 1-.2 1.3-.6.4-.4.5-1 .5-1.7 0-.6-.2-1.2-.5-1.5-.4-.4-.8-.6-1.4-.6-.6 0-1.1.2-1.4.7-.4.4-.5.9-.5 1.4zm.2-5.9c0 .5.1.9.4 1.2.3.3.7.4 1.2.4s.9-.1 1.2-.4c.3-.3.4-.7.4-1.2s-.1-.9-.4-1.2-.7-.4-1.2-.4-.9.1-1.2.4c-.2.3-.4.7-.4 1.2zM199.3 144.2v2.4h-9.2c.1-.9.4-1.8.9-2.6s1.5-1.9 3-3.3c1.2-1.1 1.9-1.9 2.2-2.2.4-.5.5-1.1.5-1.6 0-.6-.2-1-.5-1.4-.3-.3-.8-.5-1.3-.5s-1 .2-1.3.5c-.3.3-.5.9-.6 1.6l-2.6-.3c.2-1.4.6-2.5 1.5-3.1s1.9-.9 3.1-.9c1.4 0 2.4.4 3.2 1.1.8.7 1.2 1.6 1.2 2.7 0 .6-.1 1.2-.3 1.8-.2.6-.6 1.1-1.1 1.8-.3.4-.9 1-1.7 1.8-.8.8-1.4 1.3-1.6 1.5s-.4.5-.5.7h5.1zm7.5 2.5h-2.6v-9.9c-1 .9-2.1 1.6-3.4 2v-2.4c.7-.2 1.4-.7 2.2-1.3.8-.6 1.4-1.4 1.7-2.2h2.1v13.8zm11.7-2.5v2.4h-9.2c.1-.9.4-1.8.9-2.6s1.5-1.9 3-3.3c1.2-1.1 1.9-1.9 2.2-2.2.4-.5.5-1.1.5-1.6 0-.6-.2-1-.5-1.4-.3-.3-.8-.5-1.3-.5s-1 .2-1.3.5c-.3.3-.5.9-.6 1.6l-2.6-.3c.2-1.4.6-2.5 1.5-3.1s1.9-.9 3.1-.9c1.4 0 2.4.4 3.2 1.1.8.7 1.2 1.6 1.2 2.7 0 .6-.1 1.2-.3 1.8-.2.6-.6 1.1-1.1 1.8-.3.4-.9 1-1.7 1.8-.8.8-1.4 1.3-1.6 1.5s-.4.5-.5.7h5.1zM143.4 127.3v-4.3h2.8v.5h-2.2v1.3h2v.5h-2v1.9h-.6zm3.4-2.1c0-.7.2-1.2.6-1.6s.9-.6 1.5-.6c.4 0 .7.1 1.1.3s.6.4.7.8c.2.3.2.7.2 1.1 0 .4-.1.8-.3 1.1-.2.3-.4.6-.7.8-.3.2-.7.3-1 .3-.4 0-.8-.1-1.1-.3-.3-.2-.5-.5-.7-.8-.2-.4-.3-.7-.3-1.1zm.6 0c0 .5.1.9.4 1.2s.6.4 1 .4.8-.1 1-.4c.3-.3.4-.7.4-1.3 0-.3-.1-.6-.2-.9s-.3-.5-.5-.6-.5-.2-.8-.2c-.4 0-.7.1-1 .4-.2.3-.3.8-.3 1.4zm4.2 2.1v-4.3h.6v3.7h2.1v.5h-2.7zm3.2 0v-4.3h.6v3.7h2.1v.5h-2.7zm3.2-2.1c0-.7.2-1.2.6-1.6s.9-.6 1.5-.6c.4 0 .7.1 1.1.3s.6.4.7.8c.2.3.2.7.2 1.1 0 .4-.1.8-.3 1.1-.2.3-.4.6-.7.8-.3.2-.7.3-1 .3-.4 0-.8-.1-1.1-.3-.3-.2-.5-.5-.7-.8-.2-.4-.3-.7-.3-1.1zm.5 0c0 .5.1.9.4 1.2s.6.4 1 .4.8-.1 1-.4c.3-.3.4-.7.4-1.3 0-.3-.1-.6-.2-.9s-.3-.5-.5-.6-.5-.2-.8-.2c-.4 0-.7.1-1 .4-.1.3-.3.8-.3 1.4zm5 2.1l-1.1-4.2h.6l.6 2.8.2.9c.1-.5.2-.7.2-.8l.8-2.9h.7l.6 2.1c.2.5.3 1 .3 1.5l.2-.9.7-2.7h.6l-1.2 4.2h-.5l-.9-3.2c-.1-.3-.1-.4-.1-.5 0 .2-.1.4-.1.5l-.9 3.2h-.7zm4.9 0v-4.3h.6v4.2h-.6zm1.5 0v-4.3h.6l2.2 3.3v-3.3h.5v4.2h-.6l-2.2-3.3v3.3h-.5zm6.3-1.7v-.5h1.8v1.6c-.3.2-.6.4-.8.5s-.6.2-.9.2c-.4 0-.8-.1-1.1-.3s-.6-.4-.8-.8-.3-.7-.3-1.1c0-.4.1-.8.3-1.2.2-.4.4-.6.7-.8.3-.2.7-.3 1.1-.3.3 0 .6 0 .8.1.2.1.4.2.6.4.1.2.2.4.3.7l-.5.1c-.1-.2-.1-.4-.2-.5-.1-.1-.2-.2-.4-.3-.2-.1-.4-.1-.6-.1-.3 0-.5 0-.7.1l-.5.3-.3.4c-.1.3-.2.5-.2.8 0 .4.1.7.2.9.1.3.3.4.6.6.2.1.5.2.8.2.2 0 .5 0 .7-.1.2-.1.4-.2.5-.3v-.8h-1.1zM190.1 127.3v-4.3h2.8v.5h-2.3v1.3h2v.5h-2v1.9h-.5zm3.4-2.1c0-.7.2-1.2.6-1.6s.9-.6 1.5-.6c.4 0 .7.1 1.1.3s.6.4.7.8c.2.3.2.7.2 1.1 0 .4-.1.8-.3 1.1-.2.3-.4.6-.7.8-.3.2-.7.3-1 .3-.4 0-.8-.1-1.1-.3-.3-.2-.5-.5-.7-.8-.3-.4-.3-.7-.3-1.1zm.5 0c0 .5.1.9.4 1.2s.6.4 1 .4.8-.1 1-.4c.3-.3.4-.7.4-1.3 0-.3-.1-.6-.2-.9s-.3-.5-.5-.6-.5-.2-.8-.2c-.4 0-.7.1-1 .4-.1.3-.3.8-.3 1.4zm4.2 2.1v-4.3h.6v3.7h2.1v.5h-2.7zm3.3 0v-4.3h.6v3.7h2.1v.5h-2.7zm3.1-2.1c0-.7.2-1.2.6-1.6s.9-.6 1.5-.6c.4 0 .7.1 1.1.3s.6.4.7.8c.2.3.2.7.2 1.1 0 .4-.1.8-.3 1.1-.2.3-.4.6-.7.8-.3.2-.7.3-1 .3-.4 0-.8-.1-1.1-.3-.3-.2-.5-.5-.7-.8-.2-.4-.3-.7-.3-1.1zm.6 0c0 .5.1.9.4 1.2s.6.4 1 .4.8-.1 1-.4c.3-.3.4-.7.4-1.3 0-.3-.1-.6-.2-.9s-.3-.5-.5-.6-.5-.2-.8-.2c-.4 0-.7.1-1 .4-.2.3-.3.8-.3 1.4zm4.9 2.1l-1.1-4.3h.6l.6 2.8.2.9c.1-.5.2-.7.2-.8l.8-2.9h.7l.6 2.1c.2.5.3 1 .3 1.5l.2-.9.7-2.7h.6l-1.2 4.2h-.5l-.9-3.2c-.1-.3-.1-.4-.1-.5 0 .2-.1.4-.1.5l-.9 3.2h-.7zm4.9 0v-4.3h3.1v.5h-2.5v1.3h2.3v.5h-2.3v1.4h2.6v.5h-3.2zm3.9 0v-4.3h1.9c.4 0 .7 0 .9.1s.4.2.5.4c.1.2.2.4.2.6 0 .3-.1.6-.3.8-.2.2-.5.3-.9.4.1.1.3.1.3.2.2.1.3.3.5.6l.7 1.1h-.7l-.6-.9c-.2-.3-.3-.4-.4-.6l-.3-.3c-.1-.1-.2-.1-.3-.1h-.9v1.9h-.6zm.5-2.4h1.2c.3 0 .5 0 .6-.1s.3-.1.3-.3c.1-.1.1-.2.1-.4s-.1-.4-.2-.5c-.1-.1-.4-.2-.7-.2h-1.3v1.5zm3.5 1h.5c0 .2.1.4.2.5s.2.2.4.3.4.1.6.1c.2 0 .4 0 .6-.1.2-.1.3-.2.4-.3s.1-.2.1-.4c0-.1 0-.2-.1-.3-.1-.1-.2-.2-.4-.2-.1 0-.4-.1-.8-.2s-.7-.2-.8-.3c-.2-.1-.4-.2-.5-.4-.1-.2-.1-.3-.1-.5s.1-.4.2-.6c.1-.2.3-.3.5-.4.2-.1.5-.1.8-.1.3 0 .6.1.8.2.2.1.4.2.6.4.1.2.2.4.2.7h-.5c0-.3-.1-.5-.3-.6s-.4-.2-.7-.2c-.3 0-.6.1-.7.2-.2.1-.2.3-.2.4 0 .2.1.3.2.4.1.1.4.2.8.3s.8.2.9.3c.2.1.4.3.5.4s.2.4.2.6c0 .2-.1.4-.2.6-.1.2-.3.4-.6.5-.2.1-.5.2-.8.2-.4 0-.7-.1-1-.2s-.5-.3-.6-.5l-.2-.8z" fill="#2C2F35"/><path stroke="#fff" stroke-miterlimit="10" d="M85.6 27.1c0-1.9-1.5-3.4-3.4-3.4h-70.2c-1.9 0-3.4 1.5-3.4 3.4v57.2c0 1.9 1.5 3.4 3.4 3.4h70.2c1.9 0 3.4-1.5 3.4-3.4v-57.2zm0 70c0-1.9-1.5-3.4-3.4-3.4h-70.2c-1.9 0-3.4 1.5-3.4 3.4v86.2c0 1.9 1.5 3.4 3.4 3.4h70.2c1.9 0 3.4-1.5 3.4-3.4v-86.2zm0 103c0-1.9-1.5-3.4-3.4-3.4h-70.2c-1.9 0-3.4 1.5-3.4 3.4v41.2c0 1.9 1.5 3.4 3.4 3.4h70.2c1.9 0 3.4-1.5 3.4-3.4v-41.2zm203-173c0-1.9-1.5-3.4-3.4-3.4h-188.2c-1.9 0-3.4 1.5-3.4 3.4v122.2c0 1.9 1.5 3.4 3.4 3.4h188.2c1.9 0 3.4-1.5 3.4-3.4v-122.2zm0 141c0-1.9-1.5-3.4-3.4-3.4h-188.2c-1.9 0-3.4 1.5-3.4 3.4v161.2c0 1.9 1.5 3.4 3.4 3.4h188.2c1.9 0 3.4-1.5 3.4-3.4v-161.2zm-279.5-131.4h77m-77 13h77m-77 13h77m-77 13h77" fill="none"/><path fill="#fff" d="M79.7 25.6c-.3-.3-.8-.3-1.1 0-.3.3-.3.8 0 1.1l2.6 2.6-2.6 2.6c-.3.3-.3.8 0 1.1.1.2.3.2.5.2s.4-.1.5-.2l3.1-3.1c.1-.1.2-.3.2-.5s-.1-.4-.2-.5l-3-3.3zm0 13c-.3-.3-.8-.3-1.1 0-.3.3-.3.8 0 1.1l2.6 2.6-2.6 2.6c-.3.3-.3.8 0 1.1.1.2.3.2.5.2s.4-.1.5-.2l3.1-3.1c.1-.1.2-.3.2-.5s-.1-.4-.2-.5l-3-3.3zm0 12.9c-.3-.3-.8-.3-1.1 0-.3.3-.3.8 0 1.1l2.6 2.6-2.6 2.6c-.3.3-.3.8 0 1.1.1.2.3.2.5.2s.4-.1.5-.2l3.1-3.1c.1-.1.2-.3.2-.5s-.1-.4-.2-.5l-3-3.3zm0 12.9c-.3-.3-.8-.3-1.1 0-.3.3-.3.8 0 1.1l2.6 2.6-2.6 2.6c-.3.3-.3.8 0 1.1.1.2.3.2.5.2s.4-.1.5-.2l3.1-3.1c.1-.1.2-.3.2-.5s-.1-.4-.2-.5l-3-3.3zm0 12.9c-.3-.3-.8-.3-1.1 0-.3.3-.3.8 0 1.1l2.6 2.6-2.6 2.6c-.3.3-.3.8 0 1.1.1.2.3.2.5.2s.4-.1.5-.2l3.1-3.1c.1-.1.2-.3.2-.5s-.1-.4-.2-.5l-3-3.3zm147.8-41.8c-3.1 1.8-6.5 3.1-10.1 3.9-2.9-3.1-7-5-11.6-5-8.8 0-15.9 7.1-15.9 15.9 0 1.2.1 2.5.4 3.6-13.2-.7-24.9-7-32.8-16.6-1.4 2.4-2.2 5.1-2.2 8 0 5.5 2.8 10.4 7.1 13.2-2.6-.1-5.1-.8-7.2-2v.2c0 7.7 5.5 14.1 12.8 15.6-1.3.4-2.7.6-4.2.6-1 0-2-.1-3-.3 2 6.3 7.9 10.9 14.9 11-5.4 4.3-12.3 6.8-19.8 6.8-1.3 0-2.6-.1-3.8-.2 7 4.5 15.4 7.1 24.4 7.1 29.3 0 45.3-24.2 45.3-45.3v-2.1c3.1-2.2 5.8-5 7.9-8.2-2.9 1.3-5.9 2.1-9.1 2.5 3.2-1.8 5.7-5 6.9-8.7zM102.7 180.7v-7.3h-2.7v-1h6.5v1h-2.7v7.3h-1.1zm5.2 0l-1.8-6h1l.9 3.4.4 1.3c0-.1.1-.5.3-1.2l.9-3.5h1l.9 3.5.3 1.1.3-1.1 1-3.4h1l-1.9 6h-1l-.9-3.6-.2-1-1.2 4.6h-1zm11.3-1.9l1 .1c-.2.6-.5 1.1-.9 1.4s-1 .5-1.7.5c-.9 0-1.6-.3-2.1-.8s-.8-1.3-.8-2.3c0-1 .3-1.8.8-2.3.5-.6 1.2-.8 2-.8s1.4.3 2 .8c.5.5.8 1.3.8 2.3v.3h-4.4c0 .7.2 1.2.6 1.5s.7.5 1.2.5c.4 0 .7-.1.9-.3s.4-.4.6-.9zm-3.3-1.6h3.3c0-.5-.2-.9-.4-1.1-.3-.4-.7-.6-1.3-.6-.5 0-.9.2-1.2.5-.2.3-.4.7-.4 1.2zm9.7 1.6l1 .1c-.2.6-.5 1.1-.9 1.4s-1 .5-1.7.5c-.9 0-1.6-.3-2.1-.8s-.8-1.3-.8-2.3c0-1 .3-1.8.8-2.3.5-.6 1.2-.8 2-.8s1.4.3 2 .8c.5.5.8 1.3.8 2.3v.3h-4.4c0 .7.2 1.2.6 1.5s.7.5 1.2.5c.4 0 .7-.1.9-.3s.4-.4.6-.9zm-3.3-1.6h3.3c0-.5-.2-.9-.4-1.1-.3-.4-.7-.6-1.3-.6-.5 0-.9.2-1.2.5-.2.3-.4.7-.4 1.2zm7.8 2.6l.1.9c-.3.1-.5.1-.8.1-.4 0-.7-.1-.9-.2-.2-.1-.3-.3-.4-.5-.1-.2-.1-.6-.1-1.2v-3.4h-.7v-.8h.7v-1.5l1-.6v2.1h1v.8h-1v3.5c0 .3 0 .5.1.6 0 .1.1.1.2.2l.3.1c.2 0 .3 0 .5-.1zm.6-.8l1-.2c.1.4.2.7.5.9.3.2.6.3 1.1.3.5 0 .8-.1 1-.3.2-.2.3-.4.3-.7 0-.2-.1-.4-.3-.5-.1-.1-.5-.2-1-.3-.7-.2-1.3-.3-1.5-.5-.3-.1-.5-.3-.7-.6-.1-.2-.2-.5-.2-.8 0-.3.1-.5.2-.7.1-.2.3-.4.5-.6l.6-.3c.3-.1.6-.1.9-.1.5 0 .9.1 1.2.2.4.1.6.3.8.5.2.2.3.5.3.9l-1 .1c0-.3-.2-.5-.4-.7-.2-.2-.5-.3-.9-.3-.5 0-.8.1-1 .2s-.3.3-.3.5c0 .1 0 .2.1.4.1.1.2.2.4.3.1 0 .4.1.9.3.7.2 1.2.3 1.5.5.3.1.5.3.7.5.2.2.2.5.2.9 0 .3-.1.7-.3 1-.2.3-.5.5-.8.7-.4.2-.8.2-1.3.2-.8 0-1.4-.2-1.8-.5-.4-.2-.6-.7-.7-1.3z"/><path stroke="#fff" stroke-miterlimit="10" d="M9.1 115.7h77m-77 25h77m-77 24h77" fill="none"/><path fill="#fff" d="M128.1 197.1c0-2.7-2.2-4.9-4.9-4.9h-16.2c-2.7 0-4.9 2.2-4.9 4.9v16.2c0 2.7 2.2 4.9 4.9 4.9h16.2c2.7 0 4.9-2.2 4.9-4.9v-16.2z"/><path stroke="#fff" stroke-width="4" stroke-miterlimit="10" d="M135.1 197.2h35m-35 9h141m-141 9h141" fill="none"/><path fill="#fff" d="M128.1 231.1c0-2.7-2.2-4.9-4.9-4.9h-16.2c-2.7 0-4.9 2.2-4.9 4.9v16.2c0 2.7 2.2 4.9 4.9 4.9h16.2c2.7 0 4.9-2.2 4.9-4.9v-16.2z"/><path stroke="#fff" stroke-width="4" stroke-miterlimit="10" d="M135.1 231.2h35m-35 9h141m-141 8h141" fill="none"/><path fill="#fff" d="M128.1 265.1c0-2.7-2.2-4.9-4.9-4.9h-16.2c-2.7 0-4.9 2.2-4.9 4.9v16.2c0 2.7 2.2 4.9 4.9 4.9h16.2c2.7 0 4.9-2.2 4.9-4.9v-16.2z"/><path stroke="#fff" stroke-width="4" stroke-miterlimit="10" d="M135.1 265.2h35m-35 9h141m-141 8h141" fill="none"/><path fill="#fff" d="M128.1 299.1c0-2.7-2.2-4.9-4.9-4.9h-16.2c-2.7 0-4.9 2.2-4.9 4.9v16.2c0 2.7 2.2 4.9 4.9 4.9h16.2c2.7 0 4.9-2.2 4.9-4.9v-16.2z"/><path stroke="#fff" stroke-width="4" stroke-miterlimit="10" d="M135.1 299.2h35m-35 8h141m-141 9h141" fill="none"/><path fill="#fff" stroke="#fff" stroke-width="2" stroke-miterlimit="10" d="M1.1 1.2h299v12h-299z"/></svg>