<svg xmlns="http://www.w3.org/2000/svg" viewBox="0 0 257 42" enable-background="new 0 0 257 42"><g><path fill="#3FCEED" d="M0 0h257v42h-257z"/><path d="M47.3 16.6c0-.7.1-1.3.3-1.8.2-.3.4-.7.6-.9.3-.3.6-.5.9-.6.4-.2.9-.3 1.5-.3 1 0 1.8.3 2.4.9.6.6.9 1.5.9 2.6s-.3 2-.9 2.6c-.6.6-1.4.9-2.4.9s-1.8-.3-2.4-.9c-.6-.5-.9-1.4-.9-2.5zm1.4 0c0 .8.2 1.4.5 1.8.4.4.8.6 1.4.6s1-.2 1.4-.6.5-1 .5-1.8-.2-1.4-.5-1.8-.8-.6-1.4-.6-1 .2-1.4.6c-.3.4-.5 1-.5 1.8zM55 20v-6.8h2.2c.8 0 1.4 0 1.6.1.4.1.7.3 1 .7.3.3.4.8.4 1.3 0 .4-.1.8-.2 1.1-.2.3-.3.5-.6.7-.2.2-.5.3-.7.3-.3.1-.8.1-1.4.1h-.9v2.5h-1.4zm1.4-5.7v1.9h.8c.5 0 .9 0 1.1-.1.2-.1.3-.2.4-.3.1-.2.2-.3.2-.5s-.1-.5-.2-.6c-.1-.2-.3-.3-.6-.3h-1.7zM61.4 20v-6.8h5.1v1.2h-3.7v1.5h3.4v1.1h-3.4v1.9h3.8v1.1h-5.2zM67.8 20v-6.8h1.3l2.8 4.6v-4.6h1.3v6.8h-1.4l-2.8-4.5v4.5h-1.2zM74.7 20v-6.8h5.1v1.2h-3.8v1.5h3.4v1.1h-3.4v1.9h3.8v1.1h-5.1zM81 13.2h2.5c.6 0 1 0 1.3.1.4.1.7.3 1 .6s.5.7.7 1.1c.1.4.2 1 .2 1.6 0 .6-.1 1-.2 1.5-.2.5-.4.9-.7 1.2-.2.2-.6.4-1 .5-.2.2-.7.2-1.2.2h-2.6v-6.8zm1.4 1.1v4.5h1c.4 0 .7 0 .8-.1l.6-.3c.1-.1.3-.4.4-.7.1-.3.1-.7.1-1.3s0-.9-.1-1.2c-.1-.3-.2-.5-.4-.7-.2-.2-.4-.3-.6-.3-.2 0-.6-.1-1.1-.1h-.7z"/><g fill="#fff"><path d="M138.9 18.8v1.2h-4.6c0-.5.2-.9.4-1.3s.7-1 1.5-1.6c.6-.6 1-.9 1.1-1.1.2-.3.3-.5.3-.8 0-.3-.1-.5-.2-.7-.2-.2-.4-.2-.7-.2-.3 0-.5.1-.7.2-.2.2-.3.4-.3.8l-1.3-.1c.1-.7.3-1.2.7-1.6.4-.3.9-.5 1.5-.5.7 0 1.2.2 1.6.5.4.4.6.8.6 1.4 0 .3-.1.6-.2.9s-.3.6-.5.9c-.2.2-.4.5-.9.9-.4.4-.7.6-.8.8s-.2.2-.3.4h2.8zM140.9 16.3c-.3-.1-.6-.3-.7-.6-.2-.2-.2-.5-.2-.8 0-.5.2-.9.5-1.3.4-.3.9-.5 1.5-.5.7 0 1.2.2 1.5.5s.5.8.5 1.3c0 .3-.1.6-.2.8-.2.2-.4.4-.7.6.4.2.7.4.9.7.2.3.3.6.3 1 0 .6-.2 1.1-.6 1.5-.4.4-.9.6-1.6.6-.6 0-1.1-.2-1.6-.5-.5-.4-.7-.9-.7-1.6 0-.4.1-.7.3-1s.4-.5.8-.7zm.2 1.6c0 .4.1.6.3.8.2.2.4.3.7.3.3 0 .5-.1.7-.3.2-.2.3-.5.3-.8 0-.3-.1-.6-.3-.8-.2-.2-.4-.3-.7-.3-.3 0-.6.1-.7.3s-.3.6-.3.8zm.1-2.9c0 .3.1.5.2.6.1.1.3.2.6.2.2 0 .4-.1.6-.2.1-.1.2-.4.2-.6 0-.2-.1-.4-.2-.6-.1-.1-.3-.2-.6-.2s-.5.1-.6.2-.2.4-.2.6zM148.5 20h-1.3v-4.9c-.5.4-1 .8-1.7 1v-1.2c.3-.1.7-.3 1.1-.6s.7-.7.8-1.1h1.1v6.8z"/></g><g fill="#fff"><path d="M169.7 18.8v1.2h-4.6c0-.5.2-.9.4-1.3s.7-1 1.5-1.6c.6-.6 1-.9 1.1-1.1.2-.3.3-.5.3-.8 0-.3-.1-.5-.2-.7-.2-.2-.4-.2-.7-.2-.3 0-.5.1-.7.2-.2.2-.3.4-.3.8l-1.3-.1c.1-.7.3-1.2.7-1.6.4-.3.9-.5 1.5-.5.7 0 1.2.2 1.6.5.4.4.6.8.6 1.4 0 .3-.1.6-.2.9s-.3.6-.5.9c-.2.2-.4.5-.9.9-.4.4-.7.6-.8.8s-.2.2-.3.4h2.8zM170.6 18.4l1.3-.1c0 .3.1.4.2.6.1.1.3.2.5.2.3 0 .5-.1.7-.4.2-.2.3-.8.4-1.5-.3.4-.7.6-1.2.6s-1-.2-1.4-.6c-.4-.4-.6-1-.6-1.6 0-.7.2-1.3.6-1.7s.9-.6 1.6-.6c.7 0 1.3.3 1.7.8.4.5.7 1.4.7 2.6 0 1.3-.2 2.2-.7 2.7s-1.1.8-1.8.8c-.5 0-1-.1-1.3-.4-.4-.4-.6-.8-.7-1.4zm2.9-2.8c0-.4-.1-.8-.3-1-.2-.2-.4-.3-.7-.3-.2 0-.4.1-.6.3s-.2.5-.2.9.1.8.3 1c.2.2.4.3.7.3.3 0 .5-.1.6-.3.2-.3.2-.5.2-.9zM180.3 14.8l-1.3.2c0-.3-.1-.5-.2-.6-.1-.1-.3-.2-.5-.2-.3 0-.5.1-.7.4s-.3.8-.4 1.6c.3-.4.7-.6 1.2-.6s1 .2 1.4.6c.4.4.6 1 .6 1.6 0 .7-.2 1.3-.6 1.7-.4.4-.9.6-1.6.6-.7 0-1.3-.3-1.7-.8-.4-.5-.7-1.4-.7-2.6 0-1.3.2-2.2.7-2.7.5-.6 1.1-.8 1.8-.8.5 0 1 .1 1.3.4.4.3.6.7.7 1.2zm-3 2.9c0 .4.1.8.3 1s.4.3.7.3c.2 0 .4-.1.6-.3.2-.2.2-.5.2-.9s-.1-.8-.3-1c-.2-.2-.4-.3-.7-.3-.3 0-.5.1-.6.3-.1.2-.2.5-.2.9z"/></g><path d="M47.2 30.5v-3.6h1.1l.6 2.4.6-2.4h1.1v3.6h-.6v-2.8l-.7 2.8h-.7l-.7-2.8v2.8h-.7zM54.6 30.5h-.8l-.3-.8h-1.4l-.3.8h-.8l1.4-3.6h.8l1.4 3.6zm-1.3-1.5l-.5-1.3-.5 1.3h1zM55 30.5v-3.6h.7v3.6h-.7zM56.4 30.5v-3.5h.7v2.9h1.9v.6h-2.6zM61.8 29.1l.7.2c-.1.4-.3.7-.5.9s-.6.3-1 .3c-.5 0-.9-.2-1.2-.5-.3-.3-.5-.8-.5-1.3 0-.6.2-1.1.5-1.4.3-.3.7-.5 1.2-.5.4 0 .8.1 1.1.4.2.2.3.4.4.7l-.8.1c0-.2-.1-.3-.3-.4-.1-.1-.3-.2-.5-.2-.3 0-.5.1-.6.3-.2.2-.2.5-.2.9 0 .5.1.8.2 1s.4.3.6.3c.2 0 .4-.1.5-.2.2-.1.3-.3.4-.6zM63.1 30.5v-3.6h.7v1.4h1.4v-1.4h.7v3.6h-.7v-1.6h-1.4v1.6h-.7zM66.7 30.5v-3.6h.7v3.6h-.7zM68.1 30.5v-3.6h1.1l.6 2.4.6-2.4h1.1v3.6h-.7v-2.8l-.7 2.8h-.7l-.7-2.8v2.8h-.6zM72.2 30.5v-3.6h1.2c.4 0 .7 0 .9.1.2.1.4.2.5.4.1.2.2.4.2.7 0 .2 0 .4-.1.6l-.3.4c-.1.1-.2.1-.4.2-.2 0-.4.1-.7.1h-.5v1.3h-.8zm.8-3v1h.4c.3 0 .5 0 .6-.1.1 0 .2-.1.2-.2.1-.1.1-.2.1-.3 0-.1 0-.2-.1-.3l-.3-.2h-.9z"/><g fill="#fff"><path d="M134.8 30.5v-3h-1.1v-.6h2.8v.6h-1.1v3h-.6zM136.8 28.7c0-.4.1-.7.2-.9l.3-.5c.1-.1.3-.3.5-.3.2-.1.5-.1.8-.1.5 0 .9.2 1.3.5s.5.8.5 1.4c0 .6-.2 1-.5 1.4s-.7.5-1.3.5c-.5 0-1-.2-1.3-.5-.3-.5-.5-.9-.5-1.5zm.7 0c0 .4.1.7.3.9.2.2.4.3.7.3.3 0 .5-.1.7-.3.2-.2.3-.5.3-.9s-.1-.7-.3-.9-.4-.3-.7-.3c-.3 0-.5.1-.7.3s-.3.5-.3.9zM140.8 26.9h1.3c.3 0 .5 0 .7.1.2.1.4.2.5.3.2.2.3.4.3.6s.1.5.1.8c0 .3 0 .5-.1.8-.1.3-.2.5-.4.6-.1.1-.3.2-.5.3-.2.1-.4.1-.6.1h-1.4v-3.6zm.7.6v2.4h.9l.3-.1s.1-.2.2-.3.1-.4.1-.7 0-.5-.1-.6c0-.1-.1-.3-.2-.3l-.3-.2h-.8999999999999999zM147.7 30.5h-.8l-.3-.8h-1.4l-.3.8h-.8l1.4-3.6h.8l1.4 3.6zm-1.4-1.5l-.5-1.3-.5 1.3h1zM148.5 30.5v-1.5l-1.3-2.1h.8l.8 1.4.8-1.4h.8l-1.3 2.1v1.5h-.6z"/></g><g fill="#fff"><path d="M159.3 30.5v-1.5l-1.3-2.1h.8l.8 1.4.8-1.4h.8l-1.2 2.1v1.5h-.7zM161.7 30.5v-3.6h2.7v.6h-1.9v.8h1.8v.6h-1.8v1h2v.6h-2.8zM164.9 29.3l.7-.1c0 .2.1.4.3.5.1.1.3.2.5.2s.4 0 .5-.1.2-.2.2-.3c0-.1 0-.2-.1-.2s-.1-.1-.3-.2c-.1 0-.3-.1-.6-.2-.4-.1-.7-.2-.8-.4-.2-.2-.3-.4-.3-.7 0-.2.1-.4.2-.5.1-.2.3-.3.4-.4s.4-.1.7-.1c.4 0 .8.1 1 .3.2.2.3.5.4.8h-.7c0-.2-.1-.3-.2-.4-.1-.1-.3-.1-.5-.1s-.4 0-.5.1c-.1.1-.1.1-.1.2s0 .2.1.2c.1.1.3.2.7.2.4.1.6.2.8.3.2.1.3.2.4.4.1.2.1.3.1.6 0 .2-.1.4-.2.6-.1.2-.3.3-.5.4s-.5.1-.8.1c-.5 0-.8-.1-1-.3s-.4-.5-.4-.9zM169.2 30.5v-3h-1.1v-.6h2.8v.6h-1.1v3h-.6zM171.4 30.5v-3.6h2.7v.6h-1.9v.8h1.8v.6h-1.8v1h2v.6h-2.8zM174.8 30.5v-3.6h1.5c.4 0 .7 0 .8.1.2.1.3.2.4.3.1.2.2.4.2.6 0 .3-.1.5-.2.7s-.4.3-.7.3c.2.1.3.2.4.3l.4.6.4.7h-.9l-.5-.8c-.2-.3-.3-.5-.4-.5s-.1-.2-.2-.2h-.5v1.5h-.7zm.7-2.1h1.2c.1 0 .2-.1.2-.2s.1-.2.1-.3c0-.1 0-.2-.1-.3s-.2-.1-.3-.1h-1.1v.9zM178.4 26.9h1.3c.3 0 .5 0 .7.1.2.1.4.2.5.3.2.2.3.4.3.6s.1.5.1.8c0 .3 0 .5-.1.8-.1.3-.2.5-.4.6-.1.1-.3.2-.5.3-.2.1-.4.1-.6.1h-1.4v-3.6zm.7.6v2.4h.9l.3-.1s.1-.2.2-.3.1-.4.1-.7 0-.5-.1-.6c0-.1-.1-.3-.2-.3l-.3-.2h-.8999999999999999zM185.2 30.5h-.8l-.3-.8h-1.4l-.3.8h-.8l1.4-3.6h.8l1.4 3.6zm-1.3-1.5l-.5-1.3-.5 1.3h1zM186.1 30.5v-1.5l-1.3-2.1h.8l.8 1.4.8-1.4h.8l-1.3 2.1v1.5h-.6z"/></g><g fill="#fff"><path d="M220.1 14.3v12.2h-2.9v-8c-.5.4-.9.8-1.4 1-.4.3-1 .5-1.7.7v-2.7c1-.4 1.8-.8 2.3-1.3s1-1.1 1.3-1.9h2.4zM223.2 20.4c0-2.3.4-3.9 1.1-4.8.7-.9 1.8-1.4 3.3-1.4.7 0 1.3.1 1.7.3.5.2.8.5 1.1.8s.5.7.7 1c.2.4.3.8.4 1.2.2.9.3 1.8.3 2.8 0 2.2-.3 3.8-1 4.8-.6 1-1.7 1.5-3.3 1.5-.9 0-1.6-.2-2.1-.5s-1-.8-1.3-1.4c-.3-.4-.4-1-.6-1.8-.2-.7-.3-1.5-.3-2.5zm2.9 0c0 1.5.1 2.6.4 3.1.2.6.6.8 1 .8.3 0 .5-.1.8-.4s.4-.6.5-1.1c.1-.5.2-1.3.2-2.4 0-1.6-.1-2.7-.4-3.2-.2-.5-.6-.8-1.1-.8-.5 0-.8.3-1 .8s-.4 1.7-.4 3.2zM234.1 14.5h6.9v2.7h-4.7l-.2 1.8c.3-.2.6-.3 1-.4.3-.1.6-.1.9-.1 1 0 1.9.4 2.5 1.1s1 1.6 1 2.7c0 .8-.2 1.5-.5 2.2-.3.7-.8 1.3-1.4 1.6-.6.4-1.4.6-2.4.6-.7 0-1.3-.1-1.8-.2s-.9-.4-1.3-.7c-.3-.3-.6-.6-.8-1-.2-.4-.4-.8-.5-1.4l2.9-.4c.1.5.2 1 .5 1.2.3.3.6.4.9.4.4 0 .7-.2 1-.5.3-.4.4-.9.4-1.6 0-.7-.1-1.2-.4-1.6-.3-.3-.6-.5-1.1-.5-.3 0-.6.1-.8.2-.2.1-.4.3-.6.6l-2.5-.4 1-6.3zM242.4 16.2c0-.5.1-.9.3-1.1s.5-.4.9-.4.7.1.9.4.3.6.3 1.1c0 .5-.1.9-.3 1.1s-.5.4-.9.4-.7-.1-.9-.4-.3-.6-.3-1.1zm.9 0c0 .4 0 .6.1.8.1.1.2.1.3.1.1 0 .2 0 .3-.1.1-.1.1-.4.1-.8s0-.6-.1-.7c-.1-.1-.2-.1-.3-.1-.1 0-.2 0-.3.1-.1 0-.1.3-.1.7zm1.2 4.5h-.8l3.1-6h.8l-3.1 6zm1.8-1.5c0-.5.1-.9.3-1.1s.5-.4.9-.4.7.1.9.4.3.6.3 1.1c0 .5-.1.9-.3 1.1s-.5.4-.9.4-.7-.1-.9-.4-.3-.6-.3-1.1zm.9 0c0 .4 0 .6.1.7.1.1.2.1.3.1.1 0 .2 0 .3-.1.1-.1.1-.4.1-.8s0-.6-.1-.8c-.1-.1-.2-.1-.3-.1s-.2 0-.3.1c-.1.3-.1.5-.1.9z"/></g><g fill="#fff"><path d="M201.1 21l5.9-7.2 5.9 7.2zM205 20h4v5h-4z"/></g><path fill="#3FCEED" d="M38 29.2v-.30000000000000004c0-.1 0-.2-.1-.2-.1-.2-.1-.3-.3-.4-.1-.1-.2-.2-.4-.3-.1-.1-.3-.1-.4-.1h-.1c.2-.7 0-1.2-.2-1.5.2-.2.3-.3.4-.5.1-.1.2-.3.2-.4l.1-.3v-.2c0-.2 0-.5-.2-.8l-.3-.4c-.1-.1-.3-.3-.5-.4-.4-.6-.8-1-1.2-1.3-.2-.2-.4-.3-.5-.4-.2-.1-.3-.2-.4-.3-.2-.1-.3-.2-.4-.2-.1-.1-.2-.2-.3-.2l-.1-.1v-.8c0-.5.1-1.1.1-1.9v-.8c0-.4-.1-.7-.1-1 0-.1 0-.1-.1-.2v-.1s0-.1-.1-.1v-.1l-.1-.2c-.1-.1-.2-.2-.2-.3 0-.2-.1-.5-.2-.8-.1-.3-.3-.6-.5-.9-.1-.1-.2-.2-.2-.3 0 0 1-1.1 1.8-2.5 1.5-2.5 1-4.1.3-5-.6-.7-1.5-1.1-2.6-1.3-2.2-.3-4.8.8-5.4 1.1l-1.2-1.3c-.1-.1-.2-.2-.4-.3-.1-.1-.3-.2-.4-.2-.2-.8-.5-.9-.9-.9-.7-.1-1.4 0-2.3.2-1.2.3-2.6.9-4.1 1.8-1.5.9-3 2-4.4 3.3-1.8 1.6-3.3 3.4-4.4 5-.5.8-1 1.6-1.3 2.4-.3.8-.5 1.5-.6 2.1-.1.5-.1.9 0 1.4 0 .2.1.4.2.5.1.2.2.4.4.6l1.3 1.3.1.1v.4s0 .1-.1.1v.1s0 .1-.1.1v4.200000000000001l.1.1v.30000000000000004l.1.1s0 .1.1.1l.1.1.1.1.1.1.1.1s.1 0 .1.1c0 0 .1 0 .1.1h.1c.1 0 .1.1.1.1l.2.1h.5c.1 0 .1 0 .2.1h.5l.3.8c1.7 4.7 6.4 8.3 11.7 9 5.3.7 11-2.9 13.3-7.7.1-.2.2-.4.3-.5.2-.2.4-.5.5-.7 1.6.8 1.6.4 1.6.2z"/><path fill="#fff" d="M8.3 27h-.1zM8.3 27.1zM7.9 26.4zM7.8 26.3zM38 29.2v-.30000000000000004c0-.1 0-.2-.1-.2-.1-.2-.1-.3-.3-.4-.1-.1-.2-.2-.4-.3-.1-.1-.3-.1-.4-.1h-.1c.2-.7 0-1.2-.2-1.5.2-.2.3-.3.4-.5.1-.1.2-.3.2-.4l.1-.3v-.2c0-.2 0-.5-.2-.8l-.3-.4c-.1-.1-.3-.3-.5-.4-.4-.6-.8-1-1.2-1.3-.2-.2-.4-.3-.5-.4-.2-.1-.3-.2-.4-.3-.2-.1-.3-.2-.4-.2-.1-.1-.2-.2-.3-.2l-.1-.1v-.8c0-.5.1-1.1.1-1.9v-.8c0-.4-.1-.7-.1-1 0-.1 0-.1-.1-.2v-.1s0-.1-.1-.1v-.1l-.1-.2c-.1-.1-.2-.2-.2-.3 0-.2-.1-.5-.2-.8-.1-.3-.3-.6-.5-.9-.1-.1-.2-.2-.2-.3 0 0 1-1.1 1.8-2.5 1.5-2.5 1-4.1.3-5-.6-.7-1.5-1.1-2.6-1.3-2.2-.3-4.8.8-5.4 1.1l-1.2-1.3c-.1-.1-.2-.2-.4-.3-.1-.1-.3-.2-.4-.2-.2-.8-.5-.9-.9-.9-.7-.1-1.4 0-2.3.2-1.2.3-2.6.9-4.1 1.8-1.5.9-3 2-4.4 3.3-1.8 1.6-3.3 3.4-4.4 5-.5.8-1 1.6-1.3 2.4-.3.8-.5 1.5-.6 2.1-.1.5-.1.9 0 1.4 0 .2.1.4.2.5.1.2.2.4.4.6l1.3 1.3.1.1v.4s0 .1-.1.1v.1s0 .1-.1.1v4.200000000000001l.1.1v.30000000000000004l.1.1s0 .1.1.1l.1.1.1.1.1.1.1.1s.1 0 .1.1c0 0 .1 0 .1.1h.1c.1 0 .1.1.1.1l.2.1h.5c.1 0 .1 0 .2.1h.5l.3.8c1.7 4.7 6.4 8.3 11.7 9 5.3.7 11-2.9 13.3-7.7.1-.2.2-.4.3-.5.2-.2.4-.5.5-.7 1.6.8 1.6.4 1.6.2zm-.9.1c0 .2-.1.4-.2.7l-.3.3-.1.2v.1l-.1.2v.1l-.1.2s0 .1-.1.1c0 0 0 .1-.1.1 0 0-.1.1-.1.2v.1l-.2.3v.1l-.1.2c-.2.3-.4.5-.7.8l-.6.6c-.2.2-.4.4-.7.5l-.4.3-.6.3-.8.4c-.5.2-.9.4-1.4.5-3.8 1.1-7.7.1-8.7-.7l.4.7c-.1 0-.1-.1-.2-.2-.3-.3-.7-.8-1-1.2l-.1-.1-.1-.1-.1-.2-.1-.1-.1-.1v.2c.1.3.3.7.3.8-.2-.2-.4-.5-.5-.8l-.4-.6c0-.1-.1-.1-.1-.1l-.2-.4-.1-.2c0 .4.1.8.2 1v.30000000000000004c.1.1.1.2.1.2-.1-.1-.1-.2-.2-.2l-.1-.1-.1-.2s0-.1-.1-.1l-.1-.1s0-.1-.1-.1l-.1-.1s0-.1-.1-.1l-.1-.1s0-.1-.1-.1l-.1-.1s0-.1-.1-.1l-.1-.2v-.1c-.1-.2-.2-.3-.2-.5v-.1c0-.1 0-.1-.1-.2v-3.600000000000001c0-.1 0-.1.1-.2l.1-.3c.3-.7.7-1.3 1.2-1.7l-.2-.3c-.2-.4-.5-.8-.6-1.2v1.2s-.1-.1-.1-.2c-.2-.6-.5-2.3-.5-2.3-.2.1-.2 1-.2 1l-.2-1.6v-.8999999999999999c0 .1-.1.2-.1.2v.2c-.1.2-.1.3-.1.5v.6000000000000001c0-.1 0-.3-.1-.4v-.1c0-.2 0-.3-.1-.4v-2.3000000000000003l.1-.7v-.2l.2-.6c.1-.4.3-.7.5-1l.3-.5.4-.6.1-.1.1-.1.2-.2.1-.1c.8-.8 1.8-1.4 2.8-1.8l.4-.2c.2-.1.4-.2.6-.2.2-.1.5-.2.7-.2.6-.2 1.3-.3 1.8-.5h.2c.2-.2.4-.3.7-.5.4-.2.8-.4 1.3-.4h.30000000000000004-.1-.1-.1c-.2.1-.5.3-.6.6h.2c.2-.1.7-.3 1.1-.4h.5s-.2.1-.3.1c-.1.1-.2.2-.3.2l.6-.1h.8c.2 0 .4.1.5.1.2.1.4.1.5.2h.1c.1 0 .1.1.1.1h.1s.1 0 .1.1c.1 0 .1.1.2.2l.1.1v.2l.1.1v.1s0 .1.1.1v.1s0 .1.1.1v.1s0 .1.1.1v.30000000000000004c0 .1 0 .1.1.2v.4l.1.1s0 .1.1.1l.1.1.1.2v1.7000000000000002c-.1.8-.1 1.5-.1 1.9-.1 1.3 0 1.5.8 1.9 0 0 .1.1.3.2.4.3 1.3.8 1.9 1.9 0 0 0 .1.1.1l.1.1s.1 0 .1.1c0 0 .1 0 .1.1.1 0 .1.1.1.1.2.3.3.6.3.8-2.6 2.3-5.4 3-7.5 3.1-1.2.1-2.1 0-2.8-.1h-.1c-.2 0-.3 0-.4-.1h-.1c-.2 0-.3 0-.5.1-.3.1-.5.3-.7.5-.2.3-.4.7-.4 1.2 0 .4.1.7.3 1.1 0 0 0 .1.1.1l.1.1c.4.6 1.4 1 2.7 1.1.9.1 1.9.1 3-.1 3.2-.6 4.8-1.6 5.5-2.4.1-.1.1-.1.1-.2.3-.3.4-.5.4-.6v-.30000000000000004h.30000000000000004c.1 0 .2 0 .2.1h.1l.1.1c.7 1.1.6 1.4.6 1.4z"/><path fill="#3FCEED" d="M25 39.5c-.5 0-.9 0-1.4-.1-5.4-.7-10.3-4.4-12-9.2-.1-.2-.2-.4-.2-.6h-.30000000000000004c-.1 0-.2 0-.2-.1h-.1l.1-.2-.1.3h-.2l-.1-.1.2-.4-.2.4-.1-.1h-.1l-.2-.1-.2-.1-.1-.1h-.2s-.1 0-.1-.1c-.1 0-.1-.1-.1-.1-.1 0-.1-.1-.1-.1l-.1-.1-.1-.1-.1-.1s0-.1-.1-.1l-.1-.1-.1-.1v-.1l-.1-.1v-.1l-.9-.9v-1.5000000000000002l-.7-.5v-1.6l.1-.4v-.5c0-.1 0-.1.1-.1v-.1s0-.1.1-.1v-.1s0-.1.1-.1l-1.2-1.2c-.2-.2-.4-.5-.5-.7-.1-.2-.2-.4-.2-.6-.1-.5-.1-1-.1-1.5.1-.7.3-1.5.7-2.3.3-.8.8-1.6 1.3-2.5 1.3-1.8 2.9-3.6 4.6-5.2 1.5-1.3 3-2.5 4.5-3.4 1.5-.9 2.9-1.5 4.2-1.9.9-.2 1.7-.3 2.4-.2.4 0 .8.1 1.1.3l.5.3c.2.1.3.2.4.4l1 1.1c.9-.4 2.7-1.1 4.6-1.1h.8c1.2.1 2.2.6 2.9 1.4.8 1 1.3 2.7-.3 5.5-.6 1-1.3 1.9-1.7 2.3.2.3.4.6.5 1 .1.3.2.5.2.8l.2.3.1.1.1.3v.1s0 .1.1.1v.1c0 .1 0 .2.1.2.1.3.1.7.2 1.1v.8c0 .4-.1.8-.1 1.1 0 .3 0 .6-.1.8v.6s.1.1.2.1l.3.2s.1 0 .1.1l.1.1c.1 0 .2.1.2.2.2.2.4.3.6.4.5.4.9.8 1.2 1.3.2.1.4.3.5.4l.4.6c.1.3.2.6.2 1v.5c0 .1 0 .2-.1.4s-.2.4-.3.5l-.3.3c.1.3.2.6.1 1l.2.1c.2.1.4.2.5.4.1.2.3.4.3.6l.1.3v.30000000000000004c0 .4-.1.8-.2 1.1-.1.3-.3.5-.6.8l-.3.5c-1.7 4.9-6.9 8.2-11.9 8.2zm-12.9-10.4l.3.8c1.6 4.5 6.2 8 11.3 8.7.4.1.8.1 1.2.1 4.6 0 9.5-3.1 11.6-7.5.1-.2.2-.4.3-.5l.1-.1c.2-.2.3-.4.4-.6.1-.2.1-.5.1-.7v-.30000000000000004c0-.1-.1-.2-.2-.3-.1-.1-.2-.1-.2-.2l-.3-.1h-.1c-.1 0-.3-.1-.3-.2-.1-.1-.1-.2-.1-.4.1-.5 0-.9-.1-1.1-.1-.2-.1-.4.1-.5l.4-.4c.1-.1.1-.2.1-.3v-.30000000000000004l-.1-.6-.2-.3c-.1-.1-.2-.2-.4-.3l-.2-.1c-.3-.4-.7-.8-1.1-1.2l-.5-.4c-.1-.1-.2-.1-.2-.2-.1 0-.1-.1-.1-.1-.1-.1-.2-.2-.3-.2-.2-.1-.3-.2-.4-.2-.1 0-.1-.1-.1-.1v-.1c0-.1 0-.1-.1-.2v-1c0-.2 0-.5.1-.8 0-.3 0-.7.1-1.1v-.7c0-.3-.1-.7-.1-.9v-.5s0-.1-.1-.2v-.1l-.2-.3-.1-.2c0-.2-.1-.4-.2-.7-.1-.3-.3-.6-.4-.8l-.2-.3c-.2-.2-.1-.4 0-.6.1-.1 1-1.1 1.8-2.4 1.1-1.8 1.2-3.4.3-4.5-.6-.6-1.3-1-2.3-1.1h-.7c-1.9 0-3.9.9-4.5 1.1-.2.1-.4 0-.5-.1l-1.2-1.3-.3-.3-.3-.2c-.2-.1-.5-.2-.8-.2-.6-.1-1.3 0-2.1.2-1.2.3-2.5.9-4 1.8s-2.9 2-4.4 3.3c-1.7 1.6-3.2 3.3-4.3 4.9-.5.8-1 1.6-1.3 2.3-.3.7-.5 1.4-.6 2-.1.4 0 .9 0 1.2 0 .2.1.3.2.4-.1-.4 0-.2.1-.1l1.4 1.5c.1.1.2.4.1.5l-.1.1s0 .1-.1.1v.1s0 .1-.1.1v.1s0 .1-.1.1v.4l-.5-.1.4.2v.1l-.1.3v.8h-.5.5v1l.1.2v.2l.1.1v.1l.1.3-.1.1.2-.1.1.1.1.2h-.1v.2s0 .1.1.1l.1.2.4.3.1.1.1.1.1.1s.1 0 .1.1c0 0 .1 0 .1.1l.4.2.2.1-.2.4.2-.4.1.1.2.1.2.1.3.1h.1c.1 0 .1 0 .2.1h.5c.2.2.3.3.4.5z"/><path fill="#fff" d="M32.7 16.2zM20.6 34.8z"/><path fill="#654E44" d="M33.3 15.5zM9.8 28.5zM8.3 27.1zM8.3 27.1zM7.6 25.6zM7.5 25.4z"/><path fill="#3FCEED" d="M21.1 11.6c.3-.2.6-.3.8-.4l.2-.1.3-.1h-1.4c.4-.2.8-.3 1.1-.5l.7-.2c.3-.1.6-.1.9-.1h.9c.5 0 .7.1.7.1-.1-.1-.1-.2-.2-.2-.2-.1-.4-.2-.5-.3-.1 0-.1 0-.2-.1h-.1.2.2c.7-.1 1.3 0 1.7.1.5.1.9.2.9.2l-.3-.4-.3-.2.5.1c.4.1.8.3 1.1.4l.3.1h.1c.3.1.4.2.4.2 0-.2-.1-.3-.2-.4l-.1-.1h.2c.1 0 .3.1.5.2h.1l.2.1.2.1s.1 0 .1.1c.1.1.2.1.2.2.1.1.2.1.2.2l.2.2c.1.1.2.2.3.4.1.2.2.3.2.5l.2-.2c.8-1 3.3-4.1 1.8-6-.3-.3-.6-.5-.9-.7-.1 0-.1 0-.2-.1 0 0-.1 0-.1-.1-.3-.1-.6-.2-.9-.2-1.5-.2-3.3.4-4.3.8-.1 0-.1 0-.2.1l-.3.1-.4.2h-.1l-.3-.3-.1-.1-.1-.1v-.1l-1-1.2.1.2-.1-.1-.3.1-.3.1c-.2-.1-.4-.2-.7-.2-.5-.1-1.2 0-1.9.2s-1.6.5-2.5 1c-1.8.9-3.8 2.2-5.7 4-.7.6-1.3 1.2-1.9 1.8-.6.6-1.1 1.2-1.5 1.8-.8 1.2-1.5 2.3-2 3.4-.3.7-.5 1.3-.5 1.9-.1.4 0 .7 0 1l.1.3c.1.2.2.3.3.4l1.2 1.2.1.1.1-.1.1-.1.1-.1.1-.1.1-.1.1-.1h.1l.1-.1.1-.1.1-.1h.1l.1-.1h.1s.1 0 .1-.1h.1s.1 0 .1-.1h.30000000000000004l.2-.1h1.5999999999999999c.2 0 .4 0 .6.1h.1v-.1l.3-.6c.6-1.1 1.3-2 2-2.8l.7-.8c1-1.1 2-1.9 2.9-2.5l.6-.4.8-.5c.4-.3.5-.4.7-.5zM14.2 26.5c-.1-.3-.1-.6-.1-.8v-.1l-.1.1s0 .1-.1.1c-.1.2-.2.6-.2.6v-.7c0-.1 0-.3.1-.4v-.2c0-.1 0-.2.1-.3v-.7l-.1.1-.1.1-.1.1v.1s0 .1-.1.1l-.1.3v.2-.1-.2-.2-.1-.1-.1-.1-.1-.1c0-.1 0-.1.1-.2l.1-.3.1-.3v-.1c0-.1 0-.1.1-.2v-.30000000000000004l.2-.4v-.1l.1-.1.1-.2.2-.3v-.1s-.1-.1-.2-.1c-.1-.1-.3-.2-.6-.3-.1 0-.2-.1-.2-.1l-.3-.1h-.1l-.3-.1h-1.4c-.3 0-.6.1-.8.2l-.3.1h-.2c-.3.1-.5.3-.7.5-.2.2-.4.3-.5.5l-.1.2c.3-.3.3-.2.2-.1-.1.1-.2.3-.2.4l-.1.2c-.1.3-.3.7-.3 1.1v2.100000000000001s0 .1.1.1v.1s0 .1.1.1v.1s0 .1.1.1v.1s0 .1.1.1v.1l.1.1v.1l.1.1.1.1.1.1.1.1.1.1.1.1.1.1.1.1.1.1c.1 0 .1 0 .2.1.1 0 .1 0 .2.1.1 0 .1 0 .2.1h.6000000000000001c.2 0 .4 0 .6.1h.8l.4-.1c.4-.1.7-.2.9-.4 0 0-.1-.6-.2-1.1.8 0 .8 0 .8-.1z"/><path fill="#8F694C" d="M30.9 12.9z"/><path fill="#fff" d="M20.9 8.4l.5-.3c.4-.2.7-.4 1.1-.5l-.2-.2-.3-.2-1.2-1.4v-1l.8-.3 1.6.8v-.6l.3-.6h.1c-.1-.1-.3-.2-.6-.2-.5-.1-1.2 0-1.9.2s-1.6.5-2.5 1c-1.8.9-3.8 2.2-5.7 4-.7.6-1.3 1.2-1.9 1.8-.6.6-1.1 1.2-1.5 1.8-.8 1.2-1.5 2.3-2 3.4-.3.7-.5 1.3-.5 1.9-.1.4 0 .7 0 1l.1.3c.1.2.2.3.3.4l1.2 1.2.1.1.1-.1.1-.1.1-.1.1-.1.1-.1.1-.1h.1l.1-.1.1-.1.1-.1h.1l.1-.1h.1s.1 0 .1-.1h.1c.3-.8.7-1.6 1.2-2.5.7-1.1 1.5-2.2 2.5-3.3.6-.7 1.3-1.4 2.1-2.1 1-.9 1.9-1.7 2.9-2.3.7-.5 1.3-.9 1.9-1.2l.1-.1z"/><path fill="#FBE8CC" d="M32.7 16.2z"/><path fill="#fff" d="M14.1 25.6l-.1.1s0 .1-.1.1c-.1.2-.2.6-.2.6v-.7c0-.1 0-.3.1-.4v-.2c0-.1 0-.2.1-.3v-.7l-.1.1-.1.1-.1.1v.1s0 .1-.1.1l-.1.3v.2-.1-.2-.2-.1-.1-.1-.1-.1-.1c0-.1 0-.1.1-.2l.1-.3.1-.3v-.1c0-.1 0-.1.1-.2v-.30000000000000004h-.1l-.4-.2c-.1 0-.2 0-.3-.1h-.9999999999999999c-.1 0-.1 0-.2.1h-.2s-.1 0-.1.1c0 0-.1 0-.1.1 0 0-.1 0-.1.1h-.1l-.1.1-.1.1-.1.1-.1.1-.2.3c0 .1 0 .1-.1.2v.1c0 .1 0 .1-.1.2v.9c0 .1 0 .2.1.3 0 .1.1.2.1.2l.2.4c.2.3.4.5.7.7.1.1.3.2.5.2.2.1.3.1.5.1h.9l.3-.1h.1c.3-.4.3-.7.3-1z"/><path fill="none" d="M8.3 27.1z"/><path fill="#4E9DD6" d="M23.7 5.5z"/><path fill="#fff" d="M36.2 28.6c-.1-.3-.2-.5-.3-.6-.1-.2-.2-.2-.2-.2v-.4c.1-.5-.1-.9-.2-1.1v-.1c-.1.1-.2.1-.2.2-1.5 1-3.3 1.7-5.1 2-1.3.2-2.6.2-4.1 0 0 0-.8.1-1.1.9l-.1.5c0 .7.4 1.2.7 1.4.4.2.9.3 1.4.3.9.1 2 .1 3.1-.1 1.5-.2 3.5-1 5-2l.9-.7c.3.1.3 0 .2-.1z"/><path fill="#F1D1AB" d="M32.7 16.2zM32.7 16.2z"/><path fill="#fff" d="M24 24.5c.1 0 .1-.1.1-.1l.1-.1.1-.1.1-.1.1-.1.1-.1h.1l.1-.1h.1s.1-.1.2-.1h.1l.2-.1h.1c.1 0 .1 0 .2-.1h.1c.1 0 .1 0 .2-.1h.1c.1 0 .1 0 .2-.1h.1c.1 0 .1 0 .2-.1h.1c.1 0 .1 0 .2-.1h.1s.1 0 .1-.1h.5c.1 0 .1 0 .2-.1h.1c.2-.6.9-2 2.1-2.2h.5v-.3c0-.6.2-1.1.4-1.2.2 0 .4.3.4.4.1.2.1.4.2.7 0 .2 0 .5-.1.7 0 0 0 .1.1.1.3.3.3.8.3 1.1h.8c.3 0 .6 0 1-.1-.2-.1-.3-.2-.3-.2-.8-.5-.9-.6-.8-1.9 0-.5.1-1.1.1-1.9v-1.5000000000000002c-.1-.2-.2-.3-.4-.4h-.2c-.2-.1-.5-.2-.8-.3h-.7l-.6.1-.2.1-.2.1-.2.1-.2.1-.2.1-.2.1c-.1 0-.1 0-.2.1h-1.6l-.6-.1c-.1 0-.2 0-.2-.1l-.4-.1h-.4c-.3 0-.6.1-1 .2h-.1c-.1 0-.1 0-.1.1l-.2.1c-.5.2-.9.5-1.3.8-.2.1-.3.3-.5.5s-.4.5-.6.8l-.3.4-.1.2c-.1.2-.2.4-.2.5v.1l-.1.3c0 .1 0 .2-.1.3v.30000000000000004c0 .2 0 .4-.1.6v.1c.1.3.2.6.4.9.6 1 1.6 1.6 2.3 2 .1-.3.4-.2.7-.1zM21.4 27.7l.1-.3v-.1l.1-.3c.1-.2.2-.4.3-.5l.1-.2.2-.2.2-.2c.1-.1.1-.2.2-.2l.2-.2.1-.1.3-.3c.3-.3.6-.5.7-.5h-.2c-.1 0-.2.1-.4.1-.1 0-.3.1-.5.2-.5.2-1 .5-1.4.8l-.2.1-.3.3-.1.1-.1.2-.1.2c-.3.5-.4 1-.4 1.7v-.6s0-.1.1-.1l.1-.2v-.1l.1-.1.1-.1s0-.1.1-.1l.1-.1s-.6 1.4-.3 2.5v-.7999999999999999s0-.1.1-.1l.1-.1v1.1c0-.4.1-.9.2-1.2.4-.3.5-.4.5-.6zM29.9 22l.2.2c.1.1.1.2 0 .3h.1c.2.1.9.2 1.2-.2v-.1c-.1 0-.1-.1-.1-.3v-.2c.1-.2.2-.3.3-.2v-.1c-.1-.2-.3-.7-1-.6-.8.1-1.1.8-1.2 1v.1c.1 0 .3 0 .5.1z"/><path fill="#3FCEED" d="M14 24l-.2.2-.1.1v.1s0 .1-.1.1l-.1.3v.2-.1-.2-.2-.1-.1-.1-.1-.1-.1c0-.1 0-.1.1-.2l.1-.3.1-.3v-.1c0-.1 0-.1.1-.2v-.30000000000000004h-.1l-.4-.2c-.1 0-.2 0-.3-.1h-.9999999999999999c-.1 0-.1 0-.2.1h-.2s-.1 0-.1.1c0 0-.1 0-.1.1 0 0-.1 0-.1.1h-.1l-.1.1-.1.1-.1.1-.1.1-.2.3c0 .1 0 .1-.1.2v.2s0 .1.1.1l.2.4c0 .1.1.2.1.2.1.1.1.2.2.2v-.1c0-.2-.1-.4-.1-.5v-.3.1c0 .1 0 .1.1.2l.3.6c.1.2.2.3.3.4l-.1-.6v-.4l.1.4c.2.4.3.7.5.9 0 0 0 .1.1.1v-1.1.1.1.1l.1.2c0 .1.1.2.1.2s0 .1.1.1l.1.1s0 .1.1.1l.1.1s0 .1.1.1v-.4c0-.1 0-.3.1-.4v-.2c0-.1 0-.2.1-.3v-.6c.7.5.7.5.7.4zM28.7 30.4h.5c.2 0 .3 0 .5-.1l.9-.2.4-.1.3-.1c.2-.1.4-.1.5-.2.3-.1.4-.2.4-.2s-.2 0-.5.1c-.1 0-.3.1-.5.1-.1 0-.2 0-.3.1-.1 0-.2 0-.4.1-.3 0-.5.1-.9.1h-1c-.7 0-1.4 0-2.2-.2-.4-.1-.9-.3-1.3-.5.2-.8 1.1-.9 1.1-.9h-.6c-.5 0-.8.4-.9.6v.1c-.1.2-.1.4-.1.6 0 .4.1.8.4 1.2.2.2.5.5 1 .6-.4-.2-.7-.7-.7-1.4.4.2.9.3 1.3.4.7-.1 1.4-.1 2.1-.1zM30.6 20.4c.4 0 .7.1.9.3 0-.2.1-.4.1-.7 0-.3-.1-.5-.2-.7 0-.1-.2-.4-.4-.4-.3 0-.5.5-.4 1.2v.3z"/><path fill="#654E44" d="M36.5 24.9zM36.5 24.9zM36.5 24.9z"/><path fill="#fff" d="M24.1 29.8v.7s0 .1.1.1c0 0 0 .1.1.1l.1.1c.4.6 1.4 1 2.7 1.1.9.1 1.9.1 3-.1 3.2-.6 4.8-1.6 5.5-2.4.1-.1.1-.1.1-.2.3-.3.4-.5.4-.6l-.9.7c-1.5 1-3.5 1.8-5 2-1.1.2-2.2.2-3.1.1-.5-.1-1-.2-1.4-.3-.4-.2-.8-.4-1-.6-.3-.4-.4-.8-.4-1.2l.1-.6v-.1c.1-.2.4-.6.9-.6h.6000000000000001c1.4.2 2.8.2 4.1 0 1.9-.3 3.6-1 5.1-2 .1-.1.2-.1.2-.2l.8-1.3c-2.6 2.3-5.4 3-7.5 3.1-1.2.1-2.1 0-2.8-.1h-.1c-.2 0-.3 0-.4-.1h-.1c-.2 0-.3 0-.5.1-.3.1-.5.3-.7.5-.2.3-.4.7-.4 1.2.5.5.5.6.5.6z"/><path fill="#654E44" d="M24.1 29.9zM24.2 30.6zM36.3 28.9zM24.1 30.2zM24.1 29.7zM24.2 30.4zM24.1 30v.2-.2zM36.3 28.9zM24.3 30.7s0-.1-.1-.1c.1 0 .1 0 .1.1zM24.2 30.5v-.1.1zM24.2 30.3v-.1c-.1.1 0 .1 0 .1zM24.2 30.6zM24.2 30.4zM24.1 30.2zM24.3 30.7l.1.2.1.1c.4.6 1.4 1 2.7 1.1.9.1 1.9.1 3-.1 3.2-.6 4.8-1.6 5.5-2.4.1-.1.1-.1.1-.2.3-.3.4-.5.4-.6 0 .1-.2.3-.4.6l-.1.2c-.7.7-2.3 1.8-5.5 2.4-1.1.2-2.1.2-3 .1-1.3-.1-2.2-.5-2.7-1.1l-.1-.1c0-.1 0-.1-.1-.2zM24.1 29.6z"/><path fill="#3FCEED" d="M25.9 17.6c-.1-.1-.2-.1-.3-.1h-1c-.1 0-.1 0-.2.1-.5.2-.9.4-1.1.7-.2.3-.3.5-.4.8v.1c0 .1 0 .1-.1.2l-.1.6v.4c.1-.2.2-.4.3-.5.2-.4.5-.8.8-1 .5-.5 1-.8 1.4-1 .4-.3.7-.3.7-.3zM31.9 17.2c.1.1.2.1.2.2.1.1.2.1.2.2 0 0 0-.4-.2-.7v-.1l-.2-.2c-.2-.1-.5-.2-.8-.1 0 0-.4.1-.7.4-.1 0 .7-.3 1.5.3zM26 22.6c.3-.1.6-.2 1-.3.1-.3.1-.6 0-1-.1-.8-.5-1.5-.8-1.4-.4 0-.6.8-.5 1.6.1.4.2.8.3 1.1z"/><path fill="#fff" d="M24.3 3.9l-.8.2.2 1.4-2-1-.8.3 2.5 2.8c.1 0 .2-.1.2-.1s.1 0 .1-.1l.3-.2-1-1.3 1.7.8.2-.1-.2-1.2.8.9.2-.1h.1l.3-.2-1.8-2.1z"/><path fill="#4E9DD6" d="M23.6 4.1z"/><path fill="#fff" d="M21.3 7.5l-.4-1.8v-1l.8-.3 1.6.8v-.6l.3-.6h.1c-.2 0-.4-.1-.7-.1-.5-.1-1.2 0-1.9.2s-1.6.5-2.5 1c-1.8.9-3.8 2.2-5.7 4-.7.6-1.3 1.2-1.9 1.8l2.3 2.8c.6-.7 1.3-1.4 2-2 1-.9 2-1.7 3-2.4 1.1-.7 2-1.3 3-1.8z"/><path fill="#3FCEED" d="M23.6 4.1l-.3.6v.6l.4.2zM23 5.9l1.7.8-.7.4zM24.7 5.4l.2 1.2.6-.3z"/><path fill="#fff" d="M21.6 9.2c.4-.3.9-.6 1.4-.9l.4-.3.2-.1.1-.1c.1 0 .2-.1.2-.1.1 0 .2-.1.2-.1s.1 0 .1-.1l.3-.2.2-.1c.3-.1.5-.2.7-.3h.1s.1 0 .1-.1h.1c.1 0 .2-.1.2-.1h.1l.3-.1h.2l.3-.1.3-.1 1.5-.6c1.1-.6 1.9-.8 2.5-.8h.3c.3 0 .6 0 .8.1 0 0-.1 0-.1-.1-.3-.1-.6-.2-.9-.2-1.5-.2-3.3.4-4.3.8-.1 0-.1 0-.2.1l-.3.1-.4.2h-.1c.1 0 .1.1 0 .1h-.1l-.2.1-.3.2-.2.1-.2.1-.5.3h-.1l-.3.2s-.1 0-.1.1c-.1 0-.2.1-.2.1l-.6.4c-.4.2-.7.5-1 .7l-.1.1c-.9.7-1.8 1.4-2.6 2.1-.9.8-1.7 1.6-2.5 2.4l-1.1 1.1c-.6.6-.9 1-.9 1.1 0 0 .1 0 .2-.1-.1.1-.2.2-.2.3 1.3-1.4 2.8-2.8 4.3-4.2.4-.5 1.4-1.3 2.4-2z"/></g></svg>