<svg xmlns="http://www.w3.org/2000/svg" viewBox="0 0 257 42" enable-background="new 0 0 257 42"><g><path fill="#3FCEED" d="M0 0h257v42h-257z"/><path d="M47.6 13.2h1.4v3.7c0 .6 0 1 .1 1.1.1.3.2.5.4.7s.5.3.9.3.7-.1.9-.2.3-.4.4-.6c0-.2.1-.6.1-1.2v-3.8h1.2v3.6c0 .8 0 1.4-.1 1.7-.1.3-.2.6-.4.9-.2.2-.5.4-.8.6s-.8.2-1.3.2c-.7 0-1.1-.1-1.5-.2-.3-.2-.6-.3-.8-.6-.2-.2-.3-.5-.4-.8-.1-.4-.1-1-.1-1.7v-3.7zM54.5 20v-6.8h1.3l2.8 4.6v-4.6h1.3v6.8h-1.4l-2.8-4.5v4.5h-1.2zM61.3 20v-6.8h1.4v6.8h-1.4zM69.5 19.1c.3.2.7.4 1.1.6l-.5 1c-.2-.1-.4-.1-.6-.3 0 0-.4-.2-.9-.6-.4.2-.9.3-1.5.3-1.1 0-1.9-.3-2.5-.9-.6-.6-.9-1.5-.9-2.6s.3-2 .9-2.6c.6-.6 1.4-.9 2.4-.9s1.8.3 2.4.9c.6.6.9 1.5.9 2.6 0 .6-.1 1.1-.2 1.6-.1.3-.3.6-.6.9zm-1.1-.7c.2-.2.3-.5.4-.8s.1-.6.1-1c0-.8-.2-1.4-.5-1.8-.3-.4-.8-.6-1.4-.6s-1 .2-1.4.6c-.3.4-.5 1-.5 1.8s.2 1.4.5 1.8c.4.4.8.6 1.3.6.2 0 .4 0 .6-.1-.3-.2-.6-.3-.9-.4l.4-.8c.6.1 1 .4 1.4.7zM71.5 13.2h1.4v3.7c0 .6 0 1 .1 1.1.1.3.2.5.4.7s.5.3.9.3.7-.1.9-.2.3-.4.4-.6c0-.2.1-.6.1-1.2v-3.8h1.4v3.6c0 .8 0 1.4-.1 1.7-.1.3-.2.6-.4.9-.2.2-.5.4-.8.6s-.8.2-1.3.2c-.7 0-1.1-.1-1.5-.2-.3-.2-.6-.3-.8-.6-.2-.2-.3-.5-.4-.8-.1-.4-.1-1-.1-1.7v-3.7zM78.4 20v-6.8h5.1v1.2h-3.7v1.5h3.4v1.1h-3.4v1.9h3.8v1.1h-5.2zM84.4 17.8l1.3-.1c.1.5.2.8.5 1 .2.2.6.3 1 .3s.8-.1 1-.3c.2-.2.3-.4.3-.7 0-.2 0-.3-.1-.4-.1-.1-.3-.2-.5-.3-.2-.1-.5-.2-1.1-.3-.7-.2-1.3-.4-1.6-.7-.4-.4-.6-.8-.6-1.4 0-.3.1-.7.3-1 .2-.3.5-.5.9-.7.4-.2.8-.2 1.3-.2.9 0 1.5.2 1.9.6.4.4.7.9.7 1.5l-1.4.1c-.1-.4-.2-.6-.4-.8s-.5-.2-.9-.2-.7.1-.9.2c-.1.1-.1.3-.1.5s.1.3.2.4c.2.1.6.3 1.3.5.7.2 1.2.3 1.5.5.3.2.6.4.8.7.2.3.3.7.3 1.1 0 .4-.1.8-.3 1.1-.2.3-.5.6-.9.8-.4.2-.9.2-1.5.2-.9 0-1.5-.2-2-.6-.6-.5-.9-1-1-1.8z"/><g fill="#fff"><path d="M133.6 18.2l1.3-.2c0 .3.1.6.3.7.2.2.4.3.6.3.3 0 .5-.1.7-.3.2-.2.3-.5.3-.8 0-.3-.1-.6-.3-.8-.2-.2-.4-.3-.6-.3-.2 0-.4 0-.6.1l.1-1.1c.4 0 .6-.1.8-.2.2-.2.3-.4.3-.7 0-.2-.1-.4-.2-.6s-.3-.2-.5-.2-.4.1-.6.2c-.2.2-.3.4-.3.7l-1.2-.2c.1-.4.2-.7.4-1 .2-.2.4-.4.7-.6.3-.1.6-.2 1-.2.6 0 1.2.2 1.5.6.3.3.5.7.5 1.1 0 .6-.3 1.1-1 1.4.4.1.7.3.9.6.2.3.4.6.4 1.1 0 .6-.2 1.1-.7 1.5-.4.4-1 .6-1.6.6-.6 0-1.1-.2-1.5-.5-.4-.2-.6-.6-.7-1.2zM139 18.3l1.3-.1c0 .3.1.5.3.7s.4.3.6.3c.3 0 .5-.1.7-.3.2-.2.3-.6.3-1s-.1-.7-.3-.9c-.2-.2-.4-.3-.7-.3-.4 0-.7.2-1 .5l-1.1-.2.7-3.6h3.5v1.2h-2.5l-.2 1.2c.3-.1.6-.2.9-.2.6 0 1.1.2 1.5.6.4.4.6 1 .6 1.6 0 .6-.2 1.1-.5 1.5-.4.6-1.1.9-1.9.9-.6 0-1.1-.2-1.5-.5-.4-.4-.6-.9-.7-1.4zM144.6 20v-6.8h1.4v3l2.8-3h1.9l-2.6 2.7 2.7 4.2h-1.8l-1.9-3.2-1.1 1.1v2h-1.4z"/></g><g fill="#fff"><path d="M164.4 18.2l1.3-.2c0 .3.1.6.3.7.2.2.4.3.6.3.3 0 .5-.1.7-.3.2-.2.3-.5.3-.8 0-.3-.1-.6-.3-.8-.2-.2-.4-.3-.6-.3-.2 0-.4 0-.6.1l.1-1.1c.4 0 .6-.1.8-.2.2-.2.3-.4.3-.7 0-.2-.1-.4-.2-.6s-.3-.2-.5-.2-.4.1-.6.2c-.2.2-.3.4-.3.7l-1.2-.2c.1-.4.2-.7.4-1 .2-.2.4-.4.7-.6.3-.1.6-.2 1-.2.6 0 1.2.2 1.5.6.3.3.5.7.5 1.1 0 .6-.3 1.1-1 1.4.4.1.7.3.9.6.2.3.4.6.4 1.1 0 .6-.2 1.1-.7 1.5-.4.4-1 .6-1.6.6-.6 0-1.1-.2-1.5-.5-.4-.2-.6-.6-.7-1.2zM174.2 14.8l-1.3.1c0-.3-.1-.5-.2-.6-.1-.1-.3-.2-.5-.2-.3 0-.5.1-.7.4s-.3.8-.4 1.6c.3-.4.7-.6 1.2-.6s1 .2 1.4.6c.4.4.6 1 .6 1.6 0 .7-.2 1.3-.6 1.7-.4.4-.9.6-1.6.6-.7 0-1.3-.3-1.7-.8-.4-.5-.7-1.4-.7-2.6 0-1.3.2-2.2.7-2.7.5-.6 1.1-.8 1.8-.8.5 0 1 .1 1.3.4.4.4.6.8.7 1.3zm-3 2.9c0 .4.1.8.3 1s.4.3.7.3c.2 0 .4-.1.6-.3.2-.2.2-.5.2-.9s-.1-.8-.3-1c-.2-.2-.4-.3-.7-.3-.3 0-.5.1-.6.3-.1.2-.2.5-.2.9zM175.4 20v-6.8h1.4v3l2.8-3h1.9l-2.6 2.7 2.7 4.2h-1.8l-1.9-3.2-1.1 1.1v2h-1.4z"/></g><path d="M48.9 29.1v-.6h1.6v1.5c-.2.1-.4.3-.7.4s-.6.2-.9.2c-.4 0-.7-.1-1-.2-.3-.2-.5-.4-.6-.7s-.2-.6-.2-1 .1-.7.2-1c.2-.3.4-.5.7-.7.2-.1.5-.2.9-.2s.8.1 1 .3.4.4.5.8l-.7.1c-.1-.2-.1-.3-.3-.4-.1-.1-.3-.2-.5-.2-.3 0-.6.1-.8.3-.2.2-.3.5-.3.9s.1.7.3 1c.2.2.4.3.7.3.2 0 .3 0 .5-.1s.3-.1.4-.2v-.5h-.8zM51 28.7c0-.4.1-.7.2-.9l.3-.5c.1-.1.3-.3.5-.3.2-.1.5-.1.8-.1.5 0 .9.2 1.3.5s.5.8.5 1.4c0 .6-.2 1-.5 1.4s-.7.5-1.3.5c-.5 0-1-.2-1.3-.5-.4-.5-.5-.9-.5-1.5zm.7 0c0 .4.1.7.3.9.2.2.4.3.7.3.3 0 .5-.1.7-.3.2-.2.3-.5.3-.9s-.1-.7-.3-.9-.4-.3-.7-.3c-.3 0-.5.1-.7.3s-.3.5-.3.9zM54.9 28.7c0-.4.1-.7.2-.9l.3-.5c.1-.1.3-.3.5-.3.2-.1.5-.1.8-.1.5 0 .9.2 1.3.5s.5.8.5 1.4c0 .6-.2 1-.5 1.4s-.7.5-1.3.5c-.5 0-1-.2-1.3-.5-.4-.5-.5-.9-.5-1.5zm.7 0c0 .4.1.7.3.9.2.2.4.3.7.3.3 0 .5-.1.7-.3.2-.2.3-.5.3-.9s-.1-.7-.3-.9-.4-.3-.7-.3c-.3 0-.5.1-.7.3s-.3.5-.3.9zM60.6 29.1v-.6h1.6v1.5c-.2.1-.4.3-.7.4s-.6.2-.9.2c-.4 0-.7-.1-1-.2-.3-.2-.5-.4-.6-.7s-.2-.6-.2-1 .1-.7.2-1c.2-.3.4-.5.7-.7.2-.1.5-.2.9-.2s.8.1 1 .3.4.4.5.8l-.7.1c-.1-.2-.1-.3-.3-.4-.1-.1-.3-.2-.5-.2-.3 0-.6.1-.8.3-.2.2-.3.5-.3.9s.1.7.3 1c.2.2.4.3.7.3.2 0 .3 0 .5-.1s.3-.1.4-.2v-.5h-.8zM62.8 30.5v-3.5h.7v2.9h1.8v.6h-2.5zM65.9 30.5v-3.6h2.7v.6h-1.9v.8h1.8v.6h-1.8v1h2v.6h-2.8zM73.6 30.5h-.8l-.3-.8h-1.4l-.3.8h-.8l1.4-3.6h.8l1.4 3.6zm-1.3-1.5l-.5-1.3-.5 1.3h1zM74 30.5v-3.6h.7l1.5 2.4v-2.4h.7v3.6h-.7l-1.4-2.3v2.3h-.8zM80.8 30.5h-.8l-.3-.8h-1.4l-.3.8h-.8l1.4-3.6h.8l1.4 3.6zm-1.3-1.5l-.5-1.3-.5 1.3h1zM81.2 30.5v-3.5h.8v2.9h1.8v.6h-2.6zM84.8 30.5v-1.5l-1.3-2.1h.8l.8 1.4.8-1.4h.8l-1.2 2.1v1.5h-.7zM88 30.5v-3h-1.1v-.6h2.8v.6h-1.1v3h-.6zM90.2 30.5v-3.6h.7v3.6h-.7zM93.9 29.1l.7.2c-.1.4-.3.7-.5.9s-.6.3-1 .3c-.5 0-.9-.2-1.2-.5-.3-.3-.5-.8-.5-1.3 0-.6.2-1.1.5-1.4.3-.3.7-.5 1.2-.5.4 0 .8.1 1.1.4.2.2.3.4.4.7l-.7.1c0-.2-.1-.3-.3-.4-.1-.1-.3-.2-.5-.2-.3 0-.5.1-.6.3-.2.2-.2.5-.2.9 0 .5.1.8.2 1s.4.3.6.3c.2 0 .4-.1.5-.2.1-.1.2-.3.3-.6zM95 29.3l.7-.1c0 .2.1.4.3.5.1.1.3.2.5.2s.4 0 .5-.1.2-.2.2-.3c0-.1 0-.2-.1-.2s-.1-.2-.2-.3c-.1 0-.3-.1-.6-.2-.4-.1-.7-.2-.8-.4-.2-.2-.3-.4-.3-.7 0-.2.1-.4.2-.5.1-.2.3-.3.4-.4s.4-.1.7-.1c.4 0 .8.1 1 .3.2.2.3.5.4.8h-.7c0-.2-.1-.3-.2-.4-.1-.1-.3-.1-.5-.1s-.4 0-.5.1c-.1.1-.1.1-.1.2s0 .2.1.2c.1.1.3.2.7.2.4.1.6.2.8.3.2.1.3.2.4.4.1.2.1.3.1.6 0 .2-.1.4-.2.6-.1.2-.3.3-.5.4s-.5.1-.8.1c-.5 0-.8-.1-1-.3s-.4-.4-.5-.8z"/><g fill="#fff"><path d="M134.8 30.5v-3h-1.1v-.6h2.8v.6h-1.1v3h-.6zM136.8 28.7c0-.4.1-.7.2-.9l.3-.5c.1-.1.3-.3.5-.3.2-.1.5-.1.8-.1.5 0 .9.2 1.3.5s.5.8.5 1.4c0 .6-.2 1-.5 1.4s-.7.5-1.3.5c-.5 0-1-.2-1.3-.5-.3-.5-.5-.9-.5-1.5zm.7 0c0 .4.1.7.3.9.2.2.4.3.7.3.3 0 .5-.1.7-.3.2-.2.3-.5.3-.9s-.1-.7-.3-.9-.4-.3-.7-.3c-.3 0-.5.1-.7.3s-.3.5-.3.9zM140.8 26.9h1.3c.3 0 .5 0 .7.1.2.1.4.2.5.3.2.2.3.4.3.6s.1.5.1.8c0 .3 0 .5-.1.8-.1.3-.2.5-.4.6-.1.1-.3.2-.5.3-.2.1-.4.1-.6.1h-1.4v-3.6zm.7.6v2.4h.9l.3-.1s.1-.2.2-.3.1-.4.1-.7 0-.5-.1-.6c0-.1-.1-.3-.2-.3l-.3-.2h-.8999999999999999zM147.7 30.5h-.8l-.3-.8h-1.4l-.3.8h-.8l1.4-3.6h.8l1.4 3.6zm-1.4-1.5l-.5-1.3-.5 1.3h1zM148.5 30.5v-1.5l-1.3-2.1h.8l.8 1.4.8-1.4h.8l-1.3 2.1v1.5h-.6z"/></g><g fill="#fff"><path d="M159.3 30.5v-1.5l-1.3-2.1h.8l.8 1.4.8-1.4h.8l-1.2 2.1v1.5h-.7zM161.7 30.5v-3.6h2.7v.6h-1.9v.8h1.8v.6h-1.8v1h2v.6h-2.8zM164.9 29.3l.7-.1c0 .2.1.4.3.5.1.1.3.2.5.2s.4 0 .5-.1.2-.2.2-.3c0-.1 0-.2-.1-.2s-.1-.1-.3-.2c-.1 0-.3-.1-.6-.2-.4-.1-.7-.2-.8-.4-.2-.2-.3-.4-.3-.7 0-.2.1-.4.2-.5.1-.2.3-.3.4-.4s.4-.1.7-.1c.4 0 .8.1 1 .3.2.2.3.5.4.8h-.7c0-.2-.1-.3-.2-.4-.1-.1-.3-.1-.5-.1s-.4 0-.5.1c-.1.1-.1.1-.1.2s0 .2.1.2c.1.1.3.2.7.2.4.1.6.2.8.3.2.1.3.2.4.4.1.2.1.3.1.6 0 .2-.1.4-.2.6-.1.2-.3.3-.5.4s-.5.1-.8.1c-.5 0-.8-.1-1-.3s-.4-.5-.4-.9zM169.2 30.5v-3h-1.1v-.6h2.8v.6h-1.1v3h-.6zM171.4 30.5v-3.6h2.7v.6h-1.9v.8h1.8v.6h-1.8v1h2v.6h-2.8zM174.8 30.5v-3.6h1.5c.4 0 .7 0 .8.1.2.1.3.2.4.3.1.2.2.4.2.6 0 .3-.1.5-.2.7s-.4.3-.7.3c.2.1.3.2.4.3l.4.6.4.7h-.9l-.5-.8c-.2-.3-.3-.5-.4-.5s-.1-.2-.2-.2h-.5v1.5h-.7zm.7-2.1h1.2c.1 0 .2-.1.2-.2s.1-.2.1-.3c0-.1 0-.2-.1-.3s-.2-.1-.3-.1h-1.1v.9zM178.4 26.9h1.3c.3 0 .5 0 .7.1.2.1.4.2.5.3.2.2.3.4.3.6s.1.5.1.8c0 .3 0 .5-.1.8-.1.3-.2.5-.4.6-.1.1-.3.2-.5.3-.2.1-.4.1-.6.1h-1.4v-3.6zm.7.6v2.4h.9l.3-.1s.1-.2.2-.3.1-.4.1-.7 0-.5-.1-.6c0-.1-.1-.3-.2-.3l-.3-.2h-.8999999999999999zM185.2 30.5h-.8l-.3-.8h-1.4l-.3.8h-.8l1.4-3.6h.8l1.4 3.6zm-1.3-1.5l-.5-1.3-.5 1.3h1zM186.1 30.5v-1.5l-1.3-2.1h.8l.8 1.4.8-1.4h.8l-1.3 2.1v1.5h-.6z"/></g><g fill="#fff"><path d="M220.1 14.3v12.2h-2.9v-8c-.5.4-.9.8-1.4 1-.4.3-1 .5-1.7.7v-2.7c1-.4 1.8-.8 2.3-1.3s1-1.1 1.3-1.9h2.4zM223.2 20.4c0-2.3.4-3.9 1.1-4.8.7-.9 1.8-1.4 3.3-1.4.7 0 1.3.1 1.7.3.5.2.8.5 1.1.8s.5.7.7 1c.2.4.3.8.4 1.2.2.9.3 1.8.3 2.8 0 2.2-.3 3.8-1 4.8-.6 1-1.7 1.5-3.3 1.5-.9 0-1.6-.2-2.1-.5s-1-.8-1.3-1.4c-.3-.4-.4-1-.6-1.8-.2-.7-.3-1.5-.3-2.5zm2.9 0c0 1.5.1 2.6.4 3.1.2.6.6.8 1 .8.3 0 .5-.1.8-.4s.4-.6.5-1.1c.1-.5.2-1.3.2-2.4 0-1.6-.1-2.7-.4-3.2-.2-.5-.6-.8-1.1-.8-.5 0-.8.3-1 .8s-.4 1.7-.4 3.2zM241.4 26.5h-8.7c.1-1 .4-1.9.9-2.8.5-.9 1.5-1.9 2.8-3.1.8-.7 1.4-1.3 1.6-1.7s.4-.7.4-1.1c0-.4-.1-.7-.4-.9-.2-.3-.5-.4-.9-.4s-.7.1-.9.4c-.2.3-.4.7-.5 1.4l-2.9-.3c.1-.9.3-1.7.6-2.2s.7-.9 1.3-1.2c.6-.3 1.3-.4 2.3-.4 1 0 1.8.1 2.4.4.6.3 1 .7 1.3 1.2s.5 1.2.5 1.9-.2 1.4-.6 2.1c-.4.7-1.1 1.4-2 2.2-.6.5-1 .8-1.2 1l-.7.7h4.5v2.8zM242.4 16.2c0-.5.1-.9.3-1.1s.5-.4.9-.4.7.1.9.4.3.6.3 1.1c0 .5-.1.9-.3 1.1s-.5.4-.9.4-.7-.1-.9-.4-.3-.6-.3-1.1zm.9 0c0 .4 0 .6.1.8.1.1.2.1.3.1.1 0 .2 0 .3-.1.1-.1.1-.4.1-.8s0-.6-.1-.7c-.1-.1-.2-.1-.3-.1-.1 0-.2 0-.3.1-.1 0-.1.3-.1.7zm1.2 4.5h-.8l3.1-6h.8l-3.1 6zm1.8-1.5c0-.5.1-.9.3-1.1s.5-.4.9-.4.7.1.9.4.3.6.3 1.1c0 .5-.1.9-.3 1.1s-.5.4-.9.4-.7-.1-.9-.4-.3-.6-.3-1.1zm.9 0c0 .4 0 .6.1.7.1.1.2.1.3.1.1 0 .2 0 .3-.1.1-.1.1-.4.1-.8s0-.6-.1-.8c-.1-.1-.2-.1-.3-.1s-.2 0-.3.1c-.1.3-.1.5-.1.9z"/></g><g fill="#fff"><path d="M201.1 21l5.9-7.2 5.9 7.2zM205 20h4v5h-4z"/></g><g fill="#fff"><path d="M21.8 21.9l15.8-15.7c-.3-.8-1-1.2-1.8-1.2h-27.9c-1 0-1.9.7-1.9 1.8v17l9.2-8.7 6.6 6.8zM15.2 21.4l-9.2 9.5v3.7c0 1.1.9 2.4 1.9 2.4h27.8c1.1 0 2.2-1.3 2.2-2.4v-20.7l-15.8 15.3-6.9-7.8z"/></g></g></svg>