<svg xmlns="http://www.w3.org/2000/svg" viewBox="0 0 301.2 345.2" enable-background="new 0 0 301.2 345.2"><g><path fill="#2C2F35" stroke="#fff" stroke-width="2" stroke-miterlimit="10" d="M1.1 1.2h299v343h-299z"/><path fill="#fff" d="M1.1 47.2h299v5h-299z"/><g stroke="#fff" stroke-width="4" stroke-miterlimit="10" fill="none"><path d="M86.1 72.2h46M86.1 81.2h191M86.1 89.2h191M86.1 97.2h179"/></g><path fill="#fff" d="M70.9 37.3c.4 0 .8-.1 1.1-.2.3-.1.5-.3.7-.6h.1l.3.7h1.5v-5.9h-2v2.6c0 .7-.1 1.1-.2 1.4-.1.3-.4.4-.7.4-.2 0-.4-.1-.5-.3-.1-.2-.2-.5-.2-.9v-3.2h-2v3.8c0 .7.2 1.2.5 1.6.2.4.7.6 1.4.6zm6.4-2.5c.6.2 1 .4 1.1.5.1.1.2.2.2.3 0 .2-.2.3-.7.3-.3 0-.6 0-1-.1s-.7-.2-1-.3v1.5l1 .3c.3 0 .7.1 1.1.1.8 0 1.4-.2 1.9-.5s.6-.8.6-1.4c0-.3 0-.6-.1-.8-.1-.2-.2-.4-.4-.6-.2-.2-.5-.3-.9-.5-.6-.2-.9-.4-1-.4-.1-.1-.2-.2-.2-.3 0-.2.2-.2.5-.2.2 0 .4 0 .7.1l.9.3.6-1.3c-.4-.2-.7-.3-1.1-.4-.3-.1-.7-.1-1.1-.1-.8 0-1.4.2-1.8.5-.4.3-.6.7-.6 1.3 0 .4.1.8.3 1.1.1.1.5.3 1 .6zm8.2 2.2v-1.5c-.4.1-.7.2-1 .2-.4 0-.6-.2-.6-.6v-2.3h1.4v-1.5h-1.3v-1.2h-1.3l-.5 1.2-1 .7v.8h.7v2.4c0 .7.2 1.2.5 1.5.3.3.8.5 1.5.5.3 0 .6 0 .9-.1.2.1.5 0 .7-.1zm1.8-.8c0 .4.1.6.2.8.2.2.4.3.8.3h.5l.4-.1v-.8c-.2.1-.4.1-.5.1-.2 0-.3-.1-.3-.3v-1.2h.8v-.8h-.8v-.6h-.7l-.3.7-.5.3v.4h.4v1.2zm4.4-.7v1.7h1.1v-2c0-.4-.1-.6-.3-.8-.2-.2-.5-.3-.8-.3-.2 0-.4 0-.5.1l-.4.3h-.1v-1.5h-1.1v4.3h1.1v-1.4c0-.3 0-.6.1-.7.1-.1.2-.2.4-.2.4-.1.5.1.5.5zm4.4-1.1c-.3-.3-.7-.4-1.1-.4-.5 0-.9.1-1.1.4-.3.3-.4.7-.4 1.2s.1.9.4 1.2c.3.3.7.4 1.2.4h.6c.2 0 .4-.1.5-.2v-.8c-.2.1-.4.1-.5.2l-.5.1c-.2 0-.4 0-.5-.1-.1-.1-.2-.2-.2-.4h1.9v-.5c.1-.5-.1-.9-.3-1.1zm-1.6.8c0-.2.1-.3.2-.4.1-.1.2-.1.3-.1.1 0 .2 0 .3.1.1.1.1.2.1.4h-.9zm-24.8 6.9h-2.3v-1.4h2.5v-1.7h-2.5v-7.7h-2v15.2h2v-2.8h2.3v-1.6zm2.3-3.7l-2.7 8.2h2.4l.4-1.5h2.7l.4 1.5h2.4l-2.6-8.2h-3zm.7 4.8c.3-1.3.6-2.1.7-2.6.1-.4.2-.7.2-.9 0 .2.1.5.2 1s.2.9.3 1.1l.4 1.3h-1.8zm8.3-3.1c.3 0 .7 0 1 .1.3.1.6.2.9.4l.7-1.7c-.8-.4-1.6-.6-2.5-.6-.8 0-1.5.2-2.1.5-.6.3-1.1.8-1.4 1.5-.3.6-.5 1.4-.5 2.2 0 1.3.3 2.4 1 3.1.7.7 1.6 1.1 2.8 1.1.9 0 1.6-.2 2.3-.4v-1.9l-1 .4s-.7.2-1.1.2c-1.2 0-1.8-.8-1.8-2.3 0-.8.1-1.3.4-1.8.4-.6.8-.8 1.3-.8zm3.2.1h2v6.3h2.2v-6.3h2v-1.8h-6.2v1.8zm9.8.3c.5 0 1.1.2 1.8.5l.6-1.6c-.8-.4-1.6-.5-2.4-.5-.9 0-1.6.2-2.1.6-.5.4-.8.9-.8 1.6 0 .4.1.7.2 1 .1.3.3.5.6.7.2.2.6.4 1.1.7.5.2.9.4 1 .5.1.1.2.2.3.2.1.1.1.2.1.3 0 .2-.1.3-.2.4-.2.1-.4.1-.7.1-.4 0-.7-.1-1.2-.2-.4-.1-.8-.3-1.2-.5v1.8c.4.2.7.3 1.1.4.3.1.8.1 1.3.1.6 0 1.1-.1 1.6-.3.5-.2.8-.5 1-.8.2-.4.4-.8.4-1.2 0-.5-.1-.9-.4-1.3-.3-.3-.7-.7-1.4-.9-.7-.3-1.1-.5-1.3-.6-.2-.1-.2-.2-.2-.4 0-.1.1-.3.2-.3.1-.2.3-.3.6-.3zm-27.6-9.9c.7 0 1.2-.5 1.2-1.2s-.5-1.2-1.2-1.2-1.2.5-1.2 1.2c0 .6.6 1.2 1.2 1.2z"/><g fill="#3FCEED"><path d="M61.9 9.7c-9.7 0-17.6 7.9-17.6 17.6v24.9h8.9v-12.5h8.8v-8.9h-8.9v-3.6c0-4.8 3.9-8.7 8.7-8.7 4.8 0 8.7 3.9 8.7 8.7h8.9c.1-9.7-7.8-17.5-17.5-17.5zM33 21.8v13c0 4.8-3.9 8.7-8.7 8.7-4.8 0-8.7-3.9-8.7-8.7v-.2h-9v.2c0 9.8 7.9 17.7 17.7 17.7 9.8 0 17.7-7.9 17.7-17.7v-13h-9z"/></g><path fill="#fff" d="M37.6 9.7c2.9 0 5.2 2.3 5.2 5.2s-2.3 5.2-5.2 5.2c-2.9 0-5.2-2.3-5.2-5.2s2.3-5.2 5.2-5.2z"/><g fill="#fff"><path d="M217 13l-1.1.9c.8 1.1 1.3 2.4 1.3 3.8 0 3.4-2.8 6.2-6.2 6.2-2.4 0-4.5-1.4-5.5-3.3l-.5-.7c-.4-.8-.7-1.6-.8-2.5-.1-.9 0-1.8.3-2.7.3-.9.7-1.8 1.3-2.5.1-.1.2-.2.2-.3-1.7 1.4-2.7 3.5-2.7 5.8 0 4.2 3.4 7.6 7.6 7.6 4.2 0 7.6-3.4 7.6-7.6.1-1.8-.5-3.5-1.5-4.7zM205 17.2c.1.8.3 1.6.7 2.3.4.7.9 1.3 1.5 1.7.6.5 1.2.8 1.9 1 .7.2 1.4.2 2.1.2-1.4-.2-2.6-.9-3.3-1.9-.8-1-1-2.2-.9-3.3.2-1.1.8-2 1.6-2.6.4-.3.8-.5 1.3-.6.2 0 .4-.1.7-.1h.6v2.9l6.8-5.6-7-4.4v3.2h-.2c-.1 0-.2 0-.3.1-.2 0-.5.1-.7.2-.4.1-.9.3-1.3.5-.8.4-1.5 1-2.1 1.7-.6.7-1 1.4-1.2 2.2-.2.9-.3 1.7-.2 2.5z"/></g><g fill="#fff"><path d="M285.6 8.4c-4.6 0-8.4 3.8-8.4 8.4 0 4.6 3.8 8.4 8.4 8.4 4.6 0 8.4-3.8 8.4-8.4 0-4.6-3.7-8.4-8.4-8.4zm0 15.5c-3.9 0-7-3.2-7-7 0-3.9 3.2-7 7-7 3.9 0 7 3.2 7 7s-3.1 7-7 7zM285.5 19.6c-.3 0-.6.1-.8.3-.2.2-.3.4-.3.8 0 .3.1.6.3.8.2.2.5.3.8.3.3 0 .6-.1.8-.3.2-.2.3-.4.3-.8 0-.3-.1-.6-.3-.8-.2-.2-.5-.3-.8-.3zM285.9 11.8c-.6 0-1.2.1-1.6.2-.4.2-.8.3-1.2.6l.7 1.3c.1-.1.2-.2.4-.2.1-.1.3-.1.5-.2s.3-.1.5-.1h.5c.4 0 .8.1.9.3.2.2.3.4.3.8 0 .2-.1.5-.2.6l-.4.5-.6.5c-.2.2-.4.4-.5.6-.2.2-.3.5-.4.9-.1.3-.1.3-.1 1.2h1.5s.1-.7.2-.9c.1-.2.3-.5.5-.6.2-.2.4-.4.6-.5l.6-.6c.2-.2.3-.5.5-.8.1-.3.2-.7.2-1.1 0-.7-.2-1.3-.7-1.7-.7-.5-1.3-.8-2.2-.8z"/></g><g fill="#fff"><path d="M235.9 8.4c-4.6 0-8.4 3.8-8.4 8.4 0 4.6 3.8 8.4 8.4 8.4 4.6 0 8.4-3.8 8.4-8.4 0-4.6-3.8-8.4-8.4-8.4zm0 15.5c-3.9 0-7-3.2-7-7 0-3.9 3.2-7 7-7 3.9 0 7 3.2 7 7s-3.1 7-7 7zM239.4 15.9c-.1-.4-.3-.7-.5-1.1l.8-1.1c-.2-.3-.5-.6-.8-.8l-1.1.8c-.3-.2-.7-.3-1.1-.4l-.2-1.3h-1.2l-.2 1.3c-.4.1-.8.2-1.1.5l-1.1-.8c-.3.2-.6.5-.8.8l.8 1.1c-.2.4-.4.8-.5 1.2l-1.3.2v1.1l1.3.2c.1.5.3.9.5 1.3l-.8 1.1c.2.3.5.5.8.8l1.1-.8c.4.2.8.4 1.3.5l.2 1.3h1.1l.3-1.3c.4-.1.9-.3 1.2-.6l1.1.8c.3-.2.5-.5.8-.8l-.8-1.1c.2-.4.4-.8.4-1.2l1.3-.2v-.4c0-.2 0-.5-.1-.7l-1.4-.4zm-3.5 2.4c-.8 0-1.5-.7-1.5-1.5s.6-1.5 1.4-1.5h.1c.8 0 1.5.7 1.5 1.5s-.7 1.5-1.5 1.5z"/></g><g fill="#fff"><path d="M260.8 11.1c-2 0-3.7 1.7-3.7 3.7 0 1.3 1 2.6 1.5 3 .3.3.3 1.1.3 1.1 0 .4.5.9.9.9h2.2c.4 0 .9-.4.9-.9 0 0-.1-.8.3-1.1.5-.5 1.5-1.7 1.5-3-.2-2-1.9-3.7-3.9-3.7zm-.4 1.8c-.7 0-1.6.4-1.6 1.6 0 .2-.2.3-.3.3-.2 0-.3-.2-.3-.3 0-1.4.9-2.3 2.3-2.3.2 0 .3.2.3.3-.1.2-.2.4-.4.4zM260.8 8.4c-4.6 0-8.4 3.8-8.4 8.4 0 4.6 3.8 8.4 8.4 8.4 4.6 0 8.4-3.8 8.4-8.4 0-4.6-3.8-8.4-8.4-8.4zm0 15.5c-3.9 0-7-3.2-7-7 0-3.9 3.2-7 7-7 3.9 0 7 3.2 7 7s-3.2 7-7 7zM262.1 20.5h-2.7c-.2 0-.4.2-.4.3 0 .2.2.3.4.3h2.7c.2 0 .4-.2.4-.3 0-.1-.2-.3-.4-.3zM262.1 21.9h-2.7c-.2 0-.4.2-.4.3 0 .2.2.3.4.3h2.7c.2 0 .4-.2.4-.3 0-.1-.2-.3-.4-.3z"/></g><text transform="matrix(.87 0 0 1 43.658 112.508)" fill="#fff" font-family="'Arial-Black'" font-size="10.181">78</text><text transform="translate(55.474 108.864)" fill="#fff" font-family="'Arial-BoldMT'" font-size="4.859">%</text><path stroke="#fff" stroke-miterlimit="10" d="M50.3 66.2c-13.1 0-23.7 10.6-23.7 23.7 0 8.4 4.4 15.8 11 20l12.7-20 12.7 20c6.6-4.2 11-11.6 11-20 0-13.1-10.6-23.7-23.7-23.7z" fill="none"/><path fill="#2C2F35" stroke="#fff" stroke-width="2" stroke-miterlimit="10" d="M50.1 66.2v4M56.2 66.7l-1 3.9M62 69.1l-2 3.4M67 72.8l-2.9 2.8M70.8 77.7l-3.4 2M73.3 83.5l-3.9 1M74.1 89.6h-4M73.4 95.8l-3.9-1M71.1 101.6l-3.5-2M67.3 106.6l-2.8-2.8M33.6 107l2.8-2.8M29.7 102.1l3.5-2M27.3 96.4l3.8-1.1M26.4 90.2h4M27.1 84l3.9 1M29.4 78.2l3.5 2M33.1 73.2l2.9 2.8M38 69.4l2 3.4M43.8 66.9l1 3.9"/><path fill="#fff" d="M47.4 81.3l22.8-3.3-14 18.3z"/><circle fill="#fff" cx="50.3" cy="89.9" r="12.4"/><path fill="#fff" d="M81.1 140.2c0 1.1-.9 2-2 2h-54c-1.1 0-2-.9-2-2v-10c0-1.1.9-2 2-2h54c1.1 0 2 .9 2 2v10z"/><path fill="#2C2F35" d="M79.1 134.2l-1.6 2.7-1.6-2.7z"/><path fill="#fff" d="M117.1 140.2c0 1.1-.9 2-2 2h-26c-1.1 0-2-.9-2-2v-10c0-1.1.9-2 2-2h26c1.1 0 2 .9 2 2v10z"/><path fill="#2C2F35" d="M115.1 134.2l-1.6 2.7-1.6-2.7z"/><path fill="#fff" d="M217.1 140.2c0 1.1-.9 2-2 2h-11c-1.1 0-2-.9-2-2v-10c0-1.1.9-2 2-2h11c1.1 0 2 .9 2 2v10z"/><path fill="#2C2F35" d="M211.8 130h-4.6c-1 0-1.8.8-1.8 1.9v4.2c0 1 .8 1.9 1.8 1.9h1.3s.3 1.2-.8 2c1.2.2 2.5-.6 2.5-2h1.6c1 0 1.8-.8 1.8-1.9v-4.2c0-1-.8-1.9-1.8-1.9zm-2.9 6.2c0-.2.1-.3.2-.4.1-.1.2-.2.4-.2s.3.1.4.2c.1.1.2.2.2.4s-.1.3-.2.4c-.1.1-.3.2-.4.2-.2 0-.3-.1-.4-.2-.2-.1-.2-.2-.2-.4zm2.1-2.9c-.1.2-.1.3-.2.4l-.3.3-.3.3c-.1.1-.2.2-.2.3-.1.1-.1.5-.1.5h-.9v-.7c0-.2.1-.3.2-.5l.3-.3.3-.3c.1-.1.2-.2.2-.3.1-.1.1-.2.1-.3 0-.2 0-.3-.1-.4-.1-.1-.3-.2-.5-.2h-.2c-.1 0-.2 0-.3.1l-.3.1c-.1 0-.2.1-.2.1l-.4-.7.6-.3c.2-.1.5-.1.9-.1.5 0 .8.1 1.1.3.3.2.4.5.4.9s0 .6-.1.8z"/><path fill="#fff" d="M259.1 140.2c0 1.1-.9 2-2 2h-11c-1.1 0-2-.9-2-2v-10c0-1.1.9-2 2-2h11c1.1 0 2 .9 2 2v10z"/><g fill="#2C2F35"><path d="M250.1 131.3h1.2v7h-1.2zM252.1 132.9h1.2v5.4h-1.2zM248 132.9h1.2v5.4h-1.2zM254.2 129.6h1.2v8.7h-1.2zM255.8 139.1h-.8v-.4h-.4v.4h-1.7v-.4h-.4v.4h-1.6v-.4h-.4v.4h-1.7v-.4h-.4v.4h-1.2v.4h1.2v.5h.4v-.5h1.7v.5h.4v-.5h1.6v.5h.4v-.5h1.7v.5h.4v-.5h.8z"/></g><path fill="#fff" d="M280.1 140.2c0 1.1-.9 2-2 2h-11c-1.1 0-2-.9-2-2v-10c0-1.1.9-2 2-2h11c1.1 0 2 .9 2 2v10z"/><g fill="#2C2F35"><path d="M269.9 136.4l.9-.2-.2.8.9-.1-.3 1 .4.3 3.8-3.8-1.8-1.7zM276 132.7l-.7-.7c-.3-.3-.8-.3-1.1 0l-.3.3 1.7 1.7.3-.3c.4-.2.4-.7.1-1zM270.9 137.4l-.9.2.3-.8-1 .2-.7 2.4 2.5-.7-.5-.2z"/></g><path fill="#fff" d="M238.1 140.2c0 1.1-.9 2-2 2h-11c-1.1 0-2-.9-2-2v-10c0-1.1.9-2 2-2h11c1.1 0 2 .9 2 2v10z"/><g fill="#2C2F35"><path d="M230.1 135l-3.7-2.2v1.2h-1.7v2.2h1.7v1zM234.6 133.8v-1l-3.7 2.2 3.7 2.2v-1.2h1.7v-2.2zM230.4 137.9c-.9 0-1.8-.5-2.3-1.3l-.7.4c.6 1 1.7 1.7 3 1.7s2.4-.7 3-1.8l-.7-.4c-.4.8-1.3 1.4-2.3 1.4zM230.4 132.1c1 0 1.8.5 2.3 1.3l.7-.4c-.6-1.1-1.7-1.8-3-1.8-1.2 0-2.3.7-3 1.7l.7.4c.5-.7 1.4-1.2 2.3-1.2z"/></g></g></svg>