<svg xmlns="http://www.w3.org/2000/svg" viewBox="0 0 301.2 345.2" enable-background="new 0 0 301.2 345.2"><path stroke="#3FCEED" stroke-width="4" stroke-miterlimit="10" d="M81.1 66.2h102v92h-102z" fill="none"/><path fill="#3FCEED" d="M148.1 119.2h-29v30h9.9l4.6 6.4 4.7-6.4h9.8z"/><path fill="#fff" stroke="#000" stroke-miterlimit="10" d="M125.6 125.7h16v17h-16z"/><path stroke="#3FCEED" stroke-width="4" stroke-miterlimit="10" d="M188.1 66.2h102v92h-102z" fill="none"/><path fill="#3FCEED" d="M255.1 119.2h-29v30h9.9l4.6 6.4 4.7-6.4h9.8z"/><path fill="#fff" stroke="#000" stroke-miterlimit="10" d="M232.6 125.7h16v17h-16z"/><path stroke="#3FCEED" stroke-width="4" stroke-miterlimit="10" d="M81.1 163.2h102v92h-102z" fill="none"/><path fill="#3FCEED" d="M148.1 216.2h-29v30h9.9l4.6 6.4 4.7-6.4h9.8z"/><path fill="#fff" stroke="#000" stroke-miterlimit="10" d="M125.6 222.7h16v17h-16z"/><path stroke="#3FCEED" stroke-width="4" stroke-miterlimit="10" d="M188.1 163.2h102v92h-102z" fill="none"/><path fill="#3FCEED" d="M255.1 216.2h-29v30h9.9l4.6 6.4 4.7-6.4h9.8z"/><path fill="#fff" stroke="#000" stroke-miterlimit="10" d="M232.6 222.7h16v17h-16z"/></svg>