<svg xmlns="http://www.w3.org/2000/svg" viewBox="0 0 257 42" enable-background="new 0 0 257 42"><g><path fill="#3FCEED" d="M0 0h257v42h-257z"/><path d="M47.6 20v-6.8h4.7v1.2h-3.3v1.6h2.9v1.2h-2.9v2.8h-1.4zM53.1 16.6c0-.7.1-1.3.3-1.8.2-.3.4-.7.6-.9.3-.3.6-.5.9-.6.4-.2.9-.3 1.5-.3 1 0 1.8.3 2.4.9.6.6.9 1.5.9 2.6s-.3 2-.9 2.6c-.6.6-1.4.9-2.4.9s-1.8-.3-2.4-.9c-.6-.5-.9-1.4-.9-2.5zm1.5 0c0 .8.2 1.4.5 1.8.4.4.8.6 1.4.6s1-.2 1.4-.6.5-1 .5-1.8-.2-1.4-.5-1.8-.8-.6-1.4-.6-1 .2-1.4.6c-.4.4-.5 1-.5 1.8zM60.9 20v-6.8h1.4v5.6h3.4v1.2h-4.8zM66.7 20v-6.8h1.4v5.6h3.4v1.2h-4.8zM72.2 16.6c0-.7.1-1.3.3-1.8.2-.3.4-.7.6-.9.3-.3.6-.5.9-.6.4-.2.9-.3 1.5-.3 1 0 1.8.3 2.4.9.6.6.9 1.5.9 2.6s-.3 2-.9 2.6c-.6.6-1.4.9-2.4.9s-1.8-.3-2.4-.9c-.6-.5-.9-1.4-.9-2.5zm1.5 0c0 .8.2 1.4.5 1.8.4.4.8.6 1.4.6s1-.2 1.4-.6.5-1 .5-1.8-.2-1.4-.5-1.8-.8-.6-1.4-.6-1 .2-1.4.6c-.4.4-.5 1-.5 1.8zM80.9 20l-1.6-6.8h1.4l1 4.7 1.2-4.7h1.6l1.2 4.8 1-4.8h1.4l-1.5 6.8h-1.5l-1.4-5.1-1.3 5.1h-1.5zM89 20v-6.8h5.1v1.2h-3.7v1.5h3.4v1.1h-3.4v1.9h3.8v1.1h-5.2zM95.4 20v-6.8h2.9c.7 0 1.3.1 1.6.2s.6.3.8.7c.2.3.3.7.3 1.1 0 .5-.2.9-.5 1.3-.3.3-.8.5-1.4.6.3.2.5.4.7.6.2.2.5.6.8 1.1l.8 1.3h-1.7l-1-1.5c-.4-.5-.6-.9-.7-1l-.4-.3c-.1-.1-.4-.1-.7-.1h-.3v2.8h-1.2zm1.3-3.9h1c.7 0 1.1 0 1.2-.1s.3-.2.4-.3c.1-.1.1-.3.1-.5s-.1-.4-.2-.6-.3-.2-.5-.3h-2.1v1.8zM101.9 17.8l1.3-.1c.1.5.2.8.5 1 .2.2.6.3 1 .3s.8-.1 1-.3c.2-.2.3-.4.3-.7 0-.2 0-.3-.1-.4-.1-.1-.3-.2-.5-.3-.2-.1-.5-.2-1.1-.3-.7-.2-1.3-.4-1.6-.7-.4-.4-.6-.8-.6-1.4 0-.3.1-.7.3-1 .2-.3.5-.5.9-.7.4-.2.8-.2 1.3-.2.9 0 1.5.2 1.9.6.4.4.7.9.7 1.5l-1.4.1c-.1-.4-.2-.6-.4-.8s-.5-.2-.9-.2-.7.1-.9.2c-.1.1-.2.2-.2.4s.1.3.2.4c.2.1.6.3 1.3.5.7.2 1.2.3 1.5.5.3.2.6.4.8.7.2.3.3.7.3 1.1 0 .4-.1.8-.3 1.1-.2.3-.5.6-.9.8-.4.2-.9.2-1.5.2-.9 0-1.5-.2-2-.6-.5-.4-.8-.9-.9-1.7z"/><g fill="#fff"><path d="M138.9 18.8v1.2h-4.6c0-.5.2-.9.4-1.3s.7-1 1.5-1.6c.6-.6 1-.9 1.1-1.1.2-.3.3-.5.3-.8 0-.3-.1-.5-.2-.7-.2-.2-.4-.2-.7-.2-.3 0-.5.1-.7.2-.2.2-.3.4-.3.8l-1.3-.1c.1-.7.3-1.2.7-1.6.4-.3.9-.5 1.5-.5.7 0 1.2.2 1.6.5.4.4.6.8.6 1.4 0 .3-.1.6-.2.9s-.3.6-.5.9c-.2.2-.4.5-.9.9-.4.4-.7.6-.8.8s-.2.2-.3.4h2.8zM143.1 20h-1.3v-4.9c-.5.4-1 .8-1.7 1v-1.2c.3-.1.7-.3 1.1-.6s.7-.7.8-1.1h1.1v6.8zM149.5 18.8v1.2h-4.6c0-.5.2-.9.4-1.3s.7-1 1.5-1.6c.6-.6 1-.9 1.1-1.1.2-.3.3-.5.3-.8 0-.3-.1-.5-.2-.7-.2-.2-.4-.2-.7-.2-.3 0-.5.1-.7.2-.2.2-.3.4-.3.8l-1.3-.1c.1-.7.3-1.2.7-1.6.4-.3.9-.5 1.5-.5.7 0 1.2.2 1.6.5.4.4.6.8.6 1.4 0 .3-.1.6-.2.9s-.3.6-.5.9c-.2.2-.4.5-.9.9-.4.4-.7.6-.8.8s-.2.2-.3.4h2.8z"/></g><g fill="#fff"><path d="M168.6 20h-1.3v-4.9c-.5.4-1 .8-1.7 1v-1.2c.3-.1.7-.3 1.1-.6s.7-.7.8-1.1h1.1v6.8zM170.5 14.5v-1.2h4.5v1c-.4.4-.7.9-1.1 1.6-.4.7-.7 1.4-.9 2.2-.2.8-.3 1.5-.3 2.1h-1.3c0-.9.2-1.9.6-2.9.4-1 .9-1.9 1.5-2.6h-3zM178.1 13.1c.7 0 1.2.2 1.6.7.4.6.7 1.5.7 2.8 0 1.3-.2 2.2-.7 2.8-.4.5-.9.7-1.5.7-.7 0-1.2-.3-1.6-.8s-.6-1.4-.6-2.7c0-1.3.2-2.2.7-2.8.2-.4.7-.7 1.4-.7zm0 1.1c-.2 0-.3.1-.4.2-.1.1-.2.3-.3.5-.1.3-.1.9-.1 1.7s0 1.4.1 1.7.2.5.3.6.3.1.4.1c.2 0 .3-.1.4-.2.1-.1.2-.3.3-.5.1-.3.1-.9.1-1.7s0-1.4-.1-1.7c-.1-.3-.2-.5-.3-.6l-.4-.1z"/></g><path d="M48.1 30.5v-3h-1.1v-.6h2.8v.6h-1.1v3h-.6zM50.8 30.5l-.8-3.6h.7l.5 2.5.7-2.5h.9l.6 2.5.5-2.5h.7l-.9 3.6h-.7l-.7-2.7-.7 2.7h-.8zM55 30.5v-3.6h.7v3.6h-.7zM57.2 30.5v-3h-1.1v-.6h2.9v.6h-1.1v3h-.7zM60.3 30.5v-3h-1.1v-.6h2.8v.6h-1v3h-.7zM62.5 30.5v-3.6h2.7v.6h-1.9v.8h1.7v.6h-1.8v1h2v.6h-2.7zM65.9 30.5v-3.6h1.5c.4 0 .7 0 .8.1.2.1.3.2.4.3.1.2.2.4.2.6 0 .3-.1.5-.2.7s-.4.3-.7.3c.2.1.3.2.4.3l.4.6.4.7h-.9l-.5-.8c-.2-.3-.3-.5-.4-.5s-.1-.2-.2-.2h-.5v1.5h-.7zm.7-2.1h1.2c.1 0 .2-.1.2-.2v-.3c0-.1 0-.2-.1-.3s-.2-.1-.3-.1h-1.1v.9z"/><g fill="#fff"><path d="M134.8 30.5v-3h-1.1v-.6h2.8v.6h-1.1v3h-.6zM136.8 28.7c0-.4.1-.7.2-.9l.3-.5c.1-.1.3-.3.5-.3.2-.1.5-.1.8-.1.5 0 .9.2 1.3.5s.5.8.5 1.4c0 .6-.2 1-.5 1.4s-.7.5-1.3.5c-.5 0-1-.2-1.3-.5-.3-.5-.5-.9-.5-1.5zm.7 0c0 .4.1.7.3.9.2.2.4.3.7.3.3 0 .5-.1.7-.3.2-.2.3-.5.3-.9s-.1-.7-.3-.9-.4-.3-.7-.3c-.3 0-.5.1-.7.3s-.3.5-.3.9zM140.8 26.9h1.3c.3 0 .5 0 .7.1.2.1.4.2.5.3.2.2.3.4.3.6s.1.5.1.8c0 .3 0 .5-.1.8-.1.3-.2.5-.4.6-.1.1-.3.2-.5.3-.2.1-.4.1-.6.1h-1.4v-3.6zm.7.6v2.4h.9l.3-.1s.1-.2.2-.3.1-.4.1-.7 0-.5-.1-.6c0-.1-.1-.3-.2-.3l-.3-.2h-.8999999999999999zM147.7 30.5h-.8l-.3-.8h-1.4l-.3.8h-.8l1.4-3.6h.8l1.4 3.6zm-1.4-1.5l-.5-1.3-.5 1.3h1zM148.5 30.5v-1.5l-1.3-2.1h.8l.8 1.4.8-1.4h.8l-1.3 2.1v1.5h-.6z"/></g><g fill="#fff"><path d="M159.3 30.5v-1.5l-1.3-2.1h.8l.8 1.4.8-1.4h.8l-1.2 2.1v1.5h-.7zM161.7 30.5v-3.6h2.7v.6h-1.9v.8h1.8v.6h-1.8v1h2v.6h-2.8zM164.9 29.3l.7-.1c0 .2.1.4.3.5.1.1.3.2.5.2s.4 0 .5-.1.2-.2.2-.3c0-.1 0-.2-.1-.2s-.1-.1-.3-.2c-.1 0-.3-.1-.6-.2-.4-.1-.7-.2-.8-.4-.2-.2-.3-.4-.3-.7 0-.2.1-.4.2-.5.1-.2.3-.3.4-.4s.4-.1.7-.1c.4 0 .8.1 1 .3.2.2.3.5.4.8h-.7c0-.2-.1-.3-.2-.4-.1-.1-.3-.1-.5-.1s-.4 0-.5.1c-.1.1-.1.1-.1.2s0 .2.1.2c.1.1.3.2.7.2.4.1.6.2.8.3.2.1.3.2.4.4.1.2.1.3.1.6 0 .2-.1.4-.2.6-.1.2-.3.3-.5.4s-.5.1-.8.1c-.5 0-.8-.1-1-.3s-.4-.5-.4-.9zM169.2 30.5v-3h-1.1v-.6h2.8v.6h-1.1v3h-.6zM171.4 30.5v-3.6h2.7v.6h-1.9v.8h1.8v.6h-1.8v1h2v.6h-2.8zM174.8 30.5v-3.6h1.5c.4 0 .7 0 .8.1.2.1.3.2.4.3.1.2.2.4.2.6 0 .3-.1.5-.2.7s-.4.3-.7.3c.2.1.3.2.4.3l.4.6.4.7h-.9l-.5-.8c-.2-.3-.3-.5-.4-.5s-.1-.2-.2-.2h-.5v1.5h-.7zm.7-2.1h1.2c.1 0 .2-.1.2-.2s.1-.2.1-.3c0-.1 0-.2-.1-.3s-.2-.1-.3-.1h-1.1v.9zM178.4 26.9h1.3c.3 0 .5 0 .7.1.2.1.4.2.5.3.2.2.3.4.3.6s.1.5.1.8c0 .3 0 .5-.1.8-.1.3-.2.5-.4.6-.1.1-.3.2-.5.3-.2.1-.4.1-.6.1h-1.4v-3.6zm.7.6v2.4h.9l.3-.1s.1-.2.2-.3.1-.4.1-.7 0-.5-.1-.6c0-.1-.1-.3-.2-.3l-.3-.2h-.8999999999999999zM185.2 30.5h-.8l-.3-.8h-1.4l-.3.8h-.8l1.4-3.6h.8l1.4 3.6zm-1.3-1.5l-.5-1.3-.5 1.3h1zM186.1 30.5v-1.5l-1.3-2.1h.8l.8 1.4.8-1.4h.8l-1.3 2.1v1.5h-.6z"/></g><g fill="#fff"><path d="M220.1 14.3v12.2h-2.9v-8c-.5.4-.9.8-1.4 1-.4.3-1 .5-1.7.7v-2.7c1-.4 1.8-.8 2.3-1.3s1-1.1 1.3-1.9h2.4zM231.7 26.5h-8.7c.1-1 .4-1.9.9-2.8.5-.9 1.5-1.9 2.8-3.1.8-.7 1.4-1.3 1.6-1.7s.4-.7.4-1.1c0-.4-.1-.7-.4-.9-.2-.3-.5-.4-.9-.4s-.7.1-.9.4c-.2.3-.4.7-.5 1.4l-2.9-.3c.1-.9.3-1.7.6-2.2s.7-.9 1.3-1.2c.6-.3 1.3-.4 2.3-.4 1 0 1.8.1 2.4.4.6.3 1 .7 1.3 1.2s.5 1.2.5 1.9-.2 1.4-.6 2.1c-.4.7-1.1 1.4-2 2.2-.6.5-1 .8-1.2 1l-.7.7h4.5v2.8zM234.1 14.5h6.9v2.7h-4.7l-.2 1.8c.3-.2.6-.3 1-.4.3-.1.6-.1.9-.1 1 0 1.9.4 2.5 1.1s1 1.6 1 2.7c0 .8-.2 1.5-.5 2.2-.3.7-.8 1.3-1.4 1.6-.6.4-1.4.6-2.4.6-.7 0-1.3-.1-1.8-.2s-.9-.4-1.3-.7c-.3-.3-.6-.6-.8-1-.2-.4-.4-.8-.5-1.4l2.9-.4c.1.5.2 1 .5 1.2.3.3.6.4.9.4.4 0 .7-.2 1-.5.3-.4.4-.9.4-1.6 0-.7-.1-1.2-.4-1.6-.3-.3-.6-.5-1.1-.5-.3 0-.6.1-.8.2-.2.1-.4.3-.6.6l-2.5-.4 1-6.3zM242.4 16.2c0-.5.1-.9.3-1.1s.5-.4.9-.4.7.1.9.4.3.6.3 1.1c0 .5-.1.9-.3 1.1s-.5.4-.9.4-.7-.1-.9-.4-.3-.6-.3-1.1zm.9 0c0 .4 0 .6.1.8.1.1.2.1.3.1.1 0 .2 0 .3-.1.1-.1.1-.4.1-.8s0-.6-.1-.7c-.1-.1-.2-.1-.3-.1-.1 0-.2 0-.3.1-.1 0-.1.3-.1.7zm1.2 4.5h-.8l3.1-6h.8l-3.1 6zm1.8-1.5c0-.5.1-.9.3-1.1s.5-.4.9-.4.7.1.9.4.3.6.3 1.1c0 .5-.1.9-.3 1.1s-.5.4-.9.4-.7-.1-.9-.4-.3-.6-.3-1.1zm.9 0c0 .4 0 .6.1.7.1.1.2.1.3.1.1 0 .2 0 .3-.1.1-.1.1-.4.1-.8s0-.6-.1-.8c-.1-.1-.2-.1-.3-.1s-.2 0-.3.1c-.1.3-.1.5-.1.9z"/></g><g fill="#fff"><path d="M201.1 21l5.9-7.2 5.9 7.2zM205 20h4v5h-4z"/></g><path fill="#fff" d="M42 5.5c-1.5.9-3.1 1.5-4.8 1.8-1.4-1.5-3.4-2.4-5.6-2.4-4.2 0-7.6 3.4-7.6 7.6 0 .6.1 1.2.2 1.7-6.3-.3-11.9-3.4-15.7-8-.7 1.1-1 2.4-1 3.8 0 2.6 1.3 5 3.4 6.3-1.2 0-2.4-.4-3.5-1v.1c0 3.7 2.6 6.8 6.1 7.5-.6.2-1.3.3-2 .3-.5 0-1 0-1.4-.1 1 3 3.8 5.2 7.1 5.3-2.6 2-5.9 3.3-9.5 3.3-.6 0-1.2 0-1.8-.1 3.4 2.2 7.4 3.4 11.7 3.4 14 0 21.7-11.6 21.7-21.7v-1c1.5-1.1 2.8-2.4 3.8-3.9-1.4.6-2.8 1-4.4 1.2 1.6-.9 2.8-2.4 3.3-4.1z"/></g></svg>