<svg xmlns="http://www.w3.org/2000/svg" viewBox="0 0 301.2 345.2" enable-background="new 0 0 301.2 345.2"><path fill="#2C2F35" stroke="#fff" stroke-width="2" stroke-miterlimit="10" d="M1.1 1.2h299v343h-299z"/><path fill-rule="evenodd" clip-rule="evenodd" fill="#fff" d="M96 26.5l-.6.3c-.6.3-1.3.4-1.8.4-.6 0-1.6 0-2.5-.7-1.3-.9-1.9-2.6-1.9-4 0-2.9 2.4-4.4 4.3-4.4.7 0 1.4.2 1.9.5.9.6 1.2 1.4 1.3 1.9l-4.4 1.8-1.5.1c.5 2.4 2.1 3.8 3.9 3.8 1 0 1.7-.3 2.3-.7l-1 1zm-1.8-5.6c.4-.1.5-.2.5-.5 0-.8-.9-1.6-1.9-1.6-.8 0-2.2.6-2.2 2.6 0 .3 0 .7.1 1l3.5-1.5zm-5.6 6.1l.7-.4c-.3 0-.6-.1-1-.1-.6-.1-.8-.2-.8-.9v-4.4c0-2.7 0-5 .2-6.5.1-.7.3-.8.9-1.1h-2.7l-1.4.7h1.5l-.1 3c-.1 2-.1 4.1-.1 5.5v3.2c0 .4-.1.4-.5 1h3.3zm-6.2-7.9c.4.4 1.3 1.1 1.3 2.6 0 1.4-.8 2.1-1.6 2.7-.2.2-.5.5-.5.9s.3.6.5.8l.7.5c.8.7 1.6 1.3 1.6 2.6 0 1.8-1.7 3.6-5 3.6-2.7 0-4.1-1.3-4.1-2.7 0-.7.3-1.6 1.5-2.3 1.2-.7 2.8-.8 3.6-.9-.3-.3-.6-.7-.6-1.3 0-.3.1-.5.2-.7h-.6c-2 0-3.1-1.5-3.1-3 0-.9.4-1.8 1.2-2.5 1.1-.9 2.4-1 3.4-1h3.9l-1.2.7h-1.2zm-1.4 8.4h-.4c-.2 0-1.2 0-2 .3-.4.2-1.6.6-1.6 1.9 0 1.3 1.3 2.3 3.3 2.3 1.8 0 2.8-.9 2.8-2 0-1-.6-1.5-2.1-2.5zm.6-3.6c.4-.4.5-1 .5-1.4 0-1.4-.8-3.5-2.4-3.5-.5 0-1 .2-1.3.6-.4.4-.5.9-.5 1.4 0 1.3.7 3.4 2.4 3.4.5 0 1-.2 1.3-.5zm-10.9 3.3c-3 0-4.6-2.3-4.6-4.5 0-2.5 2-4.6 4.9-4.6 2.8 0 4.5 2.2 4.5 4.5 0 2.2-1.8 4.6-4.8 4.6zm2.3-1.5c.5-.6.6-1.4.6-2.1 0-1.7-.8-4.8-3.1-4.8-.6 0-1.2.2-1.7.6-.7.7-.9 1.5-.9 2.3 0 1.9.9 5 3.2 5 .7-.1 1.5-.4 1.9-1zm-12.4 1.5c-3 0-4.6-2.3-4.6-4.5 0-2.5 2-4.6 4.9-4.6 2.8 0 4.5 2.2 4.5 4.5 0 2.2-1.7 4.6-4.8 4.6zm2.3-1.5c.5-.6.6-1.4.6-2.1 0-1.7-.8-4.8-3.1-4.8-.6 0-1.2.2-1.7.6-.7.7-.9 1.5-.9 2.3 0 1.9.9 5 3.2 5 .8-.1 1.5-.4 1.9-1zm-8.1.8v-3.1c0-.1.1-.2.2-.3l.5-.4h-3.8l-1.4.8 2.7-.1v2.9c-.5.2-1.1.4-2.3.4-3.9 0-6.3-3.1-6.3-6.5 0-3.1 2.1-5.2 4.9-5.2 2.1 0 3.2 1.1 3.8 1.7l-.4.7.6-.1 1.5-1.4c-.4-.3-1-.7-2.3-1.1-.8-.2-1.8-.4-2.7-.4-4.5 0-7.2 3.2-7.2 6.6 0 2.8 1.9 6.4 6.8 6.4 1 0 1.9-.1 2.9-.3l2.5-.6zm46 .1l3.3-8.7h1.2l3.5 8.7h-1.3l-1-2.6h-3.5l-1 2.6h-1.2zm2.5-3.6h2.9l-.9-2.4c-.3-.7-.5-1.3-.6-1.8-.1.6-.3 1.1-.5 1.7l-.9 2.5zm6.4 3.6v-6.3h1v.9c.5-.7 1.1-1 2-1 .4 0 .7.1 1 .2s.6.3.7.5c.2.2.3.5.3.8 0 .2.1.5.1 1v3.9h-1.1v-3.8c0-.4 0-.8-.1-1-.1-.2-.2-.4-.4-.5-.2-.1-.5-.2-.7-.2-.5 0-.8.1-1.2.4-.3.3-.5.8-.5 1.6v3.4h-1.1zm10.9-.8c-.4.3-.8.6-1.1.7-.4.1-.8.2-1.2.2-.7 0-1.2-.2-1.6-.5-.4-.3-.6-.8-.6-1.3 0-.3.1-.6.2-.8.1-.3.3-.5.5-.6.2-.2.5-.3.8-.3.2-.1.5-.1.9-.2.9-.1 1.5-.2 1.9-.4v-.3c0-.4-.1-.7-.3-.9-.3-.2-.7-.4-1.2-.4s-.9.1-1.1.3c-.2.2-.4.5-.5.9l-1-.1c.1-.4.3-.8.5-1.1.2-.3.5-.5.9-.6.4-.1.9-.2 1.4-.2.5 0 1 .1 1.3.2.3.1.6.3.7.5.2.2.3.4.3.7 0 .2.1.5.1 1v1.4c0 1 0 1.6.1 1.9 0 .3.1.5.3.8h-1.1c-.1-.4-.2-.6-.2-.9zm-.1-2.4c-.4.2-1 .3-1.7.4-.4.1-.7.1-.9.2-.2.1-.3.2-.4.3-.1.2-.1.3-.1.5 0 .3.1.5.3.7.2.2.5.3.9.3s.8-.1 1.1-.3c.3-.2.6-.4.7-.7.1-.2.2-.6.2-1.1v-.3zm2.7 3.2v-8.7h1.1v8.7h-1.1zm2.6 2.4l-.1-1c.2.1.4.1.6.1.2 0 .4 0 .6-.1.1-.1.3-.2.3-.3.1-.1.2-.4.3-.8 0-.1.1-.1.1-.3l-2.4-6.3h1.1l1.3 3.6c.2.5.3.9.5 1.5.1-.5.3-1 .4-1.4l1.3-3.7h1.1l-2.4 6.4c-.3.7-.5 1.2-.6 1.4-.2.4-.4.6-.7.8-.2.2-.5.2-.9.2 0 0-.2 0-.5-.1zm8.5-3.4l.2.9c-.3.1-.6.1-.8.1-.4 0-.7-.1-.9-.2-.2-.1-.4-.3-.4-.5-.1-.2-.1-.6-.1-1.3v-3.6h-.8v-.8h.8v-1.6l1.1-.6v2.2h1.1v.8h-1.1v3.7c0 .3 0 .5.1.6 0 .1.1.2.2.2.1.1.2.1.4.1h.2zm1-6.5v-1.2h1.1v1.2h-1.1zm0 7.5v-6.3h1.1v6.3h-1.1zm6.8-2.3l1 .1c-.1.7-.4 1.3-.9 1.7-.5.4-1 .6-1.7.6-.9 0-1.6-.3-2.1-.8-.5-.6-.8-1.4-.8-2.4 0-.7.1-1.3.3-1.8.2-.5.6-.9 1-1.1.5-.3 1-.4 1.5-.4.7 0 1.2.2 1.7.5.4.3.7.8.8 1.5l-1 .2c-.1-.4-.3-.7-.5-1-.2-.2-.6-.3-.9-.3-.5 0-1 .2-1.3.6-.3.4-.5 1-.5 1.8s.2 1.5.5 1.8c.3.4.7.6 1.3.6.4 0 .8-.1 1-.4.4-.3.5-.7.6-1.2zm1.5.4l1.1-.2c.1.4.2.7.5 1 .3.2.6.3 1.1.3.5 0 .9-.1 1.1-.3.2-.2.4-.4.4-.7 0-.2-.1-.4-.3-.6-.1-.1-.5-.2-1.1-.4-.8-.2-1.3-.4-1.6-.5-.3-.1-.5-.3-.7-.6-.2-.3-.2-.5-.2-.8 0-.3.1-.5.2-.8.1-.2.3-.4.5-.6.2-.1.4-.2.7-.3.3-.1.6-.1.9-.1.5 0 .9.1 1.3.2s.6.3.8.6c.2.2.3.6.4 1l-1 .1c0-.3-.2-.6-.4-.8-.2-.2-.5-.3-1-.3s-.8.1-1 .2c-.2.2-.3.4-.3.6 0 .1 0 .3.1.4.1.1.2.2.4.3.1 0 .4.1.9.3.8.2 1.3.4 1.6.5.3.1.5.3.7.6.2.2.3.5.3.9s-.1.7-.3 1c-.2.3-.5.6-.9.7-.4.2-.8.3-1.3.3-.8 0-1.4-.2-1.9-.5-.6-.3-.8-.8-1-1.5z"/><path fill="#fff" d="M24 21.9l12-11.9c-.2-.6-.7-.8-1.4-.8h-21.1c-.8 0-1.3.4-1.3 1.2v12.9l6.9-6.7 4.9 5.3zm-4.9-.4l-6.9 7.2v2.8c0 .8.5 1.6 1.3 1.6h21.2c.8 0 1.5-.8 1.5-1.6v-15.7l-12 11.6-5.1-5.9z"/><path fill="#FE8300" d="M36 9.9c.1.2.1.3.1.5l-.1-.5z"/><circle fill="#fff" cx="23.3" cy="68.5" r="5.5"/><path stroke="#fff" stroke-width="2" stroke-miterlimit="10" d="M34.1 69.2h35" fill="none"/><circle fill="#fff" cx="23.3" cy="85.5" r="5.5"/><path stroke="#fff" stroke-width="2" stroke-miterlimit="10" d="M34.1 86.2h35" fill="none"/><circle fill="#fff" cx="23.3" cy="102.5" r="5.5"/><path stroke="#fff" stroke-width="2" stroke-miterlimit="10" d="M34.1 103.2h35" fill="none"/><circle fill="#fff" cx="23.3" cy="119.5" r="5.5"/><path stroke="#fff" stroke-width="2" stroke-miterlimit="10" d="M34.1 120.2h35" fill="none"/><circle fill="#fff" cx="23.3" cy="136.5" r="5.5"/><path stroke="#fff" stroke-width="2" stroke-miterlimit="10" d="M34.1 137.2h35" fill="none"/><circle fill="#fff" cx="23.3" cy="153.5" r="5.5"/><path stroke="#fff" stroke-width="2" stroke-miterlimit="10" d="M34.1 154.2h35" fill="none"/><circle fill="#fff" cx="23.3" cy="170.5" r="5.5"/><path stroke="#fff" stroke-width="2" stroke-miterlimit="10" d="M34.1 171.2h35" fill="none"/><circle fill="#fff" cx="23.3" cy="187.5" r="5.5"/><path stroke="#fff" stroke-width="2" stroke-miterlimit="10" d="M34.1 188.2h35" fill="none"/><path stroke="#fff" stroke-miterlimit="10" d="M84.6 69.7h95v85h-95z" fill="none"/><path fill="#fff" d="M84.1 70.2h95v17h-95z"/><text transform="translate(88.801 81.758)" fill="#2C2F35" font-family="'Arial-BoldMT'" font-size="7.28">New Visits</text><path stroke="#fff" stroke-miterlimit="10" d="M89.1 140.7h87m-88-18h87m-86-18h87" fill="none"/><path stroke="#fff" stroke-width="2" stroke-miterlimit="10" d="M92.2 140.4l13-9.7 10.4 1.1 10.4-4.6h11l13.1-10 13.9-1.9 8.8-10.7m25.4 35.8l13.1-21.8 10.3 13.1 10-11.4 11.4 6.7 12.8-23.7 14.2 11.9 8.8-10.6" fill="none"/><circle fill="#fff" cx="92.1" cy="140.3" r="2.1"/><circle fill="#fff" cx="105.1" cy="131.3" r="2.1"/><circle fill="#fff" cx="115.1" cy="131.3" r="2.1"/><circle fill="#fff" cx="126.1" cy="127.3" r="2.1"/><circle fill="#fff" cx="137.1" cy="127.3" r="2.1"/><circle fill="#fff" cx="150.1" cy="117.3" r="2.1"/><circle fill="#fff" cx="164.1" cy="115.3" r="2.1"/><circle fill="#fff" cx="173.1" cy="104.3" r="2.1"/><circle fill="#fff" cx="198.1" cy="140.3" r="2.1"/><circle fill="#fff" cx="198.1" cy="209.3" r="2.1"/><circle fill="#fff" cx="215.1" cy="205.3" r="2.1"/><circle fill="#fff" cx="223.1" cy="205.3" r="2.1"/><circle fill="#fff" cx="228.1" cy="227.3" r="2.1"/><circle fill="#fff" cx="235.1" cy="210.3" r="2.1"/><circle fill="#fff" cx="244.1" cy="210.3" r="2.1"/><circle fill="#fff" cx="248.1" cy="223.3" r="2.1"/><circle fill="#fff" cx="253.1" cy="213.3" r="2.1"/><circle fill="#fff" cx="267.1" cy="213.3" r="2.1"/><circle fill="#fff" cx="271.1" cy="235.3" r="2.1"/><circle fill="#fff" cx="206.1" cy="233.3" r="2.1"/><circle fill="#fff" cx="274.1" cy="208.3" r="2.1"/><circle fill="#fff" cx="282.1" cy="208.3" r="2.1"/><circle fill="#fff" cx="211.1" cy="119.3" r="2.1"/><circle fill="#fff" cx="221.1" cy="131.3" r="2.1"/><circle fill="#fff" cx="232.1" cy="120.3" r="2.1"/><circle fill="#fff" cx="243.1" cy="127.3" r="2.1"/><circle fill="#fff" cx="256.1" cy="103.3" r="2.1"/><circle fill="#fff" cx="270.1" cy="115.3" r="2.1"/><circle fill="#fff" cx="279.1" cy="104.3" r="2.1"/><path stroke="#fff" stroke-miterlimit="10" d="M191.6 69.7h95v85h-95z" fill="none"/><path fill="#fff" d="M191.1 70.2h95v17h-95z"/><text transform="translate(195.801 81.758)" fill="#2C2F35" font-family="'Arial-BoldMT'" font-size="7.28">Unique Visitors</text><path stroke="#fff" stroke-miterlimit="10" d="M196.1 122.7h87m-87 18h87m-87-36h87" fill="none"/><path stroke="#fff" stroke-miterlimit="10" d="M84.6 166.7h95v85h-95z" fill="none"/><path fill="#fff" d="M84.1 167.2h95v17h-95z"/><text transform="translate(88.801 178.758)" fill="#2C2F35" font-family="'Arial-BoldMT'" font-size="7.28">Visits by browser</text><path stroke="#fff" stroke-miterlimit="10" d="M89.1 193.7h87m-87 10h87m-87 10h87m-87 10h87m-87 10h87m-87 10h87" fill="none"/><path stroke="#fff" stroke-miterlimit="10" d="M191.6 166.7h95v85h-95z" fill="none"/><path fill="#fff" d="M191.1 167.2h95v17h-95z"/><text transform="translate(195.801 178.758)" fill="#2C2F35" font-family="'Arial-BoldMT'" font-size="7.28">Bounce Rate</text><path stroke="#fff" stroke-miterlimit="10" d="M196.1 219.7h87m-87 18h87m-87-36h87" fill="none"/><path stroke="#fff" stroke-width="2" stroke-miterlimit="10" d="M198.1 208.9l8.3 22.9 8.3-26.6h8.3l4.6 21.3 6.7-16.3h9.7l4.2 13 4.5-10h14.3l3.5 18.7 3-23.7h9.6" fill="none"/></svg>